<svg width="77" height="73" viewBox="0 0 77 73" fill="none" xmlns="http://www.w3.org/2000/svg">
<path d="M49.5255 63.7524C48.7087 59.946 45.8104 56.9156 42.0738 55.6211C44.2735 54.33 45.7387 52.0455 45.7387 49.4433C45.7387 45.4228 42.2351 42.1482 37.9254 42.1482C33.6156 42.1482 30.1119 45.4194 30.1119 49.4433C30.1119 52.0689 31.6058 54.3702 33.8377 55.658C32.6841 56.066 31.5986 56.6413 30.6277 57.3738C28.5463 58.9425 27.0881 61.1535 26.5257 63.5985L24.6914 71.6395C24.5553 72.2282 24.9602 72.8101 25.5907 72.9339C25.6731 72.9506 25.7556 72.9573 25.8344 72.9573C26.3753 72.9573 26.859 72.6061 26.9772 72.091L28.8078 64.0535C29.7321 60.0364 33.5977 57.1196 38.0006 57.1196C42.4035 57.1196 46.3443 60.0865 47.2184 64.1738L48.8878 72.0743C49.0131 72.6664 49.6259 73.051 50.2636 72.9339C50.8977 72.8168 51.3096 72.2416 51.1842 71.6495L49.5147 63.7457L49.5255 63.7524ZM37.9289 44.3357C40.9454 44.3357 43.4029 46.6269 43.4029 49.4466C43.4029 52.2663 40.9489 54.5575 37.9289 54.5575C34.9088 54.5575 32.4549 52.2663 32.4549 49.4466C32.4549 46.6269 34.9088 44.3357 37.9289 44.3357Z" fill="url(#paint0_linear_12138_190)"/>
<path d="M62.5086 56.1901H65.1346C67.9397 56.1901 70.2935 54.2267 70.6052 51.6244C70.6052 51.6077 70.6052 51.591 70.6088 51.5776L71.3038 42.0214C71.3468 41.4194 70.8596 40.8976 70.2147 40.8574C69.5699 40.8173 69.011 41.2722 68.968 41.8743L68.2765 51.4037C68.0866 52.8888 66.7396 54.0059 65.1346 54.0059H52.2519C51.4566 54.0059 50.8117 53.4039 50.8117 52.6613C50.8117 51.9188 51.4566 51.3167 52.2519 51.3167H63.6443C64.2497 51.3167 64.7548 50.8852 64.8086 50.3233L65.3066 45.2191C65.3639 44.617 64.891 44.0885 64.2462 44.0317C63.6013 43.9748 63.0354 44.4197 62.9745 45.0217L62.5732 49.1325H52.2484C50.1634 49.1325 48.4688 50.7146 48.4688 52.6613C48.4688 54.608 50.1634 56.1901 52.2484 56.1901H59.46L69.8028 67.7799H54.8708C54.2259 67.7799 53.7028 68.2682 53.7028 68.8736C53.7028 69.479 54.2259 69.9674 54.8708 69.9674H72.2997C72.7547 69.9674 73.1666 69.7232 73.3601 69.3385C73.5535 68.9539 73.4892 68.5023 73.199 68.1745L62.5051 56.1935L62.5086 56.1901Z" fill="url(#paint1_linear_12138_190)"/>
<path d="M73.5738 37.8994C72.7677 37.1267 71.8507 36.5079 70.8547 36.0463C72.9505 34.7385 74.3368 32.5075 74.3368 29.9789C74.3368 25.9584 70.8331 22.6838 66.5233 22.6838C62.2136 22.6838 58.71 25.955 58.71 29.9789C58.71 30.5073 58.7708 31.0191 58.8855 31.5142L54.8873 29.3032C54.7619 29.233 54.7297 29.1928 54.5721 28.8684C54.4646 28.6509 54.3321 28.3801 54.1171 28.0824L48.5642 20.4428C48.5642 20.4428 48.5498 20.426 48.5427 20.416C47.2781 18.7837 44.885 18.3891 43.0974 19.5196C42.2161 20.0782 41.6213 20.9211 41.4207 21.9012C41.2236 22.8778 41.4457 23.8678 42.0404 24.6773L48.2812 33.3939C48.8365 34.1666 49.5816 34.8288 50.4378 35.3038L58.8281 40.2474L58.1259 46.3819C58.0579 46.9806 58.5235 47.5191 59.1648 47.5827C59.2078 47.586 59.2508 47.5893 59.2902 47.5893C59.8814 47.5893 60.3866 47.1746 60.4511 46.6126L61.2319 39.8026C61.2785 39.3879 61.0707 38.9865 60.6946 38.7624L51.6739 33.4475C51.6739 33.4475 51.6559 33.4374 51.6452 33.4307C51.0827 33.1197 50.5919 32.6882 50.23 32.1798L43.9821 23.4531C43.7349 23.1153 43.6419 22.7106 43.7243 22.3059C43.8067 21.9045 44.0503 21.5567 44.4121 21.3259C45.1429 20.8643 46.1173 21.0214 46.6403 21.6837L52.1826 29.3066C52.2901 29.4537 52.3617 29.6009 52.4441 29.7715C52.6483 30.1863 52.9242 30.7549 53.698 31.183L61.0852 35.2637C61.1318 35.2904 61.1782 35.3105 61.2248 35.3306C62.579 36.4979 64.3702 37.2271 66.3442 37.2672C66.4087 37.2773 66.4733 37.284 66.5413 37.284C68.5547 37.284 70.457 38.0432 71.9008 39.4246C73.341 40.8027 74.1362 42.6122 74.1362 44.5188V63.5274C74.1362 64.1295 74.6592 64.6178 75.3077 64.6178C75.9561 64.6178 76.4792 64.1295 76.4792 63.5274V44.5188C76.4792 42.0369 75.451 39.6855 73.581 37.8994H73.5738ZM66.5233 24.868C69.5398 24.868 71.9975 27.1592 71.9975 29.9789C71.9975 32.7985 69.5434 35.0898 66.5233 35.0898C63.5033 35.0898 61.0493 32.7985 61.0493 29.9789C61.0493 27.1592 63.5033 24.868 66.5233 24.868Z" fill="url(#paint2_linear_12138_190)"/>
<path d="M24.2284 56.1901C26.3134 56.1901 28.0079 54.608 28.0079 52.6613C28.0079 50.7146 26.3134 49.1325 24.2284 49.1325H13.9035L13.5022 45.0217C13.4449 44.4197 12.8753 43.9782 12.2305 44.0317C11.5856 44.0852 11.1127 44.617 11.1701 45.2191L11.6681 50.3233C11.7218 50.8852 12.227 51.3167 12.8324 51.3167H24.2247C25.0165 51.3167 25.6649 51.9188 25.6649 52.6613C25.6649 53.4039 25.0201 54.0059 24.2247 54.0059H11.342C9.73705 54.0059 8.39001 52.8888 8.20014 51.4037L7.50865 41.8743C7.46566 41.2722 6.90679 40.8173 6.26194 40.8574C5.61709 40.8976 5.12985 41.4194 5.17284 42.0214L5.868 51.5776C5.868 51.5776 5.86792 51.611 5.8715 51.6244C6.18676 54.2267 8.5369 56.1901 11.342 56.1901H13.2372L2.54333 68.1712C2.25314 68.4956 2.18859 68.9505 2.38204 69.3352C2.5755 69.7198 2.98765 69.9641 3.44263 69.9641H20.8716C21.5164 69.9641 22.043 69.4757 22.043 68.8703C22.043 68.2649 21.52 67.7765 20.8716 67.7765H5.93955L16.2823 56.1868H24.2284V56.1901Z" fill="url(#paint3_linear_12138_190)"/>
<path d="M2.34298 44.5189C2.34298 42.6124 3.1348 40.8029 4.57856 39.4248C6.02231 38.0434 7.92462 37.2841 9.93799 37.2841C10.0061 37.2841 10.0705 37.2774 10.135 37.2674C12.1089 37.2239 13.9038 36.4981 15.2544 35.3307C15.3117 35.3073 15.3691 35.2806 15.4229 35.2505L22.3264 31.1765C23.1683 30.7082 23.899 30.0626 24.4507 29.3101L29.9929 21.6872C30.516 21.0249 31.4903 20.8677 32.2212 21.3293C32.583 21.5601 32.8268 21.9047 32.9091 22.3094C32.9916 22.7108 32.8983 23.1188 32.644 23.4667L26.4032 32.1833C26.0414 32.6917 25.5505 33.1232 24.9881 33.4342C24.9809 33.4376 24.9737 33.4409 24.9666 33.4476L15.7883 38.7625C15.4049 38.9833 15.1936 39.388 15.2437 39.8061L16.0246 46.6161C16.0891 47.1781 16.5943 47.5928 17.1854 47.5928C17.2284 47.5928 17.2679 47.5928 17.3108 47.5861C17.9521 47.5226 18.4178 46.9841 18.3497 46.3854L17.6476 40.2576L26.1883 35.3106C27.0481 34.8357 27.7933 34.1734 28.3486 33.4008L34.5822 24.6942C35.184 23.8747 35.4061 22.8847 35.2091 21.9047C35.0121 20.928 34.4173 20.0817 33.5324 19.5231C31.7447 18.3926 29.3515 18.7872 28.0869 20.4195C28.0798 20.4295 28.0727 20.4363 28.0656 20.4463L22.5127 28.0859C22.1508 28.5809 21.6707 29.0057 21.119 29.3101C21.1083 29.3168 21.1011 29.3201 21.0903 29.3268L17.6189 31.3738C17.712 30.9222 17.7622 30.4607 17.7622 29.9824C17.7622 25.9619 14.2584 22.6873 9.94866 22.6873C5.63889 22.6873 2.13517 25.9586 2.13517 29.9824C2.13517 32.5111 3.5181 34.7387 5.61745 36.0498C4.6251 36.5114 3.70444 37.1336 2.89838 37.9029C1.0283 39.6924 0 42.0438 0 44.5223V63.5309C0 64.133 0.523055 64.6213 1.17149 64.6213C1.81993 64.6213 2.34298 64.133 2.34298 63.5309V44.5223V44.5189ZM9.95234 24.8681C12.9688 24.8681 15.4264 27.1593 15.4264 29.979C15.4264 32.7987 12.9724 35.0899 9.95234 35.0899C6.93227 35.0899 4.47815 32.7987 4.47815 29.979C4.47815 27.1593 6.93227 24.8681 9.95234 24.8681Z" fill="url(#paint4_linear_12138_190)"/>
<path d="M33.508 12.88C34.443 13.5857 35.6896 15.7464 36.2592 16.9439C36.4455 17.3386 36.8647 17.5927 37.3268 17.5927H39.4656C40.003 17.5927 40.4723 17.2516 40.6013 16.7632L40.6121 16.7265C41.0169 15.2146 41.9305 13.8767 43.1879 12.9535C45.1261 11.532 46.2079 9.40134 46.1614 7.10345C46.1219 5.23704 45.3158 3.47429 43.8936 2.13971C42.4713 0.805127 40.5869 0.0458894 38.5879 0.00240676C36.4706 -0.0477655 34.4823 0.688065 32.9741 2.06278C31.4658 3.4375 30.6348 5.2805 30.6348 7.2506C30.6348 9.4448 31.6844 11.4985 33.5115 12.8832L33.508 12.88ZM34.6077 3.62144C35.661 2.66148 37.0547 2.1497 38.5307 2.18315C41.3931 2.2467 43.7647 4.47438 43.822 7.14354C43.8543 8.74905 43.0983 10.2408 41.7441 11.2342C40.3039 12.2879 39.2077 13.7495 38.5915 15.4086H38.072C37.4952 14.3048 36.27 12.1608 34.9803 11.1841C33.7014 10.2175 32.9706 8.78252 32.9706 7.24725C32.9706 5.87253 33.5509 4.58475 34.6077 3.62144Z" fill="url(#paint5_linear_12138_190)"/>
<path d="M39.287 18.4586H37.5065C36.8616 18.4586 36.335 18.947 36.335 19.5524C36.335 20.1578 36.858 20.6461 37.5065 20.6461H39.287C39.9319 20.6461 40.4585 20.1578 40.4585 19.5524C40.4585 18.947 39.9355 18.4586 39.287 18.4586Z" fill="url(#paint6_linear_12138_190)"/>
<path d="M39.287 21.4621H37.5065C36.8616 21.4621 36.335 21.9504 36.335 22.5558C36.335 23.1612 36.858 23.6496 37.5065 23.6496H39.287C39.9319 23.6496 40.4585 23.1612 40.4585 22.5558C40.4585 21.9504 39.9355 21.4621 39.287 21.4621Z" fill="url(#paint7_linear_12138_190)"/>
<defs>
<linearGradient id="paint0_linear_12138_190" x1="24.665" y1="57.4525" x2="51.2069" y2="57.608" gradientUnits="userSpaceOnUse">
<stop stop-color="#000285"/>
<stop offset="0.0001" stop-color="#000285"/>
<stop offset="0.13755" stop-color="#00028C"/>
<stop offset="0.42" stop-color="#0301A9"/>
<stop offset="0.565" stop-color="#0500BF"/>
<stop offset="0.65" stop-color="#0A00C5"/>
<stop offset="0.6925" stop-color="#0D00C8"/>
<stop offset="0.735" stop-color="#0F00CB"/>
<stop offset="0.761274" stop-color="#1000CE"/>
<stop offset="0.787549" stop-color="#1100D0"/>
<stop offset="0.813823" stop-color="#1200D3"/>
<stop offset="0.840098" stop-color="#1300D6"/>
<stop offset="0.905" stop-color="#1700E0"/>
<stop offset="0.95245" stop-color="#1B00DB"/>
<stop offset="0.9998" stop-color="#2300F9"/>
<stop offset="0.9999" stop-color="#1E00D6"/>
<stop offset="0.9999" stop-color="#0B00C6"/>
<stop offset="0.99995" stop-color="#1700E0"/>
</linearGradient>
<linearGradient id="paint1_linear_12138_190" x1="48.4688" y1="55.3164" x2="73.471" y2="55.4624" gradientUnits="userSpaceOnUse">
<stop stop-color="#000285"/>
<stop offset="0.0001" stop-color="#000285"/>
<stop offset="0.13755" stop-color="#00028C"/>
<stop offset="0.42" stop-color="#0301A9"/>
<stop offset="0.565" stop-color="#0500BF"/>
<stop offset="0.65" stop-color="#0A00C5"/>
<stop offset="0.6925" stop-color="#0D00C8"/>
<stop offset="0.735" stop-color="#0F00CB"/>
<stop offset="0.761274" stop-color="#1000CE"/>
<stop offset="0.787549" stop-color="#1100D0"/>
<stop offset="0.813823" stop-color="#1200D3"/>
<stop offset="0.840098" stop-color="#1300D6"/>
<stop offset="0.905" stop-color="#1700E0"/>
<stop offset="0.95245" stop-color="#1B00DB"/>
<stop offset="0.9998" stop-color="#2300F9"/>
<stop offset="0.9999" stop-color="#1E00D6"/>
<stop offset="0.9999" stop-color="#0B00C6"/>
<stop offset="0.99995" stop-color="#1700E0"/>
</linearGradient>
<linearGradient id="paint2_linear_12138_190" x1="41.3506" y1="41.5978" x2="76.4798" y2="41.7813" gradientUnits="userSpaceOnUse">
<stop stop-color="#000285"/>
<stop offset="0.0001" stop-color="#000285"/>
<stop offset="0.13755" stop-color="#00028C"/>
<stop offset="0.42" stop-color="#0301A9"/>
<stop offset="0.565" stop-color="#0500BF"/>
<stop offset="0.65" stop-color="#0A00C5"/>
<stop offset="0.6925" stop-color="#0D00C8"/>
<stop offset="0.735" stop-color="#0F00CB"/>
<stop offset="0.761274" stop-color="#1000CE"/>
<stop offset="0.787549" stop-color="#1100D0"/>
<stop offset="0.813823" stop-color="#1200D3"/>
<stop offset="0.840098" stop-color="#1300D6"/>
<stop offset="0.905" stop-color="#1700E0"/>
<stop offset="0.95245" stop-color="#1B00DB"/>
<stop offset="0.9998" stop-color="#2300F9"/>
<stop offset="0.9999" stop-color="#1E00D6"/>
<stop offset="0.9999" stop-color="#0B00C6"/>
<stop offset="0.99995" stop-color="#1700E0"/>
</linearGradient>
<linearGradient id="paint3_linear_12138_190" x1="2.27148" y1="55.3147" x2="28.0081" y2="55.4695" gradientUnits="userSpaceOnUse">
<stop stop-color="#000285"/>
<stop offset="0.0001" stop-color="#000285"/>
<stop offset="0.13755" stop-color="#00028C"/>
<stop offset="0.42" stop-color="#0301A9"/>
<stop offset="0.565" stop-color="#0500BF"/>
<stop offset="0.65" stop-color="#0A00C5"/>
<stop offset="0.6925" stop-color="#0D00C8"/>
<stop offset="0.735" stop-color="#0F00CB"/>
<stop offset="0.761274" stop-color="#1000CE"/>
<stop offset="0.787549" stop-color="#1100D0"/>
<stop offset="0.813823" stop-color="#1200D3"/>
<stop offset="0.840098" stop-color="#1300D6"/>
<stop offset="0.905" stop-color="#1700E0"/>
<stop offset="0.95245" stop-color="#1B00DB"/>
<stop offset="0.9998" stop-color="#2300F9"/>
<stop offset="0.9999" stop-color="#1E00D6"/>
<stop offset="0.9999" stop-color="#0B00C6"/>
<stop offset="0.99995" stop-color="#1700E0"/>
</linearGradient>
<linearGradient id="paint4_linear_12138_190" x1="2.32208e-09" y1="41.6013" x2="35.2797" y2="41.7864" gradientUnits="userSpaceOnUse">
<stop stop-color="#000285"/>
<stop offset="0.0001" stop-color="#000285"/>
<stop offset="0.13755" stop-color="#00028C"/>
<stop offset="0.42" stop-color="#0301A9"/>
<stop offset="0.565" stop-color="#0500BF"/>
<stop offset="0.65" stop-color="#0A00C5"/>
<stop offset="0.6925" stop-color="#0D00C8"/>
<stop offset="0.735" stop-color="#0F00CB"/>
<stop offset="0.761274" stop-color="#1000CE"/>
<stop offset="0.787549" stop-color="#1100D0"/>
<stop offset="0.813823" stop-color="#1200D3"/>
<stop offset="0.840098" stop-color="#1300D6"/>
<stop offset="0.905" stop-color="#1700E0"/>
<stop offset="0.95245" stop-color="#1B00DB"/>
<stop offset="0.9998" stop-color="#2300F9"/>
<stop offset="0.9999" stop-color="#1E00D6"/>
<stop offset="0.9999" stop-color="#0B00C6"/>
<stop offset="0.99995" stop-color="#1700E0"/>
</linearGradient>
<linearGradient id="paint5_linear_12138_190" x1="30.6348" y1="8.7391" x2="46.1629" y2="8.83231" gradientUnits="userSpaceOnUse">
<stop stop-color="#000285"/>
<stop offset="0.0001" stop-color="#000285"/>
<stop offset="0.13755" stop-color="#00028C"/>
<stop offset="0.42" stop-color="#0301A9"/>
<stop offset="0.565" stop-color="#0500BF"/>
<stop offset="0.65" stop-color="#0A00C5"/>
<stop offset="0.6925" stop-color="#0D00C8"/>
<stop offset="0.735" stop-color="#0F00CB"/>
<stop offset="0.761274" stop-color="#1000CE"/>
<stop offset="0.787549" stop-color="#1100D0"/>
<stop offset="0.813823" stop-color="#1200D3"/>
<stop offset="0.840098" stop-color="#1300D6"/>
<stop offset="0.905" stop-color="#1700E0"/>
<stop offset="0.95245" stop-color="#1B00DB"/>
<stop offset="0.9998" stop-color="#2300F9"/>
<stop offset="0.9999" stop-color="#1E00D6"/>
<stop offset="0.9999" stop-color="#0B00C6"/>
<stop offset="0.99995" stop-color="#1700E0"/>
</linearGradient>
<linearGradient id="paint6_linear_12138_190" x1="36.335" y1="19.5453" x2="40.458" y2="19.5981" gradientUnits="userSpaceOnUse">
<stop stop-color="#000285"/>
<stop offset="0.0001" stop-color="#000285"/>
<stop offset="0.13755" stop-color="#00028C"/>
<stop offset="0.42" stop-color="#0301A9"/>
<stop offset="0.565" stop-color="#0500BF"/>
<stop offset="0.65" stop-color="#0A00C5"/>
<stop offset="0.6925" stop-color="#0D00C8"/>
<stop offset="0.735" stop-color="#0F00CB"/>
<stop offset="0.761274" stop-color="#1000CE"/>
<stop offset="0.787549" stop-color="#1100D0"/>
<stop offset="0.813823" stop-color="#1200D3"/>
<stop offset="0.840098" stop-color="#1300D6"/>
<stop offset="0.905" stop-color="#1700E0"/>
<stop offset="0.95245" stop-color="#1B00DB"/>
<stop offset="0.9998" stop-color="#2300F9"/>
<stop offset="0.9999" stop-color="#1E00D6"/>
<stop offset="0.9999" stop-color="#0B00C6"/>
<stop offset="0.99995" stop-color="#1700E0"/>
</linearGradient>
<linearGradient id="paint7_linear_12138_190" x1="36.335" y1="22.5487" x2="40.458" y2="22.6016" gradientUnits="userSpaceOnUse">
<stop stop-color="#000285"/>
<stop offset="0.0001" stop-color="#000285"/>
<stop offset="0.13755" stop-color="#00028C"/>
<stop offset="0.42" stop-color="#0301A9"/>
<stop offset="0.565" stop-color="#0500BF"/>
<stop offset="0.65" stop-color="#0A00C5"/>
<stop offset="0.6925" stop-color="#0D00C8"/>
<stop offset="0.735" stop-color="#0F00CB"/>
<stop offset="0.761274" stop-color="#1000CE"/>
<stop offset="0.787549" stop-color="#1100D0"/>
<stop offset="0.813823" stop-color="#1200D3"/>
<stop offset="0.840098" stop-color="#1300D6"/>
<stop offset="0.905" stop-color="#1700E0"/>
<stop offset="0.95245" stop-color="#1B00DB"/>
<stop offset="0.9998" stop-color="#2300F9"/>
<stop offset="0.9999" stop-color="#1E00D6"/>
<stop offset="0.9999" stop-color="#0B00C6"/>
<stop offset="0.99995" stop-color="#1700E0"/>
</linearGradient>
</defs>
</svg>
