<svg width="63" height="60" viewBox="0 0 63 60" fill="none" xmlns="http://www.w3.org/2000/svg">
<path d="M56.2644 50.1369L39.558 44.7572L38.9996 38.2401C38.9996 38.2401 38.9996 38.231 38.9996 38.228C40.1013 36.8929 41.6187 34.5361 41.8493 32.7449L42.0071 31.498C42.1285 30.5371 42.438 29.6247 42.9266 28.7884C43.7369 27.3926 44.1678 25.8021 44.1678 24.1903V17.5425C44.1678 17.0042 43.7339 16.5693 43.1967 16.5693C42.6596 16.5693 42.2256 17.0042 42.2256 17.5425V24.1903C42.2256 25.4615 41.8887 26.7114 41.2484 27.8092C40.6293 28.8736 40.2348 30.0323 40.08 31.2548L39.9222 32.5016C39.7614 33.7576 38.4412 35.9319 37.3062 37.2244C37.0877 37.4738 37.021 37.8022 37.0938 38.1033C37.0695 38.2006 37.0574 38.304 37.0665 38.4104L37.6795 45.5722C37.7129 45.9645 37.9769 46.296 38.3502 46.4146L55.6757 51.995C58.7378 52.9681 60.7954 55.7842 60.7954 59.0047C60.7954 59.543 61.2293 59.9779 61.7665 59.9779C62.3036 59.9779 62.7376 59.543 62.7376 59.0047C62.7376 54.9327 60.1338 51.3716 56.2644 50.143V50.1369Z" fill="url(#paint0_linear_11877_4258)"/>
<path d="M58.3484 39.0403L58.1299 36.498C58.6367 35.8441 59.3377 34.7463 59.4561 33.8127L59.532 33.2227C59.5805 32.8365 59.705 32.4715 59.8992 32.134C60.3271 31.395 60.5547 30.5556 60.5547 29.7011V26.8668C60.5547 23.3939 57.7354 20.5718 54.2727 20.5718C50.8101 20.5718 47.9908 23.3969 47.9908 26.8668V29.8349C47.9908 30.58 48.1668 31.3281 48.5006 31.9941L48.5886 32.1705C48.7343 32.4624 48.8284 32.7726 48.8678 33.095L48.9588 33.8127C49.0802 34.7554 49.7934 35.832 50.191 36.3702L49.9633 39.0403L42.3916 41.4793C41.8818 41.6435 41.5995 42.1909 41.7634 42.7048C41.8969 43.1184 42.2763 43.38 42.689 43.38C42.7861 43.38 42.8863 43.3647 42.9864 43.3343L51.1742 40.6977C51.5475 40.5791 51.8115 40.2446 51.8449 39.8553L52.1362 36.4706C52.1393 36.428 52.1362 36.3854 52.1362 36.3429C52.2182 36.0479 52.1605 35.7164 51.9511 35.4609C51.4838 34.8953 50.9496 33.9982 50.892 33.5663L50.8009 32.8487C50.7311 32.3073 50.5733 31.7873 50.3305 31.3007L50.2425 31.1243C50.0453 30.726 49.9391 30.282 49.9391 29.8349V26.8668C49.9391 24.4674 51.8874 22.518 54.2788 22.518C56.6702 22.518 58.6185 24.4704 58.6185 26.8668V29.7011C58.6185 30.212 58.4819 30.7138 58.227 31.1517C57.8993 31.7143 57.6929 32.3286 57.6079 32.9733L57.5321 33.5633C57.4714 34.0377 56.8978 34.9774 56.4183 35.5217C56.2332 35.7346 56.1573 36.0023 56.1846 36.2607C56.1755 36.3277 56.1755 36.3945 56.1816 36.4645L56.4729 39.8492C56.5063 40.2415 56.7703 40.573 57.1436 40.6916L61.0918 41.9628C61.192 41.9932 61.2921 42.0084 61.3892 42.0084C61.7989 42.0084 62.1813 41.7469 62.3149 41.3333C62.4787 40.8224 62.1995 40.272 61.6867 40.1077L58.3545 39.0342L58.3484 39.0403Z" fill="url(#paint1_linear_11877_4258)"/>
<path d="M1.26659 42.1394L5.74287 40.6979C6.11614 40.5793 6.38017 40.2448 6.41355 39.8555L6.70488 36.4708C6.70792 36.4282 6.70488 36.3857 6.70488 36.3431C6.78682 36.0481 6.72917 35.7166 6.51977 35.4612C6.05241 34.8955 5.51829 33.9984 5.46063 33.5666L5.36959 32.8489C5.29979 32.3076 5.14198 31.7875 4.8992 31.3009L4.81119 31.1246C4.61393 30.7262 4.50772 30.2822 4.50772 29.8352V26.867C4.50772 24.4676 6.45604 22.5183 8.84744 22.5183C11.2388 22.5183 13.1872 24.4707 13.1872 26.867V29.7013C13.1872 30.2122 13.0506 30.714 12.7957 31.1519C12.4679 31.7145 12.2615 32.3288 12.1766 32.9735L12.1007 33.5635C12.04 34.0379 11.4664 34.9776 10.9869 35.522C10.8018 35.7349 10.726 36.0025 10.7533 36.261C10.7442 36.3279 10.7442 36.3948 10.7502 36.4647L11.0416 39.8494C11.075 40.2417 11.339 40.5732 11.7123 40.6918L19.9001 43.3285C20.0002 43.3589 20.1003 43.3741 20.1975 43.3741C20.6071 43.3741 20.9895 43.1125 21.1231 42.6989C21.2869 42.188 21.0078 41.6376 20.4949 41.4734L12.9231 39.0345L12.7046 36.4921C13.2114 35.8383 13.9125 34.7404 14.0308 33.8068L14.1067 33.2168C14.1552 32.8306 14.2797 32.4657 14.4739 32.1281C14.9018 31.3892 15.1294 30.5498 15.1294 29.6953V26.861C15.1294 23.388 12.3101 20.5659 8.84744 20.5659C5.38477 20.5659 2.56547 23.3911 2.56547 26.861V29.8291C2.56547 30.5741 2.74148 31.3222 3.07531 31.9882L3.16332 32.1646C3.30898 32.4566 3.40306 32.7667 3.44251 33.0891L3.53356 33.8068C3.65495 34.7495 4.36812 35.8261 4.76567 36.3644L4.53806 39.0345L0.674803 40.2782C0.164962 40.4425 -0.117273 40.9899 0.0466042 41.5038C0.180134 41.9174 0.559485 42.1789 0.972214 42.1789C1.06933 42.1789 1.16947 42.1637 1.26961 42.1333L1.26659 42.1394Z" fill="url(#paint2_linear_11877_4258)"/>
<path d="M40.4628 20.7705C40.4628 20.3052 40.4355 19.8369 40.3808 19.3777C40.3171 18.8424 39.8346 18.4623 39.3035 18.5261C38.7694 18.59 38.39 19.0735 38.4538 19.6057C38.4993 19.9889 38.5205 20.3812 38.5205 20.7705C38.5205 25.2257 35.5738 28.8507 31.9533 28.8507C28.3328 28.8507 25.3861 25.2257 25.3861 20.7705C25.3861 16.3153 28.3328 12.6903 31.9533 12.6903C34.1322 12.6903 36.1595 14.0314 37.3794 16.2301L34.718 17.8936C34.0169 17.0026 33.0246 16.4825 31.9533 16.4825C29.8957 16.4825 28.2205 18.4075 28.2205 20.7705C28.2205 23.1334 29.8957 25.0584 31.9533 25.0584C33.3068 25.0584 34.5541 24.2191 35.2126 22.8658C35.4463 22.3822 35.246 21.8014 34.7665 21.5642C34.284 21.33 33.7044 21.5308 33.4676 22.0112C33.1369 22.6894 32.5572 23.1091 31.9563 23.1091C30.97 23.1091 30.1658 22.0599 30.1658 20.7674C30.1658 19.475 30.97 18.4258 31.9563 18.4258C32.3569 18.4258 32.7423 18.6113 33.0549 18.9337L31.4404 19.9433C30.9852 20.2292 30.8456 20.8283 31.1309 21.2844C31.316 21.5794 31.6316 21.7436 31.9563 21.7436C32.1323 21.7436 32.3083 21.695 32.4692 21.5946L51.9827 9.39072L54.6624 10.7501C54.802 10.82 54.9508 10.8535 55.0995 10.8535C55.2785 10.8535 55.4545 10.8048 55.6093 10.7075L61.4148 7.10686C61.7122 6.92135 61.8882 6.58988 61.8731 6.23711C61.8579 5.88435 61.6546 5.56805 61.342 5.40991L58.817 4.12962V0.972969C58.817 0.620203 58.6259 0.297836 58.3224 0.124493C58.0189 -0.0488487 57.6396 -0.0397076 57.3422 0.142758L51.5154 3.70995C51.2271 3.88633 51.0511 4.2026 51.0511 4.54016V7.67554L42.9027 12.7724C41.9862 10.9082 40.6145 9.31164 38.8877 8.11649C36.8453 6.69934 34.4448 5.95123 31.9533 5.95123C25.2222 5.95123 19.7444 11.4404 19.7444 18.1855V24.4623C19.7444 25.8704 20.0782 27.2845 20.7064 28.5435L20.8946 28.9176C21.2557 29.6413 21.4924 30.4168 21.5926 31.2196L21.7868 32.7341C22.0083 34.4858 23.4772 36.7392 24.4604 37.9982C24.4362 38.0712 24.4149 38.1503 24.4088 38.2294L23.8505 44.7464L7.14709 50.1261C3.27473 51.3547 0.670898 54.9189 0.670898 58.9909C0.670898 59.5292 1.10487 59.964 1.64203 59.964C2.17918 59.964 2.61315 59.5292 2.61315 58.9909C2.61315 55.7704 4.67072 52.9543 7.73887 51.9812L25.0613 46.4008C25.4346 46.2822 25.6986 45.9476 25.732 45.5584L26.345 38.3966C26.3541 38.2902 26.342 38.1868 26.3177 38.0864C26.4755 37.755 26.4421 37.3505 26.1933 37.0464C25.1068 35.7265 23.8687 33.6829 23.7169 32.4847L23.5227 30.9703C23.3922 29.9485 23.0948 28.9632 22.6335 28.0417L22.4454 27.6677C21.9507 26.6763 21.6897 25.5663 21.6897 24.4563V18.1795C21.6897 12.5078 26.2965 7.89145 31.9563 7.89145C35.9804 7.89145 39.5584 10.1936 41.2457 13.8033L39.0304 15.1901C37.4614 12.4227 34.8242 10.7349 31.9563 10.7349C27.2646 10.7349 23.4468 15.2327 23.4468 20.7614C23.4468 26.2901 27.2646 30.7878 31.9563 30.7878C36.6481 30.7878 40.4658 26.2901 40.4658 20.7614L40.4628 20.7705ZM55.0539 8.77033L53.9098 8.18947L57.764 5.78095L58.9263 6.3709L55.0539 8.77033ZM52.9964 5.09366L56.8809 2.71551V4.03841L52.9964 6.46824V5.09366Z" fill="url(#paint3_linear_11877_4258)"/>
<defs>
<linearGradient id="paint0_linear_11877_4258" x1="37.0635" y1="38.1323" x2="62.7383" y2="38.2355" gradientUnits="userSpaceOnUse">
<stop stop-color="#000285"/>
<stop offset="0.0001" stop-color="#000285"/>
<stop offset="0.13755" stop-color="#00028C"/>
<stop offset="0.42" stop-color="#0301A9"/>
<stop offset="0.565" stop-color="#0500BF"/>
<stop offset="0.65" stop-color="#0A00C5"/>
<stop offset="0.6925" stop-color="#0D00C8"/>
<stop offset="0.735" stop-color="#0F00CB"/>
<stop offset="0.761274" stop-color="#1000CE"/>
<stop offset="0.787549" stop-color="#1100D0"/>
<stop offset="0.813823" stop-color="#1200D3"/>
<stop offset="0.840098" stop-color="#1300D6"/>
<stop offset="0.905" stop-color="#1700E0"/>
<stop offset="0.95245" stop-color="#1B00DB"/>
<stop offset="0.9998" stop-color="#2300F9"/>
<stop offset="0.9999" stop-color="#1E00D6"/>
<stop offset="0.9999" stop-color="#0B00C6"/>
<stop offset="0.99995" stop-color="#1700E0"/>
</linearGradient>
<linearGradient id="paint1_linear_11877_4258" x1="41.7168" y1="31.9016" x2="62.3619" y2="32.0287" gradientUnits="userSpaceOnUse">
<stop stop-color="#000285"/>
<stop offset="0.0001" stop-color="#000285"/>
<stop offset="0.13755" stop-color="#00028C"/>
<stop offset="0.42" stop-color="#0301A9"/>
<stop offset="0.565" stop-color="#0500BF"/>
<stop offset="0.65" stop-color="#0A00C5"/>
<stop offset="0.6925" stop-color="#0D00C8"/>
<stop offset="0.735" stop-color="#0F00CB"/>
<stop offset="0.761274" stop-color="#1000CE"/>
<stop offset="0.787549" stop-color="#1100D0"/>
<stop offset="0.813823" stop-color="#1200D3"/>
<stop offset="0.840098" stop-color="#1300D6"/>
<stop offset="0.905" stop-color="#1700E0"/>
<stop offset="0.95245" stop-color="#1B00DB"/>
<stop offset="0.9998" stop-color="#2300F9"/>
<stop offset="0.9999" stop-color="#1E00D6"/>
<stop offset="0.9999" stop-color="#0B00C6"/>
<stop offset="0.99995" stop-color="#1700E0"/>
</linearGradient>
<linearGradient id="paint2_linear_11877_4258" x1="1.39341e-09" y1="31.8957" x2="21.17" y2="32.0294" gradientUnits="userSpaceOnUse">
<stop stop-color="#000285"/>
<stop offset="0.0001" stop-color="#000285"/>
<stop offset="0.13755" stop-color="#00028C"/>
<stop offset="0.42" stop-color="#0301A9"/>
<stop offset="0.565" stop-color="#0500BF"/>
<stop offset="0.65" stop-color="#0A00C5"/>
<stop offset="0.6925" stop-color="#0D00C8"/>
<stop offset="0.735" stop-color="#0F00CB"/>
<stop offset="0.761274" stop-color="#1000CE"/>
<stop offset="0.787549" stop-color="#1100D0"/>
<stop offset="0.813823" stop-color="#1200D3"/>
<stop offset="0.840098" stop-color="#1300D6"/>
<stop offset="0.905" stop-color="#1700E0"/>
<stop offset="0.95245" stop-color="#1B00DB"/>
<stop offset="0.9998" stop-color="#2300F9"/>
<stop offset="0.9999" stop-color="#1E00D6"/>
<stop offset="0.9999" stop-color="#0B00C6"/>
<stop offset="0.99995" stop-color="#1700E0"/>
</linearGradient>
<linearGradient id="paint3_linear_11877_4258" x1="0.670898" y1="29.7868" x2="61.8737" y2="30.2116" gradientUnits="userSpaceOnUse">
<stop stop-color="#000285"/>
<stop offset="0.0001" stop-color="#000285"/>
<stop offset="0.13755" stop-color="#00028C"/>
<stop offset="0.42" stop-color="#0301A9"/>
<stop offset="0.565" stop-color="#0500BF"/>
<stop offset="0.65" stop-color="#0A00C5"/>
<stop offset="0.6925" stop-color="#0D00C8"/>
<stop offset="0.735" stop-color="#0F00CB"/>
<stop offset="0.761274" stop-color="#1000CE"/>
<stop offset="0.787549" stop-color="#1100D0"/>
<stop offset="0.813823" stop-color="#1200D3"/>
<stop offset="0.840098" stop-color="#1300D6"/>
<stop offset="0.905" stop-color="#1700E0"/>
<stop offset="0.95245" stop-color="#1B00DB"/>
<stop offset="0.9998" stop-color="#2300F9"/>
<stop offset="0.9999" stop-color="#1E00D6"/>
<stop offset="0.9999" stop-color="#0B00C6"/>
<stop offset="0.99995" stop-color="#1700E0"/>
</linearGradient>
</defs>
</svg>
