<svg width="67" height="86" viewBox="0 0 67 86" fill="none" xmlns="http://www.w3.org/2000/svg">
<path d="M60.7121 79.0867C61.0804 78.6237 61.391 78.0879 61.6312 77.4981C62.0923 76.3566 62.1563 75.0756 61.8136 73.8928L58.7781 63.4323C58.7428 63.3118 58.6884 63.204 58.618 63.1089C59.2103 62.2718 59.5561 61.2539 59.5561 60.1568C59.5561 57.3063 57.2154 54.9884 54.3367 54.9884C53.4914 54.9884 52.694 55.1881 51.9896 55.5433L46.0177 54.1544L44.8009 48.615C44.6793 48.0569 44.122 47.7018 43.5584 47.8223C42.9948 47.9428 42.6362 48.4945 42.7579 49.0526L44.1156 55.2325C44.2021 55.6225 44.5063 55.9301 44.8969 56.0189L50.0491 57.2175C49.7449 57.6519 49.3094 58.5384 49.1493 59.0553C49.2709 58.4972 49.5752 59.0553 49.1493 59.0553V60.7307C49.2773 61.8627 49.7737 62.8837 50.5166 63.6733L45.9472 64.1362L43.1262 60.8861C43.0526 60.8037 42.9693 60.7339 42.8797 60.68C42.7228 60.1727 42.4313 59.7002 42.0022 59.3229C41.3906 58.787 40.6029 58.5238 39.7895 58.5841C38.973 58.6443 38.2365 59.0153 37.7082 59.6336L33.8721 64.133L29.3091 63.6733C30.1768 62.7506 30.7084 61.514 30.7084 60.1568C30.7084 57.3063 28.3677 54.9884 25.4891 54.9884C22.6104 54.9884 20.2695 57.3063 20.2695 60.1568C20.2695 61.2539 20.6186 62.2718 21.2078 63.1089C21.1374 63.204 21.0829 63.3118 21.0477 63.4323L18.0121 73.8928C17.6695 75.0756 17.7335 76.3534 18.1946 77.4981C18.4348 78.091 18.7454 78.6237 19.1136 79.0898C17.3429 79.2547 15.9531 80.7355 15.9531 82.5302C15.9531 84.4358 17.5191 85.9864 19.4435 85.9864H31.4961C32.0725 85.9864 32.5432 85.5234 32.5432 84.9495C32.5432 84.3756 32.0757 83.9127 31.4961 83.9127H19.4435C18.6718 83.9127 18.0442 83.2912 18.0442 82.527C18.0442 81.7628 18.6718 81.1414 19.4435 81.1414H28.3484C28.9248 81.1414 29.3955 80.6784 29.3955 80.1045C29.3955 79.5306 28.928 79.0676 28.3484 79.0676H23.254C21.653 79.0676 20.5963 77.8564 20.1384 76.7244C19.8502 76.0078 19.8084 75.2024 20.023 74.4604L22.8761 64.6245C23.2924 64.8623 23.7406 65.0462 24.2178 65.1667C24.3298 65.2238 24.4516 65.2618 24.5828 65.2745L34.2084 66.248C34.551 66.2829 34.8904 66.1465 35.1146 65.8865L39.3061 60.9685C39.4662 60.7783 39.6935 60.6641 39.9432 60.6483C40.193 60.6293 40.4333 60.7117 40.619 60.8734C40.9968 61.2032 41.0353 61.7803 40.7054 62.1576L34.9096 68.7403L25.8413 67.9983C25.2649 67.9507 24.7622 68.3756 24.7142 68.9432C24.6661 69.5139 25.0952 70.0118 25.6684 70.0593L34.0803 70.7474L36.7796 82.7363C36.8436 83.0185 36.7764 83.307 36.5938 83.5322C36.4113 83.7573 36.1424 83.8841 35.851 83.8841C35.4251 83.8841 35.0472 83.5987 34.932 83.1897L32.3415 73.8643C32.2551 73.5536 32.0277 73.2999 31.7267 73.1794C31.4257 73.0589 31.0832 73.0843 30.8046 73.246L27.183 75.3546C26.6867 75.6431 26.5201 76.2805 26.8115 76.7719C27.1029 77.2634 27.7466 77.4283 28.2429 77.1398L30.6861 75.7161L32.9147 83.7415C33.2765 85.0447 34.4838 85.9547 35.8479 85.9547C36.7765 85.9547 37.641 85.5425 38.2238 84.8259C38.8034 84.1092 39.0211 83.1834 38.8194 82.286L36.1584 70.4715L39.7959 66.34L43.6674 70.4747L41.0064 82.2892C40.8047 83.1865 41.0224 84.1124 41.602 84.829C42.1815 85.5456 43.0493 85.9579 43.9779 85.9579C45.3452 85.9579 46.5492 85.0478 46.9111 83.7446L49.1397 75.7192L51.5829 77.1429C52.0824 77.4315 52.7229 77.2666 53.0143 76.7751C53.3057 76.2836 53.1391 75.6463 52.6428 75.3578L49.0212 73.2492C48.7394 73.0874 48.4 73.0621 48.099 73.1826C47.798 73.3031 47.5707 73.5568 47.4843 73.8675L44.8938 83.1929C44.7817 83.6019 44.4039 83.8873 43.9748 83.8873C43.6834 83.8873 43.4143 83.7573 43.2318 83.5353C43.0493 83.3102 42.9821 83.0217 43.0462 82.7395L45.7455 70.7505L54.1574 70.0625C54.7338 70.0149 55.1596 69.5139 55.1116 68.9464C55.0636 68.3756 54.5576 67.9539 53.9845 68.0015L44.8938 68.7466L41.1729 64.7735L42.2744 63.5211C42.3385 63.4482 42.3993 63.372 42.4538 63.2959L44.7145 65.8992C44.913 66.1307 45.2044 66.2607 45.5086 66.2607C45.5438 66.2607 45.5791 66.2607 45.6143 66.2543L55.2397 65.2809C55.3709 65.2682 55.4927 65.2301 55.6047 65.1731C56.0818 65.0557 56.5333 64.8687 56.9464 64.6309L59.7995 74.4668C60.0141 75.2088 59.9757 76.0141 59.6843 76.7307C59.2264 77.8627 58.1665 79.074 56.5686 79.074H51.4741C50.8977 79.074 50.427 79.5369 50.427 80.1108C50.427 80.6848 50.8945 81.1477 51.4741 81.1477H60.3791C61.1508 81.1477 61.7785 81.7692 61.7785 82.5334C61.7785 83.2975 61.1508 83.919 60.3791 83.919H48.3264C47.75 83.919 47.2826 84.382 47.2826 84.9559C47.2826 85.5298 47.75 85.9927 48.3264 85.9927H60.3791C62.3036 85.9927 63.8694 84.4422 63.8694 82.5365C63.8694 80.7418 62.4796 79.2611 60.7089 79.0962L60.7121 79.0867ZM22.3573 60.1568C22.3573 58.4478 23.7598 57.0589 25.4858 57.0589C27.2117 57.0589 28.6142 58.4478 28.6142 60.1568C28.6142 61.8659 27.2117 63.2547 25.4858 63.2547C23.7598 63.2547 22.3573 61.8659 22.3573 60.1568ZM54.3367 63.2547C52.6108 63.2547 51.2083 61.8659 51.2083 60.1568C51.2083 58.4478 52.6108 57.0589 54.3367 57.0589C56.0626 57.0589 57.4652 58.4478 57.4652 60.1568C57.4652 61.8659 56.0626 63.2547 54.3367 63.2547Z" fill="url(#paint0_linear_11877_4268)"/>
<path d="M48.0362 42.2489C48.7963 42.6128 49.6526 42.8142 50.5518 42.8142C53.7598 42.8142 56.3682 40.2313 56.3682 37.0546C56.3682 36.3444 56.2361 35.6624 55.997 35.0334C56.0149 34.9522 56.0256 34.8674 56.0256 34.779V25.3093C56.0256 24.6732 55.5046 24.1538 54.8588 24.1538C54.2129 24.1538 53.6919 24.6697 53.6919 25.3093V32.2102C52.7855 31.6307 51.7044 31.2915 50.5447 31.2915C47.3367 31.2915 44.7283 33.8745 44.7283 37.0511C44.7283 38.5034 45.2741 39.832 46.1769 40.8496L46.102 40.945C44.639 42.8178 43.9182 45.1534 44.0645 47.5174L44.4891 54.2663C44.5284 54.8776 45.0387 55.3476 45.6525 55.3476C45.6775 55.3476 45.7024 55.3476 45.7274 55.3476C46.3697 55.3087 46.8586 54.761 46.8193 54.125L46.3947 47.376C46.2805 45.5704 46.8336 43.7895 47.9505 42.3584L48.0362 42.2489ZM50.5518 33.6024C52.4752 33.6024 54.0381 35.1501 54.0381 37.0546C54.0381 38.9592 52.4752 40.5069 50.5518 40.5069C48.6285 40.5069 47.0655 38.9592 47.0655 37.0546C47.0655 35.1501 48.6285 33.6024 50.5518 33.6024Z" fill="url(#paint1_linear_11877_4268)"/>
<path d="M32.7958 36.8228C33.2561 37.2645 33.9875 37.2574 34.4371 36.8052L56.2114 21.6792C56.5112 21.8346 57.5422 21.1439 57.7671 23.0174V54.3319C57.7671 54.9679 58.2701 55.6701 58.916 55.6701C59.5619 55.6701 60.0972 54.9715 60.0972 54.3319V23.0174C60.0972 22.0174 58.729 20.3993 58.0081 19.8057L59.7368 11.3922L60.8037 12.7632C61.0249 13.0494 61.3675 13.2119 61.7244 13.2119C61.76 13.2119 61.7957 13.2119 61.835 13.2084C62.2347 13.173 62.5843 12.9363 62.7663 12.5829L66.1634 5.95762C66.3668 5.56186 66.3204 5.08132 66.0456 4.7315C65.7708 4.37815 65.3141 4.21563 64.8752 4.3075L57.5422 5.87989C57.1532 5.9647 56.8321 6.24029 56.6929 6.61131C56.5538 6.98233 56.6216 7.39932 56.8642 7.71027L58.2952 9.54767L56.6929 19.2704C55.4414 19.2704 53.8338 20.2516 53.6447 21.6792L33.5878 34.367L27.9642 28.9502C27.743 28.7346 27.436 28.6215 27.1291 28.6251C26.8186 28.6321 26.5225 28.7594 26.3084 28.982L0.323744 55.8967C-0.1223 56.3561 -0.104598 57.0875 0.359288 57.5292C0.584094 57.7412 0.873222 57.8507 1.16583 57.8507C1.47271 57.8507 1.77953 57.7306 2.00791 57.4938L27.1791 31.4201L32.7921 36.8228H32.7958ZM62.9733 7.07422L61.521 9.9081L59.8367 7.74913L62.9733 7.07775V7.07422Z" fill="url(#paint2_linear_11877_4268)"/>
<path d="M28.5761 13.6077C29.5235 14.3533 30.7865 16.6361 31.3637 17.9012C31.5524 18.3182 31.9771 18.5867 32.4453 18.5867H34.6124C35.1569 18.5867 35.6323 18.2263 35.763 17.7104L35.774 17.6715C36.1842 16.0743 37.1097 14.6607 38.3838 13.6854C40.3475 12.1835 41.4436 9.93252 41.3964 7.50479C41.3565 5.53293 40.5398 3.67059 39.0987 2.2606C37.6577 0.850617 35.7484 0.0484821 33.723 0.00254274C31.5778 -0.0504643 29.5633 0.726941 28.0352 2.17933C26.5071 3.63172 25.665 5.57885 25.665 7.66026C25.665 9.97843 26.7285 12.1481 28.5797 13.6111L28.5761 13.6077ZM29.6904 3.82605C30.7576 2.81185 32.1696 2.27116 33.6651 2.3065C36.5653 2.37364 38.9682 4.72718 39.0263 7.54716C39.0589 9.24338 38.2929 10.8194 36.9209 11.869C35.4617 12.9821 34.3511 14.5264 33.7267 16.2792H33.2004C32.616 15.113 31.3746 12.8479 30.0679 11.816C28.7721 10.7947 28.0317 9.27874 28.0317 7.65672C28.0317 6.20433 28.6196 4.84379 29.6904 3.82605Z" fill="url(#paint3_linear_11877_4268)"/>
<path d="M34.3025 20.3394H32.4985C31.8451 20.3394 31.3115 20.8553 31.3115 21.4949C31.3115 22.1345 31.8415 22.6505 32.4985 22.6505H34.3025C34.9559 22.6505 35.4895 22.1345 35.4895 21.4949C35.4895 20.8553 34.9595 20.3394 34.3025 20.3394Z" fill="url(#paint4_linear_11877_4268)"/>
<path d="M34.3025 23.5156H32.4985C31.8451 23.5156 31.3115 24.0316 31.3115 24.6712C31.3115 25.3108 31.8415 25.8267 32.4985 25.8267H34.3025C34.9559 25.8267 35.4895 25.3108 35.4895 24.6712C35.4895 24.0316 34.9595 23.5156 34.3025 23.5156Z" fill="url(#paint5_linear_11877_4268)"/>
<defs>
<linearGradient id="paint0_linear_11877_4268" x1="15.9531" y1="66.7714" x2="63.868" y2="67.1802" gradientUnits="userSpaceOnUse">
<stop stop-color="#000285"/>
<stop offset="0.0001" stop-color="#000285"/>
<stop offset="0.13755" stop-color="#00028C"/>
<stop offset="0.42" stop-color="#0301A9"/>
<stop offset="0.565" stop-color="#0500BF"/>
<stop offset="0.65" stop-color="#0A00C5"/>
<stop offset="0.6925" stop-color="#0D00C8"/>
<stop offset="0.735" stop-color="#0F00CB"/>
<stop offset="0.761274" stop-color="#1000CE"/>
<stop offset="0.787549" stop-color="#1100D0"/>
<stop offset="0.813823" stop-color="#1200D3"/>
<stop offset="0.840098" stop-color="#1300D6"/>
<stop offset="0.905" stop-color="#1700E0"/>
<stop offset="0.95245" stop-color="#1B00DB"/>
<stop offset="0.9998" stop-color="#2300F9"/>
<stop offset="0.9999" stop-color="#1E00D6"/>
<stop offset="0.9999" stop-color="#0B00C6"/>
<stop offset="0.99995" stop-color="#1700E0"/>
</linearGradient>
<linearGradient id="paint1_linear_11877_4268" x1="44.0459" y1="39.6492" x2="56.3686" y2="39.6823" gradientUnits="userSpaceOnUse">
<stop stop-color="#000285"/>
<stop offset="0.0001" stop-color="#000285"/>
<stop offset="0.13755" stop-color="#00028C"/>
<stop offset="0.42" stop-color="#0301A9"/>
<stop offset="0.565" stop-color="#0500BF"/>
<stop offset="0.65" stop-color="#0A00C5"/>
<stop offset="0.6925" stop-color="#0D00C8"/>
<stop offset="0.735" stop-color="#0F00CB"/>
<stop offset="0.761274" stop-color="#1000CE"/>
<stop offset="0.787549" stop-color="#1100D0"/>
<stop offset="0.813823" stop-color="#1200D3"/>
<stop offset="0.840098" stop-color="#1300D6"/>
<stop offset="0.905" stop-color="#1700E0"/>
<stop offset="0.95245" stop-color="#1B00DB"/>
<stop offset="0.9998" stop-color="#2300F9"/>
<stop offset="0.9999" stop-color="#1E00D6"/>
<stop offset="0.9999" stop-color="#0B00C6"/>
<stop offset="0.99995" stop-color="#1700E0"/>
</linearGradient>
<linearGradient id="paint2_linear_11877_4268" x1="4.36316e-09" y1="30.8921" x2="66.2873" y2="31.4499" gradientUnits="userSpaceOnUse">
<stop stop-color="#000285"/>
<stop offset="0.0001" stop-color="#000285"/>
<stop offset="0.13755" stop-color="#00028C"/>
<stop offset="0.42" stop-color="#0301A9"/>
<stop offset="0.565" stop-color="#0500BF"/>
<stop offset="0.65" stop-color="#0A00C5"/>
<stop offset="0.6925" stop-color="#0D00C8"/>
<stop offset="0.735" stop-color="#0F00CB"/>
<stop offset="0.761274" stop-color="#1000CE"/>
<stop offset="0.787549" stop-color="#1100D0"/>
<stop offset="0.813823" stop-color="#1200D3"/>
<stop offset="0.840098" stop-color="#1300D6"/>
<stop offset="0.905" stop-color="#1700E0"/>
<stop offset="0.95245" stop-color="#1B00DB"/>
<stop offset="0.9998" stop-color="#2300F9"/>
<stop offset="0.9999" stop-color="#1E00D6"/>
<stop offset="0.9999" stop-color="#0B00C6"/>
<stop offset="0.99995" stop-color="#1700E0"/>
</linearGradient>
<linearGradient id="paint3_linear_11877_4268" x1="25.665" y1="9.23286" x2="41.3981" y2="9.32343" gradientUnits="userSpaceOnUse">
<stop stop-color="#000285"/>
<stop offset="0.0001" stop-color="#000285"/>
<stop offset="0.13755" stop-color="#00028C"/>
<stop offset="0.42" stop-color="#0301A9"/>
<stop offset="0.565" stop-color="#0500BF"/>
<stop offset="0.65" stop-color="#0A00C5"/>
<stop offset="0.6925" stop-color="#0D00C8"/>
<stop offset="0.735" stop-color="#0F00CB"/>
<stop offset="0.761274" stop-color="#1000CE"/>
<stop offset="0.787549" stop-color="#1100D0"/>
<stop offset="0.813823" stop-color="#1200D3"/>
<stop offset="0.840098" stop-color="#1300D6"/>
<stop offset="0.905" stop-color="#1700E0"/>
<stop offset="0.95245" stop-color="#1B00DB"/>
<stop offset="0.9998" stop-color="#2300F9"/>
<stop offset="0.9999" stop-color="#1E00D6"/>
<stop offset="0.9999" stop-color="#0B00C6"/>
<stop offset="0.99995" stop-color="#1700E0"/>
</linearGradient>
<linearGradient id="paint4_linear_11877_4268" x1="31.3115" y1="21.4874" x2="35.489" y2="21.5388" gradientUnits="userSpaceOnUse">
<stop stop-color="#000285"/>
<stop offset="0.0001" stop-color="#000285"/>
<stop offset="0.13755" stop-color="#00028C"/>
<stop offset="0.42" stop-color="#0301A9"/>
<stop offset="0.565" stop-color="#0500BF"/>
<stop offset="0.65" stop-color="#0A00C5"/>
<stop offset="0.6925" stop-color="#0D00C8"/>
<stop offset="0.735" stop-color="#0F00CB"/>
<stop offset="0.761274" stop-color="#1000CE"/>
<stop offset="0.787549" stop-color="#1100D0"/>
<stop offset="0.813823" stop-color="#1200D3"/>
<stop offset="0.840098" stop-color="#1300D6"/>
<stop offset="0.905" stop-color="#1700E0"/>
<stop offset="0.95245" stop-color="#1B00DB"/>
<stop offset="0.9998" stop-color="#2300F9"/>
<stop offset="0.9999" stop-color="#1E00D6"/>
<stop offset="0.9999" stop-color="#0B00C6"/>
<stop offset="0.99995" stop-color="#1700E0"/>
</linearGradient>
<linearGradient id="paint5_linear_11877_4268" x1="31.3115" y1="24.6637" x2="35.489" y2="24.715" gradientUnits="userSpaceOnUse">
<stop stop-color="#000285"/>
<stop offset="0.0001" stop-color="#000285"/>
<stop offset="0.13755" stop-color="#00028C"/>
<stop offset="0.42" stop-color="#0301A9"/>
<stop offset="0.565" stop-color="#0500BF"/>
<stop offset="0.65" stop-color="#0A00C5"/>
<stop offset="0.6925" stop-color="#0D00C8"/>
<stop offset="0.735" stop-color="#0F00CB"/>
<stop offset="0.761274" stop-color="#1000CE"/>
<stop offset="0.787549" stop-color="#1100D0"/>
<stop offset="0.813823" stop-color="#1200D3"/>
<stop offset="0.840098" stop-color="#1300D6"/>
<stop offset="0.905" stop-color="#1700E0"/>
<stop offset="0.95245" stop-color="#1B00DB"/>
<stop offset="0.9998" stop-color="#2300F9"/>
<stop offset="0.9999" stop-color="#1E00D6"/>
<stop offset="0.9999" stop-color="#0B00C6"/>
<stop offset="0.99995" stop-color="#1700E0"/>
</linearGradient>
</defs>
</svg>
