<svg width="44" height="73" viewBox="0 0 44 73" fill="none" xmlns="http://www.w3.org/2000/svg">
<path d="M8.14126 37.2768C10.7907 39.3194 14.323 45.5729 15.937 49.0385C16.4649 50.1808 17.6526 50.9164 18.9621 50.9164H25.0225C26.5452 50.9164 27.8749 49.929 28.2404 48.5157L28.2711 48.4093C29.4182 44.0338 32.0067 40.1615 35.5697 37.4897C41.0615 33.3755 44.127 27.2091 43.995 20.5586C43.8833 15.1569 41.5993 10.0552 37.5692 6.19268C33.5392 2.33018 28.1996 0.132812 22.5353 0.00696557C16.536 -0.138242 10.9021 1.99138 6.62849 5.97005C2.35485 9.94873 0 15.2827 0 20.9845C0 27.3349 2.97407 33.2785 8.15117 37.2862L8.14126 37.2768ZM11.2575 10.4811C14.2419 7.70277 18.1909 6.22161 22.3732 6.31842C30.484 6.50235 37.2041 12.9496 37.3665 20.6746C37.4579 25.3213 35.3157 29.6387 31.4785 32.5138C27.3978 35.5632 24.2917 39.7935 22.5457 44.595H21.0736C19.4392 41.4005 15.9677 35.1954 12.3132 32.3687C8.68928 29.5711 6.61858 25.4181 6.61858 20.9748C6.61858 16.9961 8.26289 13.269 11.2575 10.4811Z" fill="url(#paint0_linear_12138_223)"/>
<path d="M24.4546 56.5916H19.4093C17.5821 56.5916 16.0898 58.005 16.0898 59.7572C16.0898 61.5093 17.5719 62.9227 19.4093 62.9227H24.4546C26.2819 62.9227 27.7741 61.5093 27.7741 59.7572C27.7741 58.005 26.292 56.5916 24.4546 56.5916Z" fill="url(#paint1_linear_12138_223)"/>
<path d="M24.4546 66.0242H19.4093C17.5821 66.0242 16.0898 67.4376 16.0898 69.1897C16.0898 70.9419 17.5719 72.3553 19.4093 72.3553H24.4546C26.2819 72.3553 27.7741 70.9419 27.7741 69.1897C27.7741 67.4376 26.292 66.0242 24.4546 66.0242Z" fill="url(#paint2_linear_12138_223)"/>
<defs>
<linearGradient id="paint0_linear_12138_223" x1="2.89603e-09" y1="25.2924" x2="43.9995" y2="25.551" gradientUnits="userSpaceOnUse">
<stop stop-color="#000285"/>
<stop offset="0.0001" stop-color="#000285"/>
<stop offset="0.13755" stop-color="#00028C"/>
<stop offset="0.42" stop-color="#0301A9"/>
<stop offset="0.565" stop-color="#0500BF"/>
<stop offset="0.65" stop-color="#0A00C5"/>
<stop offset="0.6925" stop-color="#0D00C8"/>
<stop offset="0.735" stop-color="#0F00CB"/>
<stop offset="0.761274" stop-color="#1000CE"/>
<stop offset="0.787549" stop-color="#1100D0"/>
<stop offset="0.813823" stop-color="#1200D3"/>
<stop offset="0.840098" stop-color="#1300D6"/>
<stop offset="0.905" stop-color="#1700E0"/>
<stop offset="0.95245" stop-color="#1B00DB"/>
<stop offset="0.9998" stop-color="#2300F9"/>
<stop offset="0.9999" stop-color="#1E00D6"/>
<stop offset="0.9999" stop-color="#0B00C6"/>
<stop offset="0.99995" stop-color="#1700E0"/>
</linearGradient>
<linearGradient id="paint1_linear_12138_223" x1="16.0898" y1="59.7366" x2="27.7728" y2="59.8832" gradientUnits="userSpaceOnUse">
<stop stop-color="#000285"/>
<stop offset="0.0001" stop-color="#000285"/>
<stop offset="0.13755" stop-color="#00028C"/>
<stop offset="0.42" stop-color="#0301A9"/>
<stop offset="0.565" stop-color="#0500BF"/>
<stop offset="0.65" stop-color="#0A00C5"/>
<stop offset="0.6925" stop-color="#0D00C8"/>
<stop offset="0.735" stop-color="#0F00CB"/>
<stop offset="0.761274" stop-color="#1000CE"/>
<stop offset="0.787549" stop-color="#1100D0"/>
<stop offset="0.813823" stop-color="#1200D3"/>
<stop offset="0.840098" stop-color="#1300D6"/>
<stop offset="0.905" stop-color="#1700E0"/>
<stop offset="0.95245" stop-color="#1B00DB"/>
<stop offset="0.9998" stop-color="#2300F9"/>
<stop offset="0.9999" stop-color="#1E00D6"/>
<stop offset="0.9999" stop-color="#0B00C6"/>
<stop offset="0.99995" stop-color="#1700E0"/>
</linearGradient>
<linearGradient id="paint2_linear_12138_223" x1="16.0898" y1="69.1691" x2="27.7728" y2="69.3158" gradientUnits="userSpaceOnUse">
<stop stop-color="#000285"/>
<stop offset="0.0001" stop-color="#000285"/>
<stop offset="0.13755" stop-color="#00028C"/>
<stop offset="0.42" stop-color="#0301A9"/>
<stop offset="0.565" stop-color="#0500BF"/>
<stop offset="0.65" stop-color="#0A00C5"/>
<stop offset="0.6925" stop-color="#0D00C8"/>
<stop offset="0.735" stop-color="#0F00CB"/>
<stop offset="0.761274" stop-color="#1000CE"/>
<stop offset="0.787549" stop-color="#1100D0"/>
<stop offset="0.813823" stop-color="#1200D3"/>
<stop offset="0.840098" stop-color="#1300D6"/>
<stop offset="0.905" stop-color="#1700E0"/>
<stop offset="0.95245" stop-color="#1B00DB"/>
<stop offset="0.9998" stop-color="#2300F9"/>
<stop offset="0.9999" stop-color="#1E00D6"/>
<stop offset="0.9999" stop-color="#0B00C6"/>
<stop offset="0.99995" stop-color="#1700E0"/>
</linearGradient>
</defs>
</svg>
