<svg width="66" height="74" viewBox="0 0 66 74" fill="none" xmlns="http://www.w3.org/2000/svg">
<path d="M51.8312 10.1784C52.2622 10.4806 52.5822 10.994 52.7363 11.8512C52.8725 12.6093 52.8711 13.6001 52.718 14.8623L52.643 15.4203C52.3403 17.4689 51.6874 20.0768 50.7327 23.0225L50.3058 24.3058C49.0633 27.9386 47.5249 31.6507 45.9111 34.9942L45.8425 35.1381L45.8618 35.296C45.8645 35.3171 45.8674 35.3376 45.8695 35.3514C45.8719 35.3671 45.8734 35.3758 45.8747 35.3849C45.8772 35.4027 45.8761 35.4004 45.8762 35.3895L45.8764 35.4028L46.0178 43.8821C46.017 44.0013 45.9871 44.1101 45.9371 44.1964L45.9356 44.2002L37.3511 59.2756C37.2635 59.4258 37.1238 59.5306 36.9649 59.5715L36.895 59.5845C36.741 59.6049 36.5878 59.5659 36.4634 59.4788C36.4392 59.4618 36.4098 59.4377 36.3736 59.4028L30.8446 53.8511L30.843 53.8499C30.6069 53.6136 30.6065 53.2215 30.848 52.9818L30.8496 52.9794C31.088 52.7402 31.4754 52.7381 31.7166 52.9775L31.7161 52.9783L36.1855 57.4657L36.6862 57.9679L37.037 57.3516L44.7129 43.8741L44.785 43.7457L44.7835 43.5981L44.716 39.4977L44.6831 37.5024L43.7062 39.2421C42.8941 40.6881 42.0899 41.9863 41.3212 43.0835C38.8965 46.5441 36.6329 48.7101 34.4252 49.7789L33.9841 49.9778C33.6709 50.1097 33.3128 49.9614 33.1857 49.6521L33.1846 49.6502L33.1489 49.531C33.0956 49.2523 33.2432 48.9597 33.5187 48.8433C35.7059 47.9281 37.9869 45.7115 40.3198 42.382C43.256 38.1913 46.6775 31.0539 49.0513 24.1935C50.2028 20.8622 51.0133 17.8729 51.3837 15.5515C51.8722 12.4977 51.4372 11.5779 51.2491 11.3171L51.1415 11.1678L50.9647 11.1155C50.6473 11.0215 49.633 10.9341 46.9337 12.4336C44.8783 13.5743 42.3454 15.3568 39.6075 17.5766C33.9698 22.1502 28.429 27.8025 25.4927 31.9931C23.2484 35.1962 21.9583 38.0046 21.7611 40.3226L21.7365 40.7799C21.7294 41.1239 21.4446 41.3942 21.1071 41.3871C20.9798 41.3832 20.8621 41.3417 20.7686 41.2763C20.6283 41.178 20.5316 41.0212 20.5129 40.8396L20.5094 40.7596C20.5654 38.1751 21.8283 35.0855 24.4898 31.2869C25.2064 30.2641 26.0799 29.1519 27.0696 27.9897L28.3484 26.4878L26.4826 27.1289L23.0006 28.3272L22.8611 28.3749L22.7652 28.4878L12.7187 40.3043L12.2592 40.8445L12.9022 41.1436L18.646 43.8122L18.6468 43.8128C18.9519 43.9536 19.0849 44.3175 18.94 44.6264L18.9391 44.6293C18.815 44.8972 18.5187 45.0333 18.2401 44.9683L18.1238 44.9285L11.0165 41.6276C10.9711 41.6055 10.9386 41.5862 10.9143 41.5692L10.8248 41.5064C10.7458 41.4256 10.6894 41.3234 10.6645 41.2093C10.6238 41.0206 10.6751 40.8214 10.7982 40.6781L10.7993 40.6765L22.0375 27.4604L22.0411 27.457C22.1126 27.3713 22.2037 27.3095 22.3038 27.2762L22.309 27.2738L30.0771 24.5975L30.1994 24.5556L30.2896 24.4626C32.9356 21.7264 35.9903 18.9215 39.0736 16.4358C41.931 14.1332 44.5438 12.3292 46.6263 11.2046C47.9894 10.47 49.0814 10.0477 49.949 9.89824C50.8075 9.75031 51.3999 9.87622 51.8312 10.1784Z" fill="url(#paint0_linear_12138_162)" stroke="url(#paint1_linear_12138_162)" stroke-width="1.07931"/>
<path d="M39.3044 34.0494C39.5618 34.2046 39.6472 34.5375 39.4915 34.8018C39.3247 35.0832 39.1562 35.3628 38.986 35.6269L38.9844 35.6293C38.8259 35.8781 38.5028 35.9539 38.2514 35.8109L38.2082 35.7807C38.0013 35.6357 37.9233 35.3671 38.0143 35.1333L38.0637 35.0355C38.2288 34.7775 38.3914 34.5112 38.5507 34.2452C38.7092 33.9806 39.0449 33.8967 39.3044 34.0494Z" fill="url(#paint2_linear_12138_162)" stroke="url(#paint3_linear_12138_162)" stroke-width="0.962589"/>
<path d="M44.2336 20.4191C44.529 20.4769 44.7214 20.7619 44.6644 21.0584L44.6639 21.0592C44.6228 21.2597 43.6181 26.2793 41.2096 31.5099L41.2085 31.5115C41.081 31.7903 40.7566 31.9077 40.4861 31.7852C40.4472 31.7654 40.4171 31.7499 40.396 31.7351C40.1847 31.5871 40.1014 31.3036 40.2153 31.0553L40.2161 31.0558C41.391 28.5021 42.2292 25.9671 42.7757 24.0671C43.0492 23.1163 43.2507 22.3226 43.384 21.7626C43.4507 21.4826 43.5007 21.261 43.5344 21.1072C43.5512 21.0304 43.5636 20.9703 43.5724 20.9288C43.5797 20.8938 43.5831 20.8791 43.5839 20.8749L43.5852 20.8662L43.5878 20.8573L43.6201 20.75C43.72 20.5111 43.9755 20.3686 44.2336 20.4191Z" fill="url(#paint4_linear_12138_162)" stroke="url(#paint5_linear_12138_162)" stroke-width="0.962589"/>
<path d="M23.9336 49.7626C24.1784 49.9341 24.2406 50.2758 24.0652 50.5261L23.7491 50.9772C23.5737 51.2272 23.2312 51.2857 22.9865 51.1142C22.742 50.9427 22.6808 50.6014 22.8558 50.3513L23.1718 49.9002C23.3471 49.65 23.6887 49.5912 23.9336 49.7626Z" fill="url(#paint6_linear_12138_162)" stroke="url(#paint7_linear_12138_162)" stroke-width="0.962589"/>
<path d="M30.8828 39.8435C31.1276 40.015 31.1897 40.3567 31.0144 40.607L26.1173 47.5963C25.9418 47.8465 25.5995 47.9048 25.3547 47.7333C25.11 47.5617 25.0487 47.2205 25.2239 46.9704L30.121 39.9811C30.2963 39.7309 30.6379 39.6721 30.8828 39.8435Z" fill="url(#paint8_linear_12138_162)" stroke="url(#paint9_linear_12138_162)" stroke-width="0.962589"/>
<path d="M16.1345 51.6024C16.1991 51.6477 16.2611 51.6959 16.3216 51.7455C16.261 51.6961 16.1991 51.6477 16.1345 51.6024ZM16.1345 51.6024C16.0385 51.5352 15.9391 51.4744 15.8377 51.4183C15.9391 51.4743 16.0385 51.5352 16.1345 51.6024ZM7.73087 51.234L7.8497 51.1801C7.79188 51.2144 7.73481 51.25 7.67948 51.2886L7.72814 51.2464L7.58626 50.9741L7.73087 51.234ZM7.2827 50.5003C7.28483 50.5029 7.2869 50.5056 7.28902 50.5083C7.28688 50.5056 7.28484 50.5029 7.2827 50.5003ZM7.07447 50.2733C7.0871 50.2854 7.09947 50.2978 7.11182 50.3102C7.09943 50.2978 7.08713 50.2854 7.07447 50.2733ZM6.94732 50.1603C6.89607 50.1178 6.8433 50.0767 6.78841 50.0383L6.7892 50.0388C6.84372 50.077 6.89647 50.118 6.94732 50.1603ZM6.57158 49.9018C6.64006 49.9397 6.70624 49.9827 6.77185 50.0279C6.70619 49.9826 6.63985 49.9398 6.57158 49.9018ZM10.4217 51.1734C10.2659 51.0757 10.0876 50.9821 9.88854 50.9047L9.86142 50.8941L9.83343 50.8864C9.82283 50.8837 9.81196 50.882 9.80135 50.8794L10.0117 50.9195L10.4116 51.1674C10.4149 51.1695 10.4184 51.1713 10.4217 51.1734ZM10.8826 51.5213C10.8918 51.5296 10.9006 51.538 10.9094 51.5461C10.9006 51.538 10.8918 51.5296 10.8826 51.5213ZM10.728 51.3915C10.7475 51.4071 10.7662 51.423 10.7846 51.4383C10.7662 51.423 10.7475 51.4071 10.728 51.3915ZM13.3833 51.1092L13.5116 51.0895C13.4578 51.1016 13.4041 51.1156 13.3506 51.1304C13.339 51.0401 13.3185 50.952 13.2928 50.8658L13.3833 51.1092ZM17.5291 53.5466L17.4663 53.6362C17.4229 53.429 17.3585 53.2275 17.2774 53.0328L17.5291 53.5466ZM12.812 50.102C12.8431 50.1301 12.873 50.1595 12.9018 50.19C12.8728 50.1597 12.8433 50.1301 12.812 50.102ZM12.6585 49.979C12.7013 50.0089 12.7425 50.0411 12.782 50.075C12.7425 50.0413 12.7014 50.009 12.6585 49.979ZM15.5659 51.2839C15.5817 51.2908 15.5974 51.2979 15.6131 51.305C15.5974 51.2979 15.5817 51.2908 15.5659 51.2839ZM16.5925 51.9937C16.5999 52.0013 16.6068 52.0095 16.6141 52.0172C16.6068 52.0095 16.5999 52.0013 16.5925 51.9937ZM16.3976 51.8106C16.4246 51.8342 16.4514 51.8577 16.4775 51.8821C16.4513 51.8578 16.4247 51.8341 16.3976 51.8106ZM12.9293 50.2188C12.9455 50.2368 12.9608 50.2556 12.9762 50.2743C12.9607 50.2557 12.9456 50.2367 12.9293 50.2188Z" fill="url(#paint10_linear_12138_162)" stroke="url(#paint11_linear_12138_162)" stroke-width="0.962589"/>
<path d="M28.428 65.3166C28.91 65.6543 29.2256 66.16 29.3528 66.723C29.218 66.1806 28.9033 65.6867 28.4122 65.3425C28.3594 65.3055 28.3071 65.2738 28.2707 65.2517L27.9787 65.0745L28.0052 65.086C28.1554 65.1491 28.2974 65.2251 28.428 65.3166ZM27.6782 65.1681C27.6908 65.0994 27.7012 65.0306 27.7085 64.9615L27.7418 64.9753L27.6782 65.1681ZM27.657 64.0752C27.6604 64.0926 27.6651 64.1098 27.6682 64.1272C27.6646 64.1099 27.6609 64.0925 27.657 64.0752ZM26.8712 62.7103L27.2102 63.011L27.2027 63.02L27.3762 63.3204C27.4972 63.5305 27.5843 63.7592 27.6398 63.9976C27.551 63.6578 27.3928 63.3351 27.164 63.0514L27.1569 63.0428L27.0444 62.9175C26.7801 62.639 26.4981 62.4498 26.2738 62.3274C26.0162 62.187 25.8175 62.1267 25.8275 62.1304L25.8259 62.1293C25.8302 62.1199 25.8359 62.1131 25.8421 62.1096L25.8432 62.108C25.909 62.1281 26.3946 62.2867 26.8712 62.7103ZM27.2645 60.2003C27.587 60.4263 27.799 60.7691 27.8821 61.1518C27.7913 60.7899 27.5808 60.459 27.2487 60.2263C26.8683 59.9597 26.3921 59.8767 25.9404 59.9833C25.9334 59.8726 25.9217 59.7631 25.9044 59.6552L25.9538 59.9318L26.3611 59.9274C26.6888 59.9236 27.0047 60.0184 27.2645 60.2003ZM24.6054 57.5013C25.2391 57.9455 25.6741 58.6107 25.8481 59.3832C25.6634 58.6322 25.2267 57.9724 24.5893 57.5258C23.8409 57.0015 22.9234 56.8423 22.0508 57.0338L22.1056 57.0186L22.1571 56.9127L22.9736 56.9506C23.556 56.9777 24.1199 57.1612 24.6054 57.5013ZM25.8818 59.5308L25.8859 59.5539C25.8826 59.5372 25.8791 59.5205 25.8756 59.5039C25.8773 59.5128 25.8802 59.5218 25.8818 59.5308Z" fill="url(#paint12_linear_12138_162)" stroke="url(#paint13_linear_12138_162)" stroke-width="0.962589"/>
<path d="M13.8981 58.1909C15.2284 58.7552 16.0473 60.0058 16.0819 61.2331L15.9549 61.1846C15.9509 59.9598 15.1456 58.7737 13.9242 58.2558C12.9162 57.8281 11.7895 57.9237 10.9586 58.5281L10.5733 58.8091L10.8499 59.1972C11.4056 59.9765 11.4132 60.9422 10.8922 61.5926C10.8905 61.5931 10.8879 61.5945 10.8835 61.5949C10.8666 61.5963 10.8379 61.5926 10.8079 61.5717L10.7991 61.5655C10.7688 61.542 10.7588 61.5165 10.7566 61.5036C10.7563 61.5019 10.756 61.5006 10.7559 61.4995C11.4476 60.6338 11.1778 59.3888 10.3126 58.7098C9.44812 58.0318 8.16709 58.0566 7.47293 58.9131C7.47101 58.9136 7.46796 58.9152 7.46284 58.9155C7.44401 58.9167 7.41306 58.9107 7.38197 58.8863L7.37957 58.8846C7.34979 58.8614 7.34022 58.8362 7.33792 58.8232C7.33766 58.8217 7.33728 58.8202 7.3372 58.8192C7.95189 58.0631 9.16828 57.9017 10.1614 58.5443L10.4518 58.7323L10.7223 58.5164C11.546 57.8615 12.7573 57.7076 13.8981 58.1909ZM16.096 62.1575L16.0973 62.1608L16.2352 62.391C16.2095 62.3849 16.1839 62.3768 16.1576 62.3724C15.7109 62.2964 15.2488 62.5012 15.0472 62.9311C15.0377 62.9334 15.014 62.9358 14.9814 62.9195L14.9714 62.915L14.9626 62.9088C14.9368 62.8906 14.9222 62.8677 14.9166 62.8503C14.9113 62.8341 14.9153 62.8314 14.9128 62.8369C15.0265 62.5868 15.2417 62.4034 15.5165 62.3191L15.7607 62.2446L15.8349 62.0008C15.8547 61.9365 15.8715 61.8715 15.8863 61.8067L16.096 62.1575ZM16.8527 62.696C17.0223 62.866 17.1472 63.0738 17.2063 63.2992C17.1896 63.3003 17.163 63.2965 17.1345 63.2775C17.1034 63.2566 17.087 63.2293 17.0819 63.2096C17.0374 63.0389 16.953 62.8856 16.8409 62.757L16.8527 62.696Z" fill="url(#paint14_linear_12138_162)" stroke="url(#paint15_linear_12138_162)" stroke-width="0.962589"/>
<defs>
<linearGradient id="paint0_linear_12138_162" x1="24.1765" y1="20.6381" x2="51.5282" y2="39.9878" gradientUnits="userSpaceOnUse">
<stop stop-color="#000285"/>
<stop offset="0.0001" stop-color="#000285"/>
<stop offset="0.13755" stop-color="#00028C"/>
<stop offset="0.42" stop-color="#0301A9"/>
<stop offset="0.565" stop-color="#0500BF"/>
<stop offset="0.65" stop-color="#0A00C5"/>
<stop offset="0.6925" stop-color="#0D00C8"/>
<stop offset="0.735" stop-color="#0F00CB"/>
<stop offset="0.761274" stop-color="#1000CE"/>
<stop offset="0.787549" stop-color="#1100D0"/>
<stop offset="0.813823" stop-color="#1200D3"/>
<stop offset="0.840098" stop-color="#1300D6"/>
<stop offset="0.905" stop-color="#1700E0"/>
<stop offset="0.95245" stop-color="#1B00DB"/>
<stop offset="0.9998" stop-color="#2300F9"/>
<stop offset="0.9999" stop-color="#1E00D6"/>
<stop offset="0.9999" stop-color="#0B00C6"/>
<stop offset="0.99995" stop-color="#1700E0"/>
</linearGradient>
<linearGradient id="paint1_linear_12138_162" x1="24.1765" y1="20.6381" x2="51.5282" y2="39.9878" gradientUnits="userSpaceOnUse">
<stop stop-color="#000285"/>
<stop offset="0.0001" stop-color="#000285"/>
<stop offset="0.13755" stop-color="#00028C"/>
<stop offset="0.42" stop-color="#0301A9"/>
<stop offset="0.565" stop-color="#0500BF"/>
<stop offset="0.65" stop-color="#0A00C5"/>
<stop offset="0.6925" stop-color="#0D00C8"/>
<stop offset="0.735" stop-color="#0F00CB"/>
<stop offset="0.761274" stop-color="#1000CE"/>
<stop offset="0.787549" stop-color="#1100D0"/>
<stop offset="0.813823" stop-color="#1200D3"/>
<stop offset="0.840098" stop-color="#1300D6"/>
<stop offset="0.905" stop-color="#1700E0"/>
<stop offset="0.95245" stop-color="#1B00DB"/>
<stop offset="0.9998" stop-color="#2300F9"/>
<stop offset="0.9999" stop-color="#1E00D6"/>
<stop offset="0.9999" stop-color="#0B00C6"/>
<stop offset="0.99995" stop-color="#1700E0"/>
</linearGradient>
<linearGradient id="paint2_linear_12138_162" x1="37.9135" y1="34.314" x2="39.6387" y2="35.5351" gradientUnits="userSpaceOnUse">
<stop stop-color="#000285"/>
<stop offset="0.0001" stop-color="#000285"/>
<stop offset="0.13755" stop-color="#00028C"/>
<stop offset="0.42" stop-color="#0301A9"/>
<stop offset="0.565" stop-color="#0500BF"/>
<stop offset="0.65" stop-color="#0A00C5"/>
<stop offset="0.6925" stop-color="#0D00C8"/>
<stop offset="0.735" stop-color="#0F00CB"/>
<stop offset="0.761274" stop-color="#1000CE"/>
<stop offset="0.787549" stop-color="#1100D0"/>
<stop offset="0.813823" stop-color="#1200D3"/>
<stop offset="0.840098" stop-color="#1300D6"/>
<stop offset="0.905" stop-color="#1700E0"/>
<stop offset="0.95245" stop-color="#1B00DB"/>
<stop offset="0.9998" stop-color="#2300F9"/>
<stop offset="0.9999" stop-color="#1E00D6"/>
<stop offset="0.9999" stop-color="#0B00C6"/>
<stop offset="0.99995" stop-color="#1700E0"/>
</linearGradient>
<linearGradient id="paint3_linear_12138_162" x1="37.9135" y1="34.314" x2="39.6387" y2="35.5351" gradientUnits="userSpaceOnUse">
<stop stop-color="#000285"/>
<stop offset="0.0001" stop-color="#000285"/>
<stop offset="0.13755" stop-color="#00028C"/>
<stop offset="0.42" stop-color="#0301A9"/>
<stop offset="0.565" stop-color="#0500BF"/>
<stop offset="0.65" stop-color="#0A00C5"/>
<stop offset="0.6925" stop-color="#0D00C8"/>
<stop offset="0.735" stop-color="#0F00CB"/>
<stop offset="0.761274" stop-color="#1000CE"/>
<stop offset="0.787549" stop-color="#1100D0"/>
<stop offset="0.813823" stop-color="#1200D3"/>
<stop offset="0.840098" stop-color="#1300D6"/>
<stop offset="0.905" stop-color="#1700E0"/>
<stop offset="0.95245" stop-color="#1B00DB"/>
<stop offset="0.9998" stop-color="#2300F9"/>
<stop offset="0.9999" stop-color="#1E00D6"/>
<stop offset="0.9999" stop-color="#0B00C6"/>
<stop offset="0.99995" stop-color="#1700E0"/>
</linearGradient>
<linearGradient id="paint4_linear_12138_162" x1="40.3191" y1="24.6002" x2="44.5574" y2="27.5877" gradientUnits="userSpaceOnUse">
<stop stop-color="#000285"/>
<stop offset="0.0001" stop-color="#000285"/>
<stop offset="0.13755" stop-color="#00028C"/>
<stop offset="0.42" stop-color="#0301A9"/>
<stop offset="0.565" stop-color="#0500BF"/>
<stop offset="0.65" stop-color="#0A00C5"/>
<stop offset="0.6925" stop-color="#0D00C8"/>
<stop offset="0.735" stop-color="#0F00CB"/>
<stop offset="0.761274" stop-color="#1000CE"/>
<stop offset="0.787549" stop-color="#1100D0"/>
<stop offset="0.813823" stop-color="#1200D3"/>
<stop offset="0.840098" stop-color="#1300D6"/>
<stop offset="0.905" stop-color="#1700E0"/>
<stop offset="0.95245" stop-color="#1B00DB"/>
<stop offset="0.9998" stop-color="#2300F9"/>
<stop offset="0.9999" stop-color="#1E00D6"/>
<stop offset="0.9999" stop-color="#0B00C6"/>
<stop offset="0.99995" stop-color="#1700E0"/>
</linearGradient>
<linearGradient id="paint5_linear_12138_162" x1="40.3191" y1="24.6002" x2="44.5574" y2="27.5877" gradientUnits="userSpaceOnUse">
<stop stop-color="#000285"/>
<stop offset="0.0001" stop-color="#000285"/>
<stop offset="0.13755" stop-color="#00028C"/>
<stop offset="0.42" stop-color="#0301A9"/>
<stop offset="0.565" stop-color="#0500BF"/>
<stop offset="0.65" stop-color="#0A00C5"/>
<stop offset="0.6925" stop-color="#0D00C8"/>
<stop offset="0.735" stop-color="#0F00CB"/>
<stop offset="0.761274" stop-color="#1000CE"/>
<stop offset="0.787549" stop-color="#1100D0"/>
<stop offset="0.813823" stop-color="#1200D3"/>
<stop offset="0.840098" stop-color="#1300D6"/>
<stop offset="0.905" stop-color="#1700E0"/>
<stop offset="0.95245" stop-color="#1B00DB"/>
<stop offset="0.9998" stop-color="#2300F9"/>
<stop offset="0.9999" stop-color="#1E00D6"/>
<stop offset="0.9999" stop-color="#0B00C6"/>
<stop offset="0.99995" stop-color="#1700E0"/>
</linearGradient>
<linearGradient id="paint6_linear_12138_162" x1="22.6245" y1="49.8423" x2="24.2997" y2="51.0294" gradientUnits="userSpaceOnUse">
<stop stop-color="#000285"/>
<stop offset="0.0001" stop-color="#000285"/>
<stop offset="0.13755" stop-color="#00028C"/>
<stop offset="0.42" stop-color="#0301A9"/>
<stop offset="0.565" stop-color="#0500BF"/>
<stop offset="0.65" stop-color="#0A00C5"/>
<stop offset="0.6925" stop-color="#0D00C8"/>
<stop offset="0.735" stop-color="#0F00CB"/>
<stop offset="0.761274" stop-color="#1000CE"/>
<stop offset="0.787549" stop-color="#1100D0"/>
<stop offset="0.813823" stop-color="#1200D3"/>
<stop offset="0.840098" stop-color="#1300D6"/>
<stop offset="0.905" stop-color="#1700E0"/>
<stop offset="0.95245" stop-color="#1B00DB"/>
<stop offset="0.9998" stop-color="#2300F9"/>
<stop offset="0.9999" stop-color="#1E00D6"/>
<stop offset="0.9999" stop-color="#0B00C6"/>
<stop offset="0.99995" stop-color="#1700E0"/>
</linearGradient>
<linearGradient id="paint7_linear_12138_162" x1="22.6245" y1="49.8423" x2="24.2997" y2="51.0294" gradientUnits="userSpaceOnUse">
<stop stop-color="#000285"/>
<stop offset="0.0001" stop-color="#000285"/>
<stop offset="0.13755" stop-color="#00028C"/>
<stop offset="0.42" stop-color="#0301A9"/>
<stop offset="0.565" stop-color="#0500BF"/>
<stop offset="0.65" stop-color="#0A00C5"/>
<stop offset="0.6925" stop-color="#0D00C8"/>
<stop offset="0.735" stop-color="#0F00CB"/>
<stop offset="0.761274" stop-color="#1000CE"/>
<stop offset="0.787549" stop-color="#1100D0"/>
<stop offset="0.813823" stop-color="#1200D3"/>
<stop offset="0.840098" stop-color="#1300D6"/>
<stop offset="0.905" stop-color="#1700E0"/>
<stop offset="0.95245" stop-color="#1B00DB"/>
<stop offset="0.9998" stop-color="#2300F9"/>
<stop offset="0.9999" stop-color="#1E00D6"/>
<stop offset="0.9999" stop-color="#0B00C6"/>
<stop offset="0.99995" stop-color="#1700E0"/>
</linearGradient>
<linearGradient id="paint8_linear_12138_162" x1="27.298" y1="43.1711" x2="28.978" y2="44.3515" gradientUnits="userSpaceOnUse">
<stop stop-color="#000285"/>
<stop offset="0.0001" stop-color="#000285"/>
<stop offset="0.13755" stop-color="#00028C"/>
<stop offset="0.42" stop-color="#0301A9"/>
<stop offset="0.565" stop-color="#0500BF"/>
<stop offset="0.65" stop-color="#0A00C5"/>
<stop offset="0.6925" stop-color="#0D00C8"/>
<stop offset="0.735" stop-color="#0F00CB"/>
<stop offset="0.761274" stop-color="#1000CE"/>
<stop offset="0.787549" stop-color="#1100D0"/>
<stop offset="0.813823" stop-color="#1200D3"/>
<stop offset="0.840098" stop-color="#1300D6"/>
<stop offset="0.905" stop-color="#1700E0"/>
<stop offset="0.95245" stop-color="#1B00DB"/>
<stop offset="0.9998" stop-color="#2300F9"/>
<stop offset="0.9999" stop-color="#1E00D6"/>
<stop offset="0.9999" stop-color="#0B00C6"/>
<stop offset="0.99995" stop-color="#1700E0"/>
</linearGradient>
<linearGradient id="paint9_linear_12138_162" x1="27.298" y1="43.1711" x2="28.978" y2="44.3515" gradientUnits="userSpaceOnUse">
<stop stop-color="#000285"/>
<stop offset="0.0001" stop-color="#000285"/>
<stop offset="0.13755" stop-color="#00028C"/>
<stop offset="0.42" stop-color="#0301A9"/>
<stop offset="0.565" stop-color="#0500BF"/>
<stop offset="0.65" stop-color="#0A00C5"/>
<stop offset="0.6925" stop-color="#0D00C8"/>
<stop offset="0.735" stop-color="#0F00CB"/>
<stop offset="0.761274" stop-color="#1000CE"/>
<stop offset="0.787549" stop-color="#1100D0"/>
<stop offset="0.813823" stop-color="#1200D3"/>
<stop offset="0.840098" stop-color="#1300D6"/>
<stop offset="0.905" stop-color="#1700E0"/>
<stop offset="0.95245" stop-color="#1B00DB"/>
<stop offset="0.9998" stop-color="#2300F9"/>
<stop offset="0.9999" stop-color="#1E00D6"/>
<stop offset="0.9999" stop-color="#0B00C6"/>
<stop offset="0.99995" stop-color="#1700E0"/>
</linearGradient>
<linearGradient id="paint10_linear_12138_162" x1="5.39059" y1="46.892" x2="17.6744" y2="55.6508" gradientUnits="userSpaceOnUse">
<stop stop-color="#000285"/>
<stop offset="0.0001" stop-color="#000285"/>
<stop offset="0.13755" stop-color="#00028C"/>
<stop offset="0.42" stop-color="#0301A9"/>
<stop offset="0.565" stop-color="#0500BF"/>
<stop offset="0.65" stop-color="#0A00C5"/>
<stop offset="0.6925" stop-color="#0D00C8"/>
<stop offset="0.735" stop-color="#0F00CB"/>
<stop offset="0.761274" stop-color="#1000CE"/>
<stop offset="0.787549" stop-color="#1100D0"/>
<stop offset="0.813823" stop-color="#1200D3"/>
<stop offset="0.840098" stop-color="#1300D6"/>
<stop offset="0.905" stop-color="#1700E0"/>
<stop offset="0.95245" stop-color="#1B00DB"/>
<stop offset="0.9998" stop-color="#2300F9"/>
<stop offset="0.9999" stop-color="#1E00D6"/>
<stop offset="0.9999" stop-color="#0B00C6"/>
<stop offset="0.99995" stop-color="#1700E0"/>
</linearGradient>
<linearGradient id="paint11_linear_12138_162" x1="5.39059" y1="46.892" x2="17.6744" y2="55.6508" gradientUnits="userSpaceOnUse">
<stop stop-color="#000285"/>
<stop offset="0.0001" stop-color="#000285"/>
<stop offset="0.13755" stop-color="#00028C"/>
<stop offset="0.42" stop-color="#0301A9"/>
<stop offset="0.565" stop-color="#0500BF"/>
<stop offset="0.65" stop-color="#0A00C5"/>
<stop offset="0.6925" stop-color="#0D00C8"/>
<stop offset="0.735" stop-color="#0F00CB"/>
<stop offset="0.761274" stop-color="#1000CE"/>
<stop offset="0.787549" stop-color="#1100D0"/>
<stop offset="0.813823" stop-color="#1200D3"/>
<stop offset="0.840098" stop-color="#1300D6"/>
<stop offset="0.905" stop-color="#1700E0"/>
<stop offset="0.95245" stop-color="#1B00DB"/>
<stop offset="0.9998" stop-color="#2300F9"/>
<stop offset="0.9999" stop-color="#1E00D6"/>
<stop offset="0.9999" stop-color="#0B00C6"/>
<stop offset="0.99995" stop-color="#1700E0"/>
</linearGradient>
<linearGradient id="paint12_linear_12138_162" x1="20.3867" y1="57.4671" x2="31.7942" y2="65.587" gradientUnits="userSpaceOnUse">
<stop stop-color="#000285"/>
<stop offset="0.0001" stop-color="#000285"/>
<stop offset="0.13755" stop-color="#00028C"/>
<stop offset="0.42" stop-color="#0301A9"/>
<stop offset="0.565" stop-color="#0500BF"/>
<stop offset="0.65" stop-color="#0A00C5"/>
<stop offset="0.6925" stop-color="#0D00C8"/>
<stop offset="0.735" stop-color="#0F00CB"/>
<stop offset="0.761274" stop-color="#1000CE"/>
<stop offset="0.787549" stop-color="#1100D0"/>
<stop offset="0.813823" stop-color="#1200D3"/>
<stop offset="0.840098" stop-color="#1300D6"/>
<stop offset="0.905" stop-color="#1700E0"/>
<stop offset="0.95245" stop-color="#1B00DB"/>
<stop offset="0.9998" stop-color="#2300F9"/>
<stop offset="0.9999" stop-color="#1E00D6"/>
<stop offset="0.9999" stop-color="#0B00C6"/>
<stop offset="0.99995" stop-color="#1700E0"/>
</linearGradient>
<linearGradient id="paint13_linear_12138_162" x1="20.3867" y1="57.4671" x2="31.7942" y2="65.587" gradientUnits="userSpaceOnUse">
<stop stop-color="#000285"/>
<stop offset="0.0001" stop-color="#000285"/>
<stop offset="0.13755" stop-color="#00028C"/>
<stop offset="0.42" stop-color="#0301A9"/>
<stop offset="0.565" stop-color="#0500BF"/>
<stop offset="0.65" stop-color="#0A00C5"/>
<stop offset="0.6925" stop-color="#0D00C8"/>
<stop offset="0.735" stop-color="#0F00CB"/>
<stop offset="0.761274" stop-color="#1000CE"/>
<stop offset="0.787549" stop-color="#1100D0"/>
<stop offset="0.813823" stop-color="#1200D3"/>
<stop offset="0.840098" stop-color="#1300D6"/>
<stop offset="0.905" stop-color="#1700E0"/>
<stop offset="0.95245" stop-color="#1B00DB"/>
<stop offset="0.9998" stop-color="#2300F9"/>
<stop offset="0.9999" stop-color="#1E00D6"/>
<stop offset="0.9999" stop-color="#0B00C6"/>
<stop offset="0.99995" stop-color="#1700E0"/>
</linearGradient>
<linearGradient id="paint14_linear_12138_162" x1="8.12943" y1="56.8495" x2="17.553" y2="63.653" gradientUnits="userSpaceOnUse">
<stop stop-color="#000285"/>
<stop offset="0.0001" stop-color="#000285"/>
<stop offset="0.13755" stop-color="#00028C"/>
<stop offset="0.42" stop-color="#0301A9"/>
<stop offset="0.565" stop-color="#0500BF"/>
<stop offset="0.65" stop-color="#0A00C5"/>
<stop offset="0.6925" stop-color="#0D00C8"/>
<stop offset="0.735" stop-color="#0F00CB"/>
<stop offset="0.761274" stop-color="#1000CE"/>
<stop offset="0.787549" stop-color="#1100D0"/>
<stop offset="0.813823" stop-color="#1200D3"/>
<stop offset="0.840098" stop-color="#1300D6"/>
<stop offset="0.905" stop-color="#1700E0"/>
<stop offset="0.95245" stop-color="#1B00DB"/>
<stop offset="0.9998" stop-color="#2300F9"/>
<stop offset="0.9999" stop-color="#1E00D6"/>
<stop offset="0.9999" stop-color="#0B00C6"/>
<stop offset="0.99995" stop-color="#1700E0"/>
</linearGradient>
<linearGradient id="paint15_linear_12138_162" x1="8.12943" y1="56.8495" x2="17.553" y2="63.653" gradientUnits="userSpaceOnUse">
<stop stop-color="#000285"/>
<stop offset="0.0001" stop-color="#000285"/>
<stop offset="0.13755" stop-color="#00028C"/>
<stop offset="0.42" stop-color="#0301A9"/>
<stop offset="0.565" stop-color="#0500BF"/>
<stop offset="0.65" stop-color="#0A00C5"/>
<stop offset="0.6925" stop-color="#0D00C8"/>
<stop offset="0.735" stop-color="#0F00CB"/>
<stop offset="0.761274" stop-color="#1000CE"/>
<stop offset="0.787549" stop-color="#1100D0"/>
<stop offset="0.813823" stop-color="#1200D3"/>
<stop offset="0.840098" stop-color="#1300D6"/>
<stop offset="0.905" stop-color="#1700E0"/>
<stop offset="0.95245" stop-color="#1B00DB"/>
<stop offset="0.9998" stop-color="#2300F9"/>
<stop offset="0.9999" stop-color="#1E00D6"/>
<stop offset="0.9999" stop-color="#0B00C6"/>
<stop offset="0.99995" stop-color="#1700E0"/>
</linearGradient>
</defs>
</svg>
