<svg width="22" height="22" viewBox="0 0 22 22" fill="none" xmlns="http://www.w3.org/2000/svg">
<path d="M13.431 18.8047V11.6415C13.431 11.404 13.3367 11.1763 13.1688 11.0084C13.0009 10.8404 12.7731 10.7461 12.5356 10.7461H8.954C8.71652 10.7461 8.48877 10.8404 8.32085 11.0084C8.15293 11.1763 8.05859 11.404 8.05859 11.6415V18.8047" stroke="#0606A6" stroke-width="1.79081" stroke-linecap="round" stroke-linejoin="round"/>
<path d="M2.6875 8.95665C2.68744 8.69614 2.74421 8.43876 2.85386 8.20246C2.9635 7.96616 3.12338 7.75662 3.32234 7.58847L9.59019 2.21603C9.91341 1.94285 10.3229 1.79297 10.7462 1.79297C11.1694 1.79297 11.5789 1.94285 11.9021 2.21603L18.17 7.58847C18.3689 7.75662 18.5288 7.96616 18.6385 8.20246C18.7481 8.43876 18.8049 8.69614 18.8048 8.95665V17.0153C18.8048 17.4903 18.6161 17.9458 18.2803 18.2816C17.9445 18.6174 17.489 18.8061 17.014 18.8061H4.47831C4.00336 18.8061 3.54786 18.6174 3.21202 18.2816C2.87617 17.9458 2.6875 17.4903 2.6875 17.0153V8.95665Z" stroke="#0606A6" stroke-width="1.79081" stroke-linecap="round" stroke-linejoin="round"/>
</svg>
