<svg width="66" height="65" viewBox="0 0 66 65" fill="none" xmlns="http://www.w3.org/2000/svg">
<path d="M28.1057 39.6994C32.8251 39.6994 36.6656 35.471 36.6656 30.275C36.6656 25.079 32.8251 20.8506 28.1057 20.8506C23.3864 20.8506 19.5459 25.079 19.5459 30.275C19.5459 35.471 23.3864 39.6994 28.1057 39.6994ZM28.1057 23.0445C31.7273 23.0445 34.673 26.2876 34.673 30.275C34.673 34.2624 31.7273 37.5054 28.1057 37.5054C24.4841 37.5054 21.5386 34.2624 21.5386 30.275C21.5386 26.2876 24.4841 23.0445 28.1057 23.0445Z" fill="url(#paint0_linear_11877_4248)"/>
<path d="M64.1073 62.0245H58.9598L64.1685 42.7576C64.4099 41.8998 64.2715 40.996 63.7887 40.273C63.3058 39.5499 62.5621 39.1353 61.7476 39.1353H41.7274C40.6329 39.1353 39.6639 39.9043 39.3194 41.0492L38.5661 43.5515L32.9357 40.312C32.4496 40.032 31.8477 40.2375 31.5901 40.7762C31.3358 41.3114 31.5225 41.9743 32.0119 42.2578L37.9287 45.6604L34.2782 57.8068H23.4487C23.2331 57.8068 23.0334 57.8848 22.8693 58.016C22.2319 57.137 21.4367 56.4954 20.5257 56.3678L14.5701 55.5703L17.5672 51.8169C17.931 51.3632 17.8892 50.6685 17.4771 50.268C17.065 49.8675 16.4341 49.9136 16.0703 50.3672L12.3682 55.0033C12.3071 55.0812 12.2588 55.1698 12.2202 55.2585L10.9035 55.0812C10.3594 55.0068 9.86049 55.4357 9.79288 56.0382C9.72528 56.6407 10.1148 57.1865 10.6621 57.261L20.2714 58.5476C21.0279 58.6539 22.0774 60.3197 22.4251 62.0245H5.75921V60.0717C5.75921 57.417 6.58331 54.8083 8.08024 52.7277L11.7856 47.5708C13.2374 45.5505 15.288 44.0867 17.5543 43.4487L22.9305 41.9388C23.4649 41.7899 23.7868 41.1909 23.6484 40.6061C23.5132 40.0178 22.9691 39.6633 22.4379 39.8157L17.0618 41.3256C14.3738 42.0806 11.9433 43.8173 10.2242 46.2133L6.5189 51.3703C4.74511 53.8372 3.76976 56.9278 3.76976 60.0752V62.0281H0.994763C0.444279 62.0281 0 62.5208 0 63.1233C0 63.7259 0.447498 64.2186 0.994763 64.2186H57.611C57.611 64.2186 57.611 64.2186 57.6142 64.2186C57.6142 64.2186 57.6142 64.2186 57.6175 64.2186H64.0977C64.6482 64.2186 65.0924 63.7259 65.0924 63.1233C65.0924 62.5208 64.6449 62.0281 64.0977 62.0281L64.1073 62.0245ZM23.9187 60.0043H35.0025C35.4307 60.0043 35.8137 59.6995 35.9489 59.2529L41.2155 41.7403C41.2896 41.4957 41.4956 41.3292 41.7306 41.3292H61.7509C61.9891 41.3292 62.1275 41.4816 62.1887 41.5737C62.2499 41.6659 62.34 41.8537 62.266 42.1196L56.8835 62.0245H24.4596C24.3598 61.3724 24.1763 60.6777 23.922 60.0043H23.9187Z" fill="url(#paint1_linear_11877_4248)"/>
<path d="M58.59 5.76297C57.6146 4.45157 56.0823 4.12199 55.0972 5.00807C55.094 5.00807 55.0907 5.01517 55.0875 5.01871L53.0691 6.88659L42.6968 16.1727C42.5487 16.3074 42.436 16.4846 42.3781 16.6831L41.3737 20.0715C41.2674 20.426 41.3351 20.8158 41.5507 21.1064C41.7407 21.3616 42.024 21.5105 42.3234 21.5105C42.362 21.5105 42.4006 21.5105 42.4392 21.5034L45.6552 21.0922C45.8419 21.0674 46.0222 20.9859 46.1671 20.8548L56.5426 11.5686C56.5426 11.5686 56.5458 11.5651 56.5491 11.5616C56.5491 11.5616 56.5555 11.5615 56.5555 11.5545L58.5804 9.67949C59.0858 9.22227 59.3497 8.50275 59.3111 7.71236C59.2757 7.03185 59.0214 6.3407 58.5932 5.76652L58.59 5.76297ZM45.1305 18.948L43.7463 19.1252L44.1776 17.672L53.5552 9.27902L54.5048 10.5585L45.1305 18.9515V18.948ZM57.3023 7.99238C57.3023 7.99238 57.3023 7.99238 57.2991 7.99238L56.0436 9.15493L55.094 7.87547L56.3559 6.70937C56.446 6.68102 56.768 6.76608 57.0513 7.14887C57.3346 7.53165 57.3474 7.89668 57.3055 7.98883L57.3023 7.99238Z" fill="url(#paint2_linear_11877_4248)"/>
<path d="M59.2823 0H41.2129C37.6041 0 34.665 3.23247 34.665 7.20922V18.9268C34.665 22.6448 37.2372 25.7178 40.524 26.097V28.9148C40.524 29.3294 40.7364 29.7087 41.0712 29.893C41.2129 29.971 41.3674 30.01 41.5187 30.01C41.728 30.01 41.9372 29.9355 42.111 29.7937L46.605 26.136H59.2759C62.8846 26.136 65.8238 22.9036 65.8238 18.9268V7.20922C65.8238 3.23601 62.8878 0 59.2759 0H59.2823ZM63.8375 18.9268C63.8375 21.6914 61.7933 23.942 59.2823 23.942H46.2831C46.0706 23.942 45.8614 24.0165 45.6908 24.1583L42.5199 26.7386V25.0408C42.5199 24.4347 42.0724 23.9456 41.5251 23.9456H41.2161C38.7051 23.9456 36.6609 21.695 36.6609 18.9304V7.21277C36.6609 4.44818 38.7051 2.19756 41.2161 2.19756H59.2855C61.7965 2.19756 63.8407 4.44818 63.8407 7.21277V18.9304L63.8375 18.9268Z" fill="url(#paint3_linear_11877_4248)"/>
<defs>
<linearGradient id="paint0_linear_11877_4248" x1="19.5459" y1="30.2136" x2="36.6657" y2="30.3194" gradientUnits="userSpaceOnUse">
<stop stop-color="#000285"/>
<stop offset="0.0001" stop-color="#000285"/>
<stop offset="0.13755" stop-color="#00028C"/>
<stop offset="0.42" stop-color="#0301A9"/>
<stop offset="0.565" stop-color="#0500BF"/>
<stop offset="0.65" stop-color="#0A00C5"/>
<stop offset="0.6925" stop-color="#0D00C8"/>
<stop offset="0.735" stop-color="#0F00CB"/>
<stop offset="0.761274" stop-color="#1000CE"/>
<stop offset="0.787549" stop-color="#1100D0"/>
<stop offset="0.813823" stop-color="#1200D3"/>
<stop offset="0.840098" stop-color="#1300D6"/>
<stop offset="0.905" stop-color="#1700E0"/>
<stop offset="0.95245" stop-color="#1B00DB"/>
<stop offset="0.9998" stop-color="#2300F9"/>
<stop offset="0.9999" stop-color="#1E00D6"/>
<stop offset="0.9999" stop-color="#0B00C6"/>
<stop offset="0.99995" stop-color="#1700E0"/>
</linearGradient>
<linearGradient id="paint1_linear_11877_4248" x1="4.2844e-09" y1="51.5952" x2="65.0751" y2="52.7437" gradientUnits="userSpaceOnUse">
<stop stop-color="#000285"/>
<stop offset="0.0001" stop-color="#000285"/>
<stop offset="0.13755" stop-color="#00028C"/>
<stop offset="0.42" stop-color="#0301A9"/>
<stop offset="0.565" stop-color="#0500BF"/>
<stop offset="0.65" stop-color="#0A00C5"/>
<stop offset="0.6925" stop-color="#0D00C8"/>
<stop offset="0.735" stop-color="#0F00CB"/>
<stop offset="0.761274" stop-color="#1000CE"/>
<stop offset="0.787549" stop-color="#1100D0"/>
<stop offset="0.813823" stop-color="#1200D3"/>
<stop offset="0.840098" stop-color="#1300D6"/>
<stop offset="0.905" stop-color="#1700E0"/>
<stop offset="0.95245" stop-color="#1B00DB"/>
<stop offset="0.9998" stop-color="#2300F9"/>
<stop offset="0.9999" stop-color="#1E00D6"/>
<stop offset="0.9999" stop-color="#0B00C6"/>
<stop offset="0.99995" stop-color="#1700E0"/>
</linearGradient>
<linearGradient id="paint2_linear_11877_4248" x1="41.3242" y1="12.9558" x2="59.3147" y2="13.0853" gradientUnits="userSpaceOnUse">
<stop stop-color="#000285"/>
<stop offset="0.0001" stop-color="#000285"/>
<stop offset="0.13755" stop-color="#00028C"/>
<stop offset="0.42" stop-color="#0301A9"/>
<stop offset="0.565" stop-color="#0500BF"/>
<stop offset="0.65" stop-color="#0A00C5"/>
<stop offset="0.6925" stop-color="#0D00C8"/>
<stop offset="0.735" stop-color="#0F00CB"/>
<stop offset="0.761274" stop-color="#1000CE"/>
<stop offset="0.787549" stop-color="#1100D0"/>
<stop offset="0.813823" stop-color="#1200D3"/>
<stop offset="0.840098" stop-color="#1300D6"/>
<stop offset="0.905" stop-color="#1700E0"/>
<stop offset="0.95245" stop-color="#1B00DB"/>
<stop offset="0.9998" stop-color="#2300F9"/>
<stop offset="0.9999" stop-color="#1E00D6"/>
<stop offset="0.9999" stop-color="#0B00C6"/>
<stop offset="0.99995" stop-color="#1700E0"/>
</linearGradient>
<linearGradient id="paint3_linear_11877_4248" x1="34.665" y1="14.9073" x2="65.8236" y2="15.1273" gradientUnits="userSpaceOnUse">
<stop stop-color="#000285"/>
<stop offset="0.0001" stop-color="#000285"/>
<stop offset="0.13755" stop-color="#00028C"/>
<stop offset="0.42" stop-color="#0301A9"/>
<stop offset="0.565" stop-color="#0500BF"/>
<stop offset="0.65" stop-color="#0A00C5"/>
<stop offset="0.6925" stop-color="#0D00C8"/>
<stop offset="0.735" stop-color="#0F00CB"/>
<stop offset="0.761274" stop-color="#1000CE"/>
<stop offset="0.787549" stop-color="#1100D0"/>
<stop offset="0.813823" stop-color="#1200D3"/>
<stop offset="0.840098" stop-color="#1300D6"/>
<stop offset="0.905" stop-color="#1700E0"/>
<stop offset="0.95245" stop-color="#1B00DB"/>
<stop offset="0.9998" stop-color="#2300F9"/>
<stop offset="0.9999" stop-color="#1E00D6"/>
<stop offset="0.9999" stop-color="#0B00C6"/>
<stop offset="0.99995" stop-color="#1700E0"/>
</linearGradient>
</defs>
</svg>
