<svg width="108" height="100" viewBox="0 0 108 100" fill="none" xmlns="http://www.w3.org/2000/svg">
<path d="M89.7539 0.541016C96.4538 0.541016 101.905 5.99257 101.905 12.6924V47.8867C101.905 49.1536 100.886 50.1758 99.6221 50.1758H87.3789C87.3853 50.3957 87.3896 50.6155 87.3896 50.8369C87.3896 57.8626 84.8257 64.292 80.5918 69.2617L106.734 95.4043L106.681 95.457C107.216 96.3363 107.106 97.4979 106.347 98.2578C105.898 98.7068 105.311 98.9287 104.728 98.9287C104.144 98.9286 103.558 98.7067 103.109 98.2578L77.3496 72.498C72.3846 76.7317 65.9508 79.2958 58.9258 79.2959C57.1467 79.2959 55.4022 79.129 53.708 78.8135V93.0635C53.708 94.3281 52.6801 95.3465 51.4199 95.3467H12.6934C5.99334 95.3467 0.541016 89.8953 0.541016 83.1953V12.6924C0.541252 5.99256 5.99349 0.541016 12.6934 0.541016H89.7539ZM27.4375 33.0576C22.9906 33.0578 19.3742 36.6742 19.374 41.1211C19.374 43.0543 20.0677 44.9263 21.332 46.3896L21.333 46.3906C21.9175 47.0681 22.0532 48.0235 21.6826 48.8359C21.3113 49.65 20.4973 50.1699 19.6055 50.1699H5.12402V83.1904C5.12423 87.3707 8.52378 90.7695 12.7041 90.7695H49.1416V77.5439C38.2628 73.5431 30.4777 63.0827 30.4775 50.832C30.4775 45.717 31.8429 40.915 34.2158 36.7627C32.7461 34.4827 30.1923 33.0576 27.4375 33.0576ZM58.9414 26.9453C45.7694 26.9455 35.0557 37.6653 35.0557 50.832C35.0559 64.004 45.7694 74.7176 58.9414 74.7178C72.1135 74.7178 82.8279 64.0041 82.8281 50.832C82.8281 37.6598 72.1136 26.9453 58.9414 26.9453ZM53.8008 14.8379C54.6233 14.6026 55.4785 14.4863 56.3672 14.4863C61.5445 14.4863 65.8254 18.376 66.4541 23.3857C76.8647 26.2409 84.8996 34.8715 86.9033 45.6035H97.3389V12.459C97.2149 8.3865 93.8677 5.11348 89.7656 5.11328H53.8008V14.8379ZM12.3066 5.11328C8.31283 5.32313 5.13003 8.63635 5.12988 12.6816V45.5928H15.627C15.0896 44.1744 14.8077 42.6596 14.8076 41.1162C14.8076 34.1495 20.4766 28.4805 27.4434 28.4805C31.1315 28.4805 34.5851 30.1068 36.9502 32.8037C42.1689 26.4458 50.0861 22.3731 58.9414 22.373C59.8156 22.373 60.6799 22.416 61.5312 22.4961C60.6815 20.4795 58.6913 19.0588 56.373 19.0586C55.1435 19.0586 54.1163 19.4567 53.0078 20.4082C52.3277 20.9945 51.3724 21.12 50.5635 20.751C49.7495 20.3797 49.2286 19.5665 49.2285 18.6748V5.11328H12.3066Z" fill="url(#paint0_linear_11999_283)" stroke="#2C6EF2" stroke-width="1.08313"/>
<path d="M68.6641 31.436C69.9166 31.436 70.9471 32.4472 70.9473 33.7085C70.9473 33.899 70.9373 35.4126 70.3965 37.1587L70.2803 37.5112C69.2974 40.3391 67.3839 42.184 64.7188 42.7349C62.2968 43.2385 60.3108 42.904 58.7549 42.2534V45.604H78.1455C79.1301 45.604 79.9615 46.224 80.2861 47.0903L80.4453 47.0112V47.8882C80.4451 49.1505 79.4186 50.1763 78.1562 50.1763H58.6953V60.3354C58.6953 61.2268 58.1747 62.039 57.3613 62.4106L57.3623 62.4116C56.5536 62.7838 55.5989 62.6472 54.9229 62.0708L54.9219 62.0698C54.0131 61.2924 53.1065 61.0773 52.3047 61.1558C51.4871 61.2358 50.7389 61.6259 50.1885 62.1206L50.1875 62.1216C49.669 62.5871 49.2277 63.2386 49.0625 63.9712C48.9011 64.6869 48.9944 65.5127 49.5918 66.3813H49.5928C50.305 67.4212 50.042 68.8456 49.001 69.5601C48.6064 69.8326 48.1557 69.9614 47.709 69.9614C46.9815 69.9614 46.267 69.6124 45.8252 68.9712V68.9702C43.5543 65.669 44.1033 61.4481 47.1289 58.7251C48.8477 57.1773 51.4461 56.1971 54.1182 56.7231V50.1821H40.3174C39.298 50.1821 38.4061 49.5109 38.1211 48.5347C37.8366 47.5599 38.2262 46.5105 39.0898 45.9663C39.655 45.6069 40.3238 45.0199 40.6777 44.1304C41.0254 43.2565 41.1029 42.008 40.3379 40.2495C39.8312 39.0859 40.368 37.7459 41.5205 37.2407C42.6792 36.733 44.025 37.2702 44.5303 38.4224L44.5312 38.4233C45.6075 40.8875 45.8082 43.2545 45.0762 45.4214L45.0752 45.4204C45.0546 45.4821 45.0328 45.5432 45.0107 45.604H54.1885V37.5786C54.1886 36.5585 54.8661 35.6598 55.8506 35.3813C56.8252 35.1059 57.8644 35.5028 58.4043 36.3589L58.501 36.4917C58.9089 37.0242 60.6092 38.9223 63.7959 38.2573H63.7969C64.9894 38.0101 65.6486 36.9954 66.0117 35.8726C66.3648 34.7807 66.3805 33.7455 66.3809 33.7202C66.3809 32.4643 67.4005 31.436 68.6641 31.436Z" fill="url(#paint1_linear_11999_283)" stroke="#2C6EF2" stroke-width="1.08313"/>
<defs>
<linearGradient id="paint0_linear_11999_283" x1="1.08301" y1="49.4181" x2="106.473" y2="50.1944" gradientUnits="userSpaceOnUse">
<stop stop-color="#000285"/>
<stop offset="0.0001" stop-color="#000285"/>
<stop offset="0.13755" stop-color="#00028C"/>
<stop offset="0.42" stop-color="#0301A9"/>
<stop offset="0.565" stop-color="#0500BF"/>
<stop offset="0.65" stop-color="#0A00C5"/>
<stop offset="0.6925" stop-color="#0D00C8"/>
<stop offset="0.735" stop-color="#0F00CB"/>
<stop offset="0.761274" stop-color="#1000CE"/>
<stop offset="0.787549" stop-color="#1100D0"/>
<stop offset="0.813823" stop-color="#1200D3"/>
<stop offset="0.840098" stop-color="#1300D6"/>
<stop offset="0.905" stop-color="#1700E0"/>
<stop offset="0.95245" stop-color="#1B00DB"/>
<stop offset="0.9998" stop-color="#2300F9"/>
<stop offset="0.9999" stop-color="#1E00D6"/>
<stop offset="0.9999" stop-color="#0B00C6"/>
<stop offset="0.99995" stop-color="#1700E0"/>
</linearGradient>
<linearGradient id="paint1_linear_11999_283" x1="38.5703" y1="50.5772" x2="79.9032" y2="50.8875" gradientUnits="userSpaceOnUse">
<stop stop-color="#000285"/>
<stop offset="0.0001" stop-color="#000285"/>
<stop offset="0.13755" stop-color="#00028C"/>
<stop offset="0.42" stop-color="#0301A9"/>
<stop offset="0.565" stop-color="#0500BF"/>
<stop offset="0.65" stop-color="#0A00C5"/>
<stop offset="0.6925" stop-color="#0D00C8"/>
<stop offset="0.735" stop-color="#0F00CB"/>
<stop offset="0.761274" stop-color="#1000CE"/>
<stop offset="0.787549" stop-color="#1100D0"/>
<stop offset="0.813823" stop-color="#1200D3"/>
<stop offset="0.840098" stop-color="#1300D6"/>
<stop offset="0.905" stop-color="#1700E0"/>
<stop offset="0.95245" stop-color="#1B00DB"/>
<stop offset="0.9998" stop-color="#2300F9"/>
<stop offset="0.9999" stop-color="#1E00D6"/>
<stop offset="0.9999" stop-color="#0B00C6"/>
<stop offset="0.99995" stop-color="#1700E0"/>
</linearGradient>
</defs>
</svg>
