<svg width="97" height="45" viewBox="0 0 97 45" fill="none" xmlns="http://www.w3.org/2000/svg">
<path d="M94.5951 26.3446H90.6712L89.1715 16.7708C88.8271 14.6943 87.6892 12.9236 86.0455 11.9173L83.1376 10.1368C83.543 9.20454 83.7696 8.15393 83.7696 7.04908C83.7696 3.16235 80.975 0.000671387 77.5394 0.000671387C74.1039 0.000671387 71.3092 3.16235 71.3092 7.04908C71.3092 8.25258 71.5751 9.38209 72.046 10.3735L69.5219 11.9173C67.8782 12.9236 66.7359 14.6943 66.3914 16.7856L64.896 26.3446H60.7978L59.298 16.7708C58.9536 14.6943 57.8157 12.9236 56.1721 11.9173L53.2641 10.1368C53.6696 9.20454 53.8961 8.15393 53.8961 7.04908C53.8961 3.16235 51.1015 0.000671387 47.6659 0.000671387C44.2304 0.000671387 41.4357 3.16235 41.4357 7.04908C41.4357 8.25258 41.7019 9.38209 42.1727 10.3735L39.6484 11.9173C38.0047 12.9236 36.8624 14.6943 36.518 16.7856L35.0225 26.3446H30.9243L29.4245 16.7708C29.0801 14.6943 27.9422 12.9236 26.2986 11.9173L23.3906 10.1368C23.7961 9.20454 24.0226 8.15393 24.0226 7.04908C24.0226 3.16235 21.228 0.000671387 17.7924 0.000671387C14.3569 0.000671387 11.5622 3.16235 11.5622 7.04908C11.5622 8.25258 11.8284 9.38209 12.2992 10.3735L9.77489 11.9173C8.13124 12.9236 6.98889 14.6943 6.64447 16.7856L5.14897 26.3446H1.42567C0.640902 26.3446 0 27.0647 0 27.9575C0 28.8503 0.636542 29.5704 1.42567 29.5704H5.4106C5.98174 31.0501 7.1546 32.2092 8.6413 32.5594L15.3205 34.123C15.5472 34.1772 15.7739 34.2019 16.0006 34.2019C16.7331 34.2019 17.448 33.9257 18.0366 33.4078C18.6252 33.9257 19.3402 34.2019 20.0726 34.2019C20.2993 34.2019 20.5261 34.1772 20.7528 34.123L27.4322 32.5594C28.9189 32.2092 30.0959 31.0501 30.6626 29.5704H35.2798C35.851 31.0501 37.0236 32.2092 38.5103 32.5594L45.1897 34.123C45.4164 34.1772 45.6431 34.2019 45.8699 34.2019C46.6023 34.2019 47.3173 33.9257 47.9059 33.4078C48.4944 33.9257 49.2094 34.2019 49.9419 34.2019C50.1686 34.2019 50.3953 34.1772 50.622 34.123L57.3012 32.5594C58.7879 32.2092 59.9651 31.0501 60.5319 29.5704H65.1488C65.72 31.0501 66.8929 32.2092 68.3795 32.5594L75.0587 34.123C75.2854 34.1772 75.5122 34.2019 75.7389 34.2019C76.4713 34.2019 77.1863 33.9257 77.7749 33.4078C78.3634 33.9257 79.0784 34.2019 79.8109 34.2019C80.0376 34.2019 80.2643 34.1772 80.491 34.123L87.1704 32.5594C88.6571 32.2092 89.8341 31.0501 90.4009 29.5704H94.5864C95.3711 29.5704 96.012 28.8503 96.012 27.9575C96.012 27.0647 95.3755 26.3446 94.5864 26.3446H94.5951ZM77.5352 3.22154C79.4012 3.22154 80.9183 4.93801 80.9183 7.04908C80.9183 9.16014 79.4012 10.8766 77.5352 10.8766C75.6692 10.8766 74.1518 9.16014 74.1518 7.04908C74.1518 4.93801 75.6692 3.22154 77.5352 3.22154ZM47.6659 3.22154C49.5319 3.22154 51.0493 4.93801 51.0493 7.04908C51.0493 9.16014 49.5319 10.8766 47.6659 10.8766C45.7999 10.8766 44.2828 9.16014 44.2828 7.04908C44.2828 4.93801 45.7999 3.22154 47.6659 3.22154ZM17.7969 3.22154C19.6629 3.22154 21.18 4.93801 21.18 7.04908C21.18 9.16014 19.6629 10.8766 17.7969 10.8766C15.9309 10.8766 14.4136 9.16014 14.4136 7.04908C14.4136 4.93801 15.9309 3.22154 17.7969 3.22154ZM26.8653 29.4027L20.1861 30.9662C19.9899 31.0106 19.8504 30.9169 19.785 30.8528C19.7196 30.7936 19.6062 30.6555 19.6062 30.4286C19.6062 30.182 19.7545 29.965 19.9681 29.9009L25.4528 28.2732C26.1547 28.066 26.6037 27.2966 26.4991 26.4827L25.5792 19.3159C25.4659 18.438 24.7421 17.8263 23.966 17.9546C23.19 18.0828 22.6495 18.9016 22.7628 19.7796L23.4996 25.5258L19.2488 26.7885C18.8041 26.9217 18.3985 27.1535 18.0541 27.4593C17.7053 27.1535 17.3043 26.9217 16.8596 26.7885L12.6088 25.5258L13.3456 19.7796C13.4589 18.9016 12.9182 18.0828 12.1421 17.9546C11.3661 17.8263 10.6425 18.438 10.5291 19.3159L9.60906 26.4827C9.50442 27.2916 9.95801 28.066 10.6556 28.2732L16.1358 29.9009C16.3494 29.965 16.4977 30.182 16.4977 30.4286C16.4977 30.6555 16.3843 30.7887 16.3189 30.8528C16.2535 30.912 16.114 31.0106 15.9178 30.9662L9.23864 29.4027C8.34924 29.1955 7.76492 28.2091 7.93496 27.1831L9.46962 17.3627C9.65273 16.2431 10.2674 15.2911 11.1525 14.7485L14.2699 12.8397C15.277 13.6289 16.4976 14.0925 17.8099 14.0925C19.2181 14.0925 20.5218 13.5598 21.5681 12.6621C21.603 12.6868 21.638 12.7115 21.6729 12.7312L24.9644 14.7436C25.8495 15.2862 26.4643 16.2381 26.643 17.343L28.1819 27.1929C28.3476 28.1992 27.7634 29.1906 26.874 29.3978L26.8653 29.4027ZM56.7345 29.4027L50.0551 30.9662C49.8589 31.0106 49.7194 30.9169 49.654 30.8528C49.5886 30.7936 49.4754 30.6555 49.4754 30.4286C49.4754 30.182 49.6235 29.965 49.8371 29.9009L55.3218 28.2732C56.0237 28.066 56.4728 27.2966 56.3681 26.4827L55.4483 19.3159C55.3349 18.438 54.6113 17.8263 53.8353 17.9546C53.0592 18.0828 52.5185 18.9016 52.6318 19.7796L53.3686 25.5258L49.1178 26.7885C48.6731 26.9217 48.2677 27.1535 47.9233 27.4593C47.5745 27.1535 47.1733 26.9217 46.7286 26.7885L42.4778 25.5258L43.2146 19.7796C43.3279 18.9016 42.7874 18.0828 42.0114 17.9546C41.2353 17.8263 40.5115 18.438 40.3982 19.3159L39.4783 26.4827C39.3737 27.2916 39.827 28.066 40.5246 28.2732L46.0048 29.9009C46.2185 29.965 46.3667 30.182 46.3667 30.4286C46.3667 30.6555 46.2535 30.7887 46.1881 30.8528C46.1227 30.912 45.983 31.0106 45.7868 30.9662L39.1077 29.4027C38.2183 29.1955 37.6342 28.2091 37.8042 27.1831L39.3389 17.3627C39.522 16.2431 40.1366 15.2911 41.0217 14.7485L44.1389 12.8397C45.146 13.6289 46.3668 14.0925 47.6791 14.0925C49.0874 14.0925 50.391 13.5598 51.4374 12.6621C51.4722 12.6868 51.507 12.7115 51.5419 12.7312L54.8335 14.7436C55.7185 15.2862 56.3333 16.2381 56.512 17.343L58.0512 27.1929C58.2168 28.1992 57.6326 29.1906 56.7432 29.3978L56.7345 29.4027ZM86.6035 29.4027L79.9243 30.9662C79.7281 31.0106 79.5887 30.9169 79.5233 30.8528C79.4579 30.7936 79.3445 30.6555 79.3445 30.4286C79.3445 30.182 79.4927 29.965 79.7063 29.9009L85.1866 28.2732C85.8885 28.066 86.3375 27.2966 86.2329 26.4827L85.313 19.3159C85.1997 18.438 84.4761 17.8263 83.7 17.9546C82.924 18.0828 82.3832 18.9016 82.4966 19.7796L83.2334 25.5258L78.9826 26.7885C78.5378 26.9217 78.1325 27.1535 77.7881 27.4593C77.4393 27.1535 77.0381 26.9217 76.5934 26.7885L72.3426 25.5258L73.0793 19.7796C73.1927 18.9016 72.6522 18.0828 71.8761 17.9546C71.1001 17.8263 70.3763 18.438 70.2629 19.3159L69.3431 26.4827C69.2384 27.2916 69.6918 28.066 70.3894 28.2732L75.8696 29.9009C76.0832 29.965 76.2315 30.182 76.2315 30.4286C76.2315 30.6555 76.1183 30.7887 76.0529 30.8528C75.9875 30.912 75.8478 31.0106 75.6516 30.9662L68.9724 29.4027C68.083 29.1955 67.4989 28.2091 67.669 27.1831L69.2036 17.3627C69.3867 16.2431 70.0014 15.2911 70.8864 14.7485L74.0079 12.8397C75.0151 13.6289 76.2359 14.0925 77.5482 14.0925C78.9564 14.0925 80.26 13.5598 81.3064 12.6621C81.3412 12.6868 81.3762 12.7115 81.4111 12.7312L84.7027 14.7436C85.5877 15.2862 86.2025 16.2381 86.3813 17.343L87.9202 27.1929C88.0859 28.1992 87.5016 29.1906 86.6122 29.3978L86.6035 29.4027Z" fill="url(#paint0_linear_12138_201)"/>
<path d="M43.2236 34.6367C42.4607 34.4296 41.689 34.9574 41.5059 35.8205L40.2633 41.6062C40.1587 42.0847 40.2591 42.5927 40.5294 42.9823C40.7997 43.372 41.2138 43.5989 41.6498 43.5989H53.7308C54.1668 43.5989 54.5809 43.372 54.8512 42.9823C55.1216 42.5927 55.2176 42.0847 55.1173 41.6062L53.8748 35.8205C53.6873 34.9574 52.92 34.4247 52.157 34.6367C51.394 34.8488 50.9232 35.7169 51.1107 36.5801L51.9258 40.3731H43.4636L44.2787 36.5801C44.4662 35.7169 43.9953 34.8439 43.2324 34.6367H43.2236Z" fill="url(#paint1_linear_12138_201)"/>
<path d="M73.3858 34.6367C72.6228 34.4296 71.8512 34.9574 71.668 35.8205L70.4254 41.6062C70.3208 42.0847 70.421 42.5927 70.6913 42.9823C70.9616 43.372 71.376 43.5989 71.8119 43.5989H83.893C84.329 43.5989 84.7431 43.372 85.0134 42.9823C85.2837 42.5927 85.3796 42.0847 85.2793 41.6062L84.0367 35.8205C83.8492 34.9574 83.0819 34.4247 82.3189 34.6367C81.556 34.8488 81.0852 35.7169 81.2726 36.5801L82.088 40.3731H73.6255L74.4408 36.5801C74.6283 35.7169 74.1575 34.8439 73.3945 34.6367H73.3858Z" fill="url(#paint2_linear_12138_201)"/>
<path d="M13.1778 35.2526C12.4148 35.0405 11.6431 35.5732 11.46 36.4363L10.2174 42.222C10.1128 42.7005 10.213 43.2085 10.4833 43.5981C10.7536 43.9878 11.168 44.2147 11.6039 44.2147H23.685C24.121 44.2147 24.5351 43.9878 24.8054 43.5981C25.0757 43.2085 25.1715 42.7005 25.0713 42.222L23.8289 36.4363C23.6414 35.5732 22.8741 35.0405 22.1111 35.2526C21.3482 35.4647 20.8771 36.3327 21.0646 37.1959L21.88 40.9889H13.4175L14.2328 37.1959C14.4203 36.3327 13.9495 35.4597 13.1865 35.2526H13.1778Z" fill="url(#paint3_linear_12138_201)"/>
<defs>
<linearGradient id="paint0_linear_12138_201" x1="6.31953e-09" y1="16.9899" x2="95.9813" y2="18.8224" gradientUnits="userSpaceOnUse">
<stop stop-color="#000285"/>
<stop offset="0.0001" stop-color="#000285"/>
<stop offset="0.13755" stop-color="#00028C"/>
<stop offset="0.42" stop-color="#0301A9"/>
<stop offset="0.565" stop-color="#0500BF"/>
<stop offset="0.65" stop-color="#0A00C5"/>
<stop offset="0.6925" stop-color="#0D00C8"/>
<stop offset="0.735" stop-color="#0F00CB"/>
<stop offset="0.761274" stop-color="#1000CE"/>
<stop offset="0.787549" stop-color="#1100D0"/>
<stop offset="0.813823" stop-color="#1200D3"/>
<stop offset="0.840098" stop-color="#1300D6"/>
<stop offset="0.905" stop-color="#1700E0"/>
<stop offset="0.95245" stop-color="#1B00DB"/>
<stop offset="0.9998" stop-color="#2300F9"/>
<stop offset="0.9999" stop-color="#1E00D6"/>
<stop offset="0.9999" stop-color="#0B00C6"/>
<stop offset="0.99995" stop-color="#1700E0"/>
</linearGradient>
<linearGradient id="paint1_linear_12138_201" x1="40.2227" y1="39.0652" x2="55.1549" y2="39.2335" gradientUnits="userSpaceOnUse">
<stop stop-color="#000285"/>
<stop offset="0.0001" stop-color="#000285"/>
<stop offset="0.13755" stop-color="#00028C"/>
<stop offset="0.42" stop-color="#0301A9"/>
<stop offset="0.565" stop-color="#0500BF"/>
<stop offset="0.65" stop-color="#0A00C5"/>
<stop offset="0.6925" stop-color="#0D00C8"/>
<stop offset="0.735" stop-color="#0F00CB"/>
<stop offset="0.761274" stop-color="#1000CE"/>
<stop offset="0.787549" stop-color="#1100D0"/>
<stop offset="0.813823" stop-color="#1200D3"/>
<stop offset="0.840098" stop-color="#1300D6"/>
<stop offset="0.905" stop-color="#1700E0"/>
<stop offset="0.95245" stop-color="#1B00DB"/>
<stop offset="0.9998" stop-color="#2300F9"/>
<stop offset="0.9999" stop-color="#1E00D6"/>
<stop offset="0.9999" stop-color="#0B00C6"/>
<stop offset="0.99995" stop-color="#1700E0"/>
</linearGradient>
<linearGradient id="paint2_linear_12138_201" x1="70.3848" y1="39.0652" x2="85.3169" y2="39.2335" gradientUnits="userSpaceOnUse">
<stop stop-color="#000285"/>
<stop offset="0.0001" stop-color="#000285"/>
<stop offset="0.13755" stop-color="#00028C"/>
<stop offset="0.42" stop-color="#0301A9"/>
<stop offset="0.565" stop-color="#0500BF"/>
<stop offset="0.65" stop-color="#0A00C5"/>
<stop offset="0.6925" stop-color="#0D00C8"/>
<stop offset="0.735" stop-color="#0F00CB"/>
<stop offset="0.761274" stop-color="#1000CE"/>
<stop offset="0.787549" stop-color="#1100D0"/>
<stop offset="0.813823" stop-color="#1200D3"/>
<stop offset="0.840098" stop-color="#1300D6"/>
<stop offset="0.905" stop-color="#1700E0"/>
<stop offset="0.95245" stop-color="#1B00DB"/>
<stop offset="0.9998" stop-color="#2300F9"/>
<stop offset="0.9999" stop-color="#1E00D6"/>
<stop offset="0.9999" stop-color="#0B00C6"/>
<stop offset="0.99995" stop-color="#1700E0"/>
</linearGradient>
<linearGradient id="paint3_linear_12138_201" x1="10.1768" y1="39.681" x2="25.1089" y2="39.8493" gradientUnits="userSpaceOnUse">
<stop stop-color="#000285"/>
<stop offset="0.0001" stop-color="#000285"/>
<stop offset="0.13755" stop-color="#00028C"/>
<stop offset="0.42" stop-color="#0301A9"/>
<stop offset="0.565" stop-color="#0500BF"/>
<stop offset="0.65" stop-color="#0A00C5"/>
<stop offset="0.6925" stop-color="#0D00C8"/>
<stop offset="0.735" stop-color="#0F00CB"/>
<stop offset="0.761274" stop-color="#1000CE"/>
<stop offset="0.787549" stop-color="#1100D0"/>
<stop offset="0.813823" stop-color="#1200D3"/>
<stop offset="0.840098" stop-color="#1300D6"/>
<stop offset="0.905" stop-color="#1700E0"/>
<stop offset="0.95245" stop-color="#1B00DB"/>
<stop offset="0.9998" stop-color="#2300F9"/>
<stop offset="0.9999" stop-color="#1E00D6"/>
<stop offset="0.9999" stop-color="#0B00C6"/>
<stop offset="0.99995" stop-color="#1700E0"/>
</linearGradient>
</defs>
</svg>
