<svg width="58" height="77" viewBox="0 0 58 77" fill="none" xmlns="http://www.w3.org/2000/svg">
<path d="M28.5361 10.249C18.6377 10.249 10.584 18.3027 10.584 28.201C10.584 38.0994 18.6377 46.1531 28.5361 46.1531C38.4345 46.1531 46.4882 38.0994 46.4882 28.201C46.4882 18.3027 38.4345 10.249 28.5361 10.249ZM28.5361 43.8709C19.8939 43.8709 12.8662 36.8394 12.8662 28.201C12.8662 19.5626 19.8977 12.5311 28.5361 12.5311C37.1745 12.5311 44.206 19.5626 44.206 28.201C44.206 36.8394 37.1745 43.8709 28.5361 43.8709Z" fill="url(#paint0_linear_12138_215)"/>
<path d="M53.8373 30.2987C56.2138 29.0426 57.451 26.5151 56.9833 23.867C56.5155 21.2189 54.4936 19.2687 51.8267 18.899C50.6573 18.7368 49.6463 18.0578 49.0578 17.0356C48.4656 16.0133 48.3826 14.7986 48.8277 13.7046C49.8424 11.2112 49.1635 8.48389 47.1038 6.7562C45.0442 5.02851 42.2414 4.83234 39.9629 6.26579C38.9633 6.89198 37.7524 7.02398 36.6434 6.61658C35.5344 6.21295 34.6894 5.33784 34.3272 4.21371C33.5011 1.65236 31.2302 6.10352e-05 28.5406 6.10352e-05C25.851 6.10352e-05 23.5801 1.65614 22.754 4.21371C22.3919 5.33784 21.5469 6.21295 20.4378 6.61658C19.3288 7.02021 18.1179 6.89198 17.1183 6.26579C14.8399 4.83611 12.0371 5.02851 9.97742 6.7562C7.91778 8.48389 7.23879 11.2112 8.25353 13.7046C8.69865 14.7986 8.61567 16.0133 8.02343 17.0356C7.43118 18.0578 6.42396 18.7368 5.25457 18.899C2.59137 19.2687 0.565705 21.2189 0.0979476 23.867C-0.36981 26.5151 0.863699 29.0388 3.24398 30.2987C4.28889 30.8495 5.0056 31.834 5.2093 32.9958C5.413 34.1577 5.07729 35.3271 4.28512 36.2022C2.48199 38.1977 2.18399 40.993 3.53068 43.3205C4.87737 45.6517 7.44248 46.7909 10.0755 46.2251C11.2298 45.9761 12.4105 46.2704 13.3158 47.0286C13.4139 47.1116 13.5045 47.1984 13.595 47.2889L3.64009 68.602C3.4477 69.0094 3.51559 69.4961 3.81359 69.8356C4.1116 70.1751 4.57933 70.3108 5.00936 70.175L13.6554 67.493L17.1485 75.8749C17.322 76.2899 17.7218 76.5652 18.1707 76.5765C18.182 76.5765 18.1896 76.5765 18.2009 76.5765C18.6385 76.5765 19.0383 76.3276 19.227 75.9315L30.2796 52.9887C30.7663 53.2377 31.1963 53.5885 31.5433 54.0374C33.1956 56.1612 35.8965 56.9382 38.4239 56.0178C40.5175 55.2558 41.9509 53.5244 42.3244 51.4232L49.718 67.2289L42.5431 65.0071C41.9811 64.8336 41.3775 65.1165 41.1512 65.6597L38.19 72.7704L31.0982 59.3864C30.8039 58.8281 30.1136 58.6169 29.5553 58.9112C28.9971 59.2054 28.7858 59.8957 29.08 60.454L37.2998 75.973C37.4997 76.3465 37.8882 76.5803 38.3069 76.5803C38.3258 76.5803 38.3409 76.5803 38.3597 76.5803C38.8011 76.5614 39.1896 76.2861 39.3594 75.8787L42.8525 67.4967L51.4985 70.1788C51.9285 70.3108 52.4 70.1788 52.698 69.8393C52.996 69.4998 53.0639 69.017 52.8715 68.6058L43.1165 47.7453C43.3014 47.485 43.5202 47.2436 43.7729 47.0323C44.6782 46.2741 45.859 45.9799 47.0133 46.2289C49.6425 46.7947 52.2114 45.6517 53.5581 43.3243C54.9048 40.993 54.6068 38.2015 52.8037 36.206C52.0115 35.3308 51.6757 34.1614 51.8794 32.9996C52.0831 31.8378 52.7999 30.8532 53.8448 30.3025L53.8373 30.2987ZM18.2688 72.6572L15.3529 65.6635C15.1265 65.1202 14.523 64.8373 13.9609 65.0109L6.78612 67.2365L14.6588 50.3821C14.6814 52.9435 16.2205 55.1389 18.6536 56.0254C19.359 56.2819 20.0757 56.4064 20.7849 56.4064C22.6069 56.4064 24.3459 55.5765 25.5341 54.0449C26.1301 53.2792 26.9751 52.7888 27.9107 52.6341L18.265 72.6572H18.2688ZM51.1024 37.7338C52.4717 39.2464 52.2416 41.0232 51.5739 42.1813C50.9062 43.3393 49.4803 44.4258 47.4848 43.9957C45.6364 43.5996 43.7465 44.0674 42.298 45.282C41.6907 45.7913 41.2078 46.4062 40.8456 47.0776C40.8343 47.0965 40.8268 47.1191 40.8155 47.1379C40.3364 48.0584 40.0912 49.092 40.1289 50.1633C40.2044 52.2003 38.8879 53.415 37.6317 53.8752C36.3756 54.3316 34.5875 54.2486 33.3351 52.6379C32.1733 51.1479 30.4268 50.2916 28.5369 50.2916C26.647 50.2916 24.8966 51.1479 23.7385 52.6379C22.4862 54.2486 20.6981 54.3316 19.442 53.8752C18.1858 53.4188 16.8693 52.2041 16.9447 50.1633C17.0164 48.2734 16.2242 46.4967 14.7757 45.2783C13.6667 44.3465 12.2936 43.8523 10.8828 43.8523C10.4527 43.8523 10.0227 43.8977 9.59264 43.992C7.59713 44.4182 6.17501 43.3356 5.50355 42.1775C4.83586 41.0194 4.60953 39.2427 5.97508 37.73C7.24255 36.3267 7.782 34.4558 7.45381 32.596C7.12563 30.7363 5.97884 29.1595 4.30773 28.2768C2.5046 27.3224 2.10853 25.5759 2.34241 24.2594C2.57629 22.9428 3.542 21.434 5.56392 21.1548C7.43495 20.8945 9.05324 19.8082 9.9963 18.171C10.9431 16.5338 11.0751 14.5911 10.3622 12.8408C9.59266 10.9509 10.415 9.359 11.441 8.49893C12.4671 7.63886 14.1759 7.10695 15.9036 8.19335C17.503 9.19677 19.442 9.40424 21.2149 8.75919C22.9917 8.11414 24.3421 6.71088 24.923 4.91152C25.5492 2.96882 27.2014 2.27851 28.5406 2.27851C29.8797 2.27851 31.532 2.96882 32.1582 4.91152C32.7391 6.71088 34.0896 8.11414 35.8663 8.75919C37.643 9.40424 39.5782 9.20054 41.1776 8.19335C42.9053 7.11072 44.6141 7.64263 45.6402 8.49893C46.6662 9.359 47.4848 10.9509 46.719 12.8408C46.0061 14.5911 46.1419 16.5338 47.0849 18.171C48.0318 19.8082 49.6463 20.8945 51.5173 21.1548C53.5392 21.434 54.5049 22.9428 54.7388 24.2594C54.9727 25.5759 54.5766 27.3224 52.7735 28.2768C51.1024 29.1595 49.9556 30.7363 49.6274 32.596C49.2992 34.4558 49.8387 36.3305 51.1062 37.73L51.1024 37.7338Z" fill="url(#paint1_linear_12138_215)"/>
<path d="M24.13 25.5872C25.0392 25.5872 25.7747 24.8516 25.7747 23.9425C25.7747 23.0334 25.0392 22.2979 24.13 22.2979C23.2209 22.2979 22.4854 23.0334 22.4854 23.9425C22.4854 24.8516 23.2209 25.5872 24.13 25.5872Z" fill="url(#paint2_linear_12138_215)"/>
<path d="M32.6828 34.1383C33.5912 34.1383 34.3275 33.402 34.3275 32.4936C34.3275 31.5853 33.5912 30.8489 32.6828 30.8489C31.7745 30.8489 31.0381 31.5853 31.0381 32.4936C31.0381 33.402 31.7745 34.1383 32.6828 34.1383Z" fill="url(#paint3_linear_12138_215)"/>
<path d="M34.101 21.0235L21.3622 33.7624C20.917 34.2075 20.917 34.9318 21.3622 35.3769C21.5847 35.5995 21.8752 35.7127 22.1694 35.7127C22.4637 35.7127 22.7541 35.5995 22.9766 35.3769L35.7155 22.6381C36.1606 22.1929 36.1606 21.4687 35.7155 21.0235C35.2704 20.5784 34.5461 20.5784 34.101 21.0235Z" fill="url(#paint4_linear_12138_215)"/>
<defs>
<linearGradient id="paint0_linear_12138_215" x1="10.584" y1="28.0842" x2="46.4881" y2="28.3284" gradientUnits="userSpaceOnUse">
<stop stop-color="#000285"/>
<stop offset="0.0001" stop-color="#000285"/>
<stop offset="0.13755" stop-color="#00028C"/>
<stop offset="0.42" stop-color="#0301A9"/>
<stop offset="0.565" stop-color="#0500BF"/>
<stop offset="0.65" stop-color="#0A00C5"/>
<stop offset="0.6925" stop-color="#0D00C8"/>
<stop offset="0.735" stop-color="#0F00CB"/>
<stop offset="0.761274" stop-color="#1000CE"/>
<stop offset="0.787549" stop-color="#1100D0"/>
<stop offset="0.813823" stop-color="#1200D3"/>
<stop offset="0.840098" stop-color="#1300D6"/>
<stop offset="0.905" stop-color="#1700E0"/>
<stop offset="0.95245" stop-color="#1B00DB"/>
<stop offset="0.9998" stop-color="#2300F9"/>
<stop offset="0.9999" stop-color="#1E00D6"/>
<stop offset="0.9999" stop-color="#0B00C6"/>
<stop offset="0.99995" stop-color="#1700E0"/>
</linearGradient>
<linearGradient id="paint1_linear_12138_215" x1="3.75709e-09" y1="38.0408" x2="57.0821" y2="38.3302" gradientUnits="userSpaceOnUse">
<stop stop-color="#000285"/>
<stop offset="0.0001" stop-color="#000285"/>
<stop offset="0.13755" stop-color="#00028C"/>
<stop offset="0.42" stop-color="#0301A9"/>
<stop offset="0.565" stop-color="#0500BF"/>
<stop offset="0.65" stop-color="#0A00C5"/>
<stop offset="0.6925" stop-color="#0D00C8"/>
<stop offset="0.735" stop-color="#0F00CB"/>
<stop offset="0.761274" stop-color="#1000CE"/>
<stop offset="0.787549" stop-color="#1100D0"/>
<stop offset="0.813823" stop-color="#1200D3"/>
<stop offset="0.840098" stop-color="#1300D6"/>
<stop offset="0.905" stop-color="#1700E0"/>
<stop offset="0.95245" stop-color="#1B00DB"/>
<stop offset="0.9998" stop-color="#2300F9"/>
<stop offset="0.9999" stop-color="#1E00D6"/>
<stop offset="0.9999" stop-color="#0B00C6"/>
<stop offset="0.99995" stop-color="#1700E0"/>
</linearGradient>
<linearGradient id="paint2_linear_12138_215" x1="22.4854" y1="23.9318" x2="25.7747" y2="23.9542" gradientUnits="userSpaceOnUse">
<stop stop-color="#000285"/>
<stop offset="0.0001" stop-color="#000285"/>
<stop offset="0.13755" stop-color="#00028C"/>
<stop offset="0.42" stop-color="#0301A9"/>
<stop offset="0.565" stop-color="#0500BF"/>
<stop offset="0.65" stop-color="#0A00C5"/>
<stop offset="0.6925" stop-color="#0D00C8"/>
<stop offset="0.735" stop-color="#0F00CB"/>
<stop offset="0.761274" stop-color="#1000CE"/>
<stop offset="0.787549" stop-color="#1100D0"/>
<stop offset="0.813823" stop-color="#1200D3"/>
<stop offset="0.840098" stop-color="#1300D6"/>
<stop offset="0.905" stop-color="#1700E0"/>
<stop offset="0.95245" stop-color="#1B00DB"/>
<stop offset="0.9998" stop-color="#2300F9"/>
<stop offset="0.9999" stop-color="#1E00D6"/>
<stop offset="0.9999" stop-color="#0B00C6"/>
<stop offset="0.99995" stop-color="#1700E0"/>
</linearGradient>
<linearGradient id="paint3_linear_12138_215" x1="31.0381" y1="32.4829" x2="34.3275" y2="32.5053" gradientUnits="userSpaceOnUse">
<stop stop-color="#000285"/>
<stop offset="0.0001" stop-color="#000285"/>
<stop offset="0.13755" stop-color="#00028C"/>
<stop offset="0.42" stop-color="#0301A9"/>
<stop offset="0.565" stop-color="#0500BF"/>
<stop offset="0.65" stop-color="#0A00C5"/>
<stop offset="0.6925" stop-color="#0D00C8"/>
<stop offset="0.735" stop-color="#0F00CB"/>
<stop offset="0.761274" stop-color="#1000CE"/>
<stop offset="0.787549" stop-color="#1100D0"/>
<stop offset="0.813823" stop-color="#1200D3"/>
<stop offset="0.840098" stop-color="#1300D6"/>
<stop offset="0.905" stop-color="#1700E0"/>
<stop offset="0.95245" stop-color="#1B00DB"/>
<stop offset="0.9998" stop-color="#2300F9"/>
<stop offset="0.9999" stop-color="#1E00D6"/>
<stop offset="0.9999" stop-color="#0B00C6"/>
<stop offset="0.99995" stop-color="#1700E0"/>
</linearGradient>
<linearGradient id="paint4_linear_12138_215" x1="21.0283" y1="28.1523" x2="36.0493" y2="28.2544" gradientUnits="userSpaceOnUse">
<stop stop-color="#000285"/>
<stop offset="0.0001" stop-color="#000285"/>
<stop offset="0.13755" stop-color="#00028C"/>
<stop offset="0.42" stop-color="#0301A9"/>
<stop offset="0.565" stop-color="#0500BF"/>
<stop offset="0.65" stop-color="#0A00C5"/>
<stop offset="0.6925" stop-color="#0D00C8"/>
<stop offset="0.735" stop-color="#0F00CB"/>
<stop offset="0.761274" stop-color="#1000CE"/>
<stop offset="0.787549" stop-color="#1100D0"/>
<stop offset="0.813823" stop-color="#1200D3"/>
<stop offset="0.840098" stop-color="#1300D6"/>
<stop offset="0.905" stop-color="#1700E0"/>
<stop offset="0.95245" stop-color="#1B00DB"/>
<stop offset="0.9998" stop-color="#2300F9"/>
<stop offset="0.9999" stop-color="#1E00D6"/>
<stop offset="0.9999" stop-color="#0B00C6"/>
<stop offset="0.99995" stop-color="#1700E0"/>
</linearGradient>
</defs>
</svg>
