<svg width="93" height="92" viewBox="0 0 93 92" fill="none" xmlns="http://www.w3.org/2000/svg">
<path d="M47.3174 0.524414C48.0214 0.524511 48.7485 0.842953 49.5342 1.62305C50.2274 2.31129 50.9397 3.33482 51.6875 4.73535L52.0107 5.3584C53.333 7.99761 54.7078 11.7043 55.9746 16.0879C57.3017 20.6749 58.3857 25.5533 59.1279 30.1104L59.1523 30.2627L59.2559 30.3779C59.2721 30.3959 59.2888 30.4123 59.3008 30.4248C59.3141 30.4387 59.3224 30.4477 59.3311 30.457C59.348 30.4752 59.3512 30.4798 59.3496 30.4775L59.3564 30.4883L65.54 39.0059V39.0068C65.6408 39.1498 65.7006 39.3086 65.7139 39.4629L65.7148 39.4668L67.7266 60.916V60.917C67.749 61.1719 67.6696 61.4187 67.5107 61.6045L67.4375 61.6807C67.268 61.8368 67.0483 61.9199 66.8232 61.9199C66.7763 61.9199 66.7216 61.9148 66.6553 61.9043L57.0703 60.1973H57.0693C56.6109 60.1166 56.2892 59.6941 56.3242 59.2334L56.3359 59.1406L56.3369 59.1377C56.423 58.6442 56.8916 58.3139 57.3877 58.4004L65.1309 59.7793L65.8086 59.9004L65.7451 59.2148L63.9463 40.0342L63.9336 39.8916L63.8486 39.7754L60.8584 35.6523L59.7207 34.084L59.9131 36.0117C60.1179 38.0651 60.2256 39.9637 60.2256 41.6338C60.2256 47.2424 59.3605 51.2436 57.6533 53.9531V53.9541C57.3857 54.3797 56.8252 54.5049 56.4062 54.2363L56.4033 54.2354C55.983 53.9684 55.8542 53.4012 56.123 52.9736C57.6726 50.5195 58.4141 46.6748 58.4141 41.6338C58.414 35.2962 56.8106 25.6109 54.3379 16.9482C53.1362 12.7432 51.8322 9.13436 50.5596 6.51953C48.8839 3.07327 47.8091 2.49309 47.4893 2.38184L47.3203 2.32324L47.1504 2.37988C46.8196 2.49077 45.7478 3.07747 44.0742 6.51953C42.8016 9.13434 41.4986 12.7433 40.2969 16.9482C37.8241 25.6109 36.2197 35.2962 36.2197 41.6338C36.2197 46.8073 37.0046 50.7217 38.6367 53.167L38.6377 53.168C38.9201 53.5897 38.8054 54.1581 38.3896 54.4365C38.2325 54.5401 38.054 54.5898 37.8838 54.5898C37.5933 54.5898 37.308 54.4484 37.1318 54.1846L37.1309 54.1836C35.322 51.4789 34.4043 47.4014 34.4043 41.6299C34.4043 40.0732 34.4991 38.3147 34.6777 36.4238L34.8584 34.5166L33.7324 36.0664L31.0439 39.7666L30.96 39.8828L30.9463 40.0254L29.1484 59.2061L29.084 59.8916L29.7617 59.7705L37.5068 58.3916H37.5078C37.9993 58.3028 38.47 58.6323 38.5566 59.1289V59.1318C38.6398 59.5939 38.3548 60.039 37.9121 60.167L37.8213 60.1885L28.2373 61.8955C28.1708 61.9061 28.1164 61.9111 28.0693 61.9111H27.9199C27.7504 61.882 27.5896 61.805 27.459 61.6846C27.25 61.4909 27.1425 61.2071 27.1699 60.9277V60.9248L29.1826 39.4717L29.1836 39.4668C29.1975 39.3021 29.2551 39.1479 29.3496 39.0205L29.3525 39.0166L35.3477 30.7568L35.4219 30.6553L35.4414 30.5312C36.1372 26.1483 37.1557 21.448 38.4062 16.9785L38.6592 16.0879C39.8469 11.978 41.1297 8.4632 42.375 5.86523L42.624 5.3584C43.4901 3.63361 44.3084 2.40955 45.1006 1.62305C45.8863 0.843047 46.6133 0.524414 47.3174 0.524414Z" fill="url(#paint0_linear_11999_284)" stroke="url(#paint1_linear_11999_284)" stroke-width="1.04787"/>
<path d="M53.0566 30.4277C53.5246 30.3946 53.9355 30.7208 54.0176 31.1787L54.0293 31.2725C54.0642 31.7276 54.0951 32.1832 54.1123 32.623V32.625C54.1338 33.1118 53.7703 33.5234 53.2949 33.5713H53.2012C52.7503 33.5711 52.3681 33.2363 52.3037 32.7881L52.2949 32.6973C52.2771 32.2726 52.2506 31.8402 52.2197 31.4102C52.1834 30.9021 52.5584 30.4679 53.0576 30.4287L53.0566 30.4277Z" fill="url(#paint2_linear_11999_284)" stroke="url(#paint3_linear_11999_284)" stroke-width="1.04787"/>
<path d="M47.7393 10.9546C48.1692 10.7635 48.6675 10.9328 48.8955 11.3345L48.9375 11.4185C49.0696 11.7228 51.926 18.2466 53.3574 26.1284V26.1304C53.4492 26.6278 53.1235 27.0976 52.6396 27.1909C52.5702 27.2012 52.5121 27.2075 52.4648 27.2075C52.0895 27.2074 51.7506 26.9728 51.6172 26.6167L51.5732 26.4565C50.8741 22.6143 49.8075 19.0599 48.9141 16.4604C48.4671 15.16 48.0623 14.0964 47.7676 13.353C47.6203 12.9814 47.5002 12.6892 47.416 12.4878C47.374 12.3874 47.3414 12.3093 47.3184 12.2554C47.297 12.2052 47.288 12.1854 47.2861 12.1812L47.2783 12.1636L47.2451 12.0757C47.1006 11.6319 47.3111 11.1451 47.7393 10.9546Z" fill="url(#paint4_linear_11999_284)" stroke="url(#paint5_linear_11999_284)" stroke-width="1.04787"/>
<path d="M48.0957 60.6338C48.5935 60.6338 49.001 61.04 49.001 61.5459V62.3115C49.001 62.8174 48.5935 63.2246 48.0957 63.2246C47.5979 63.2246 47.1904 62.8172 47.1904 62.3115V61.5459C47.1904 61.0402 47.5979 60.6338 48.0957 60.6338Z" fill="url(#paint6_linear_11999_284)" stroke="url(#paint7_linear_11999_284)" stroke-width="1.04787"/>
<path d="M48.0957 43.7671C48.5934 43.7671 49.0007 44.1726 49.001 44.6782V56.564C49.001 57.0698 48.5935 57.4761 48.0957 57.4761C47.5979 57.476 47.1904 57.0697 47.1904 56.564V44.6782C47.1907 44.1728 47.598 43.7671 48.0957 43.7671Z" fill="url(#paint8_linear_11999_284)" stroke="url(#paint9_linear_11999_284)" stroke-width="1.04787"/>
<path d="M41.7979 54.6919C42.2956 54.6919 42.7031 55.0981 42.7031 55.604V68.0825L42.8486 68.2339C43.8709 69.3028 44.6862 70.5766 45.2129 72.0122C45.3873 72.4898 45.1436 73.0153 44.6777 73.187C44.2075 73.3602 43.6856 73.1188 43.5137 72.6479H43.5127C42.1917 69.0502 38.7336 66.6344 34.9131 66.6343C32.1883 66.6343 29.6203 67.8394 27.8721 69.9438C27.6997 70.1482 27.4502 70.2674 27.1914 70.2729L27.1855 70.2739C26.9648 70.2809 26.7424 70.1993 26.5742 70.0493L26.5029 69.978C25.7199 69.116 24.6056 68.6216 23.4443 68.6216C21.1619 68.6218 19.3115 70.484 19.3115 72.771C19.3115 72.8739 19.3227 73.0077 19.3252 73.0571L19.3516 73.5825L19.877 73.5542C21.8947 73.4446 23.36 73.9255 23.418 73.9438L23.4639 73.9585C23.9017 74.1369 24.1352 74.6304 23.9824 75.0933C23.8539 75.4777 23.5012 75.7183 23.1201 75.7183C23.0236 75.7183 22.9286 75.7041 22.834 75.6733C22.6861 75.6256 20.7274 75.0431 18.3975 75.605L18.3662 75.6128L18.3369 75.6235C15.6286 76.6336 13.7902 79.2472 13.79 82.189C13.79 82.6947 13.3824 83.1009 12.8848 83.1011C12.3869 83.1011 11.9785 82.6947 11.9785 82.189C11.9785 81.4881 12.0659 80.8023 12.2236 80.1392L12.3184 79.7388L11.9521 79.5513C11.0276 79.0774 10.003 78.8286 8.95508 78.8286C5.30438 78.8286 2.33519 81.8138 2.33496 85.4751C2.33496 86.8649 2.7587 88.2009 3.55859 89.3296H3.55957C3.85304 89.7423 3.75768 90.3108 3.34766 90.605L3.34668 90.606C3.18844 90.7203 3.00652 90.7749 2.82422 90.7749C2.54292 90.7749 2.266 90.6428 2.08594 90.3931C1.06515 88.9484 0.524414 87.2521 0.524414 85.4751C0.524647 80.798 4.31269 76.9997 8.95898 76.9995C10.2214 76.9995 11.4562 77.2852 12.584 77.8247L13.0137 78.0308L13.2588 77.6226C14.1829 76.0865 15.5621 74.8392 17.2402 74.1001L17.6025 73.9409L17.5479 73.5483C17.5121 73.2929 17.4951 73.0355 17.4951 72.771C17.4951 69.4724 20.1663 66.7927 23.4443 66.7925C24.6359 66.7925 25.7973 67.1565 26.7734 67.8169L27.1201 68.0513L27.4248 67.7661C29.4511 65.8695 32.1088 64.8062 34.9131 64.8062C36.7642 64.8062 38.5468 65.2886 40.1182 66.1431L40.8926 66.564V55.604C40.8926 55.0983 41.3001 54.692 41.7979 54.6919Z" fill="url(#paint10_linear_11999_284)" stroke="url(#paint11_linear_11999_284)" stroke-width="1.04787"/>
<path d="M53.0527 54.6919C53.5505 54.6919 53.959 55.0981 53.959 55.604V66.8306L54.751 66.3569C56.4133 65.3643 58.3387 64.8062 60.3594 64.8062C63.1639 64.8062 65.8253 65.8691 67.8467 67.7651L68.1514 68.0513L68.498 67.8169C69.4741 67.1565 70.6356 66.7925 71.8271 66.7925C75.1053 66.7925 77.7764 69.4723 77.7764 72.771C77.7764 73.0306 77.7567 73.2902 77.7236 73.5562L77.6748 73.9438L78.0322 74.1011C79.4654 74.7317 80.6788 75.7366 81.583 76.9741L81.7812 77.2456L82.1104 77.1782C82.6623 77.0657 83.224 77.0044 83.791 77.0044C88.4416 77.0045 92.2266 80.8067 92.2266 85.48C92.2266 87.2575 91.6898 88.9567 90.667 90.395C90.4869 90.6465 90.208 90.7798 89.9258 90.7798C89.7472 90.7797 89.5617 90.7236 89.4043 90.6099L89.4023 90.6089L89.3301 90.5513C88.9859 90.2478 88.9161 89.7207 89.1904 89.3345L89.1914 89.3335C89.9912 88.2048 90.415 86.8698 90.415 85.48C90.415 81.8184 87.4458 78.8325 83.7949 78.8325C83.6354 78.8325 83.4827 78.8425 83.3457 78.8511L82.6758 78.8931L82.8799 79.5337C83.1488 80.3775 83.293 81.2712 83.293 82.1938C83.2929 82.6994 82.8854 83.1058 82.3877 83.106C81.89 83.106 81.4815 82.6996 81.4814 82.1938C81.4814 79.0385 79.3648 76.2578 76.333 75.4331V75.4321L76.3213 75.4302L75.873 75.3315C74.8388 75.1336 73.9007 75.1513 73.1943 75.2261C72.3893 75.3113 71.8661 75.4738 71.8662 75.4741L71.8467 75.479L71.8271 75.4858C71.7397 75.515 71.6473 75.5288 71.5557 75.5288C71.2199 75.5288 70.9046 75.3398 70.7471 75.0356L70.6895 74.8989C70.5325 74.4169 70.791 73.9063 71.2617 73.7476L71.2607 73.7466C71.3159 73.7281 73.0639 73.1578 75.3799 73.4106L75.8994 73.4673L75.957 72.9478C75.9651 72.8744 75.9648 72.8046 75.9648 72.771C75.9648 70.484 74.1144 68.6218 71.832 68.6216C70.7432 68.6216 69.6956 69.0561 68.9238 69.8208L68.7734 69.978C68.5986 70.1704 68.3485 70.2785 68.084 70.2729C67.8195 70.2672 67.5722 70.1477 67.4062 69.9478V69.9468C65.6585 67.8456 63.0899 66.6343 60.3633 66.6343C56.8072 66.6344 53.5884 68.692 52.0762 71.8989L51.9355 72.2124C51.7376 72.6742 51.2028 72.8878 50.7422 72.6899C50.2832 72.4862 50.0698 71.9513 50.2676 71.4868H50.2686C50.7155 70.4336 51.3216 69.4789 52.043 68.6362L52.2021 68.4507L52.1621 68.2095C52.1514 68.1451 52.1475 68.1013 52.1475 68.062V55.604C52.1475 55.0984 52.5551 54.6921 53.0527 54.6919Z" fill="url(#paint12_linear_11999_284)" stroke="url(#paint13_linear_11999_284)" stroke-width="1.04787"/>
<path d="M38.0898 74.8521C42.2957 73.8465 46.5296 75.9809 48.3398 79.7456L47.6211 79.9507L48.8242 80.5552L48.833 80.5591L50.0713 81.1821L49.7861 80.4731C50.9252 80.3309 52.0963 80.6939 52.9639 81.522C53.3247 81.8677 53.3404 82.4451 52.9941 82.814C52.6721 83.1529 52.1496 83.1883 51.7842 82.9048L51.7139 82.8433C51.1002 82.2557 50.2027 82.1005 49.4336 82.436L49.2812 82.5103C48.4787 82.9354 48.0502 83.8273 48.1953 84.7134L48.1963 84.7153C48.2801 85.2152 47.9446 85.6842 47.4502 85.7681L47.4229 85.7739C47.3976 85.7795 47.362 85.7827 47.3008 85.7827C46.8718 85.7827 46.4851 85.4689 46.4092 85.0171C46.2352 83.9749 46.4867 82.9409 47.0596 82.1167L47.2021 81.9126L47.1328 81.6724C46.0652 77.9762 42.28 75.7185 38.5039 76.6216C35.9785 77.2251 34.0079 79.1206 33.2617 81.5591L33.1201 82.021L33.5693 82.1997C36.0836 83.1979 37.7953 85.7366 37.625 88.5884V88.5894C37.5971 89.0776 37.1959 89.4478 36.7227 89.4478H36.6553C36.1955 89.4175 35.834 89.0408 35.8154 88.5786L35.8164 88.4839C35.9696 85.9415 34.032 83.7446 31.4961 83.5903C28.9594 83.4362 26.7753 85.3855 26.6221 87.9272V87.9302C26.5941 88.4329 26.1631 88.8143 25.6641 88.7837H25.6611C25.166 88.7561 24.7816 88.3262 24.8125 87.8188V87.8179C25.0115 84.4885 27.7061 81.8945 30.9512 81.7603L31.3369 81.7437L31.4365 81.3706C32.2869 78.1496 34.82 75.6349 38.0898 74.8521Z" fill="url(#paint14_linear_11999_284)" stroke="url(#paint15_linear_11999_284)" stroke-width="1.04787"/>
<defs>
<linearGradient id="paint0_linear_11999_284" x1="26.6416" y1="31.021" x2="68.2556" y2="31.2096" gradientUnits="userSpaceOnUse">
<stop stop-color="#000285"/>
<stop offset="0.0001" stop-color="#000285"/>
<stop offset="0.13755" stop-color="#00028C"/>
<stop offset="0.42" stop-color="#0301A9"/>
<stop offset="0.565" stop-color="#0500BF"/>
<stop offset="0.65" stop-color="#0A00C5"/>
<stop offset="0.6925" stop-color="#0D00C8"/>
<stop offset="0.735" stop-color="#0F00CB"/>
<stop offset="0.761274" stop-color="#1000CE"/>
<stop offset="0.787549" stop-color="#1100D0"/>
<stop offset="0.813823" stop-color="#1200D3"/>
<stop offset="0.840098" stop-color="#1300D6"/>
<stop offset="0.905" stop-color="#1700E0"/>
<stop offset="0.95245" stop-color="#1B00DB"/>
<stop offset="0.9998" stop-color="#2300F9"/>
<stop offset="0.9999" stop-color="#1E00D6"/>
<stop offset="0.9999" stop-color="#0B00C6"/>
<stop offset="0.99995" stop-color="#1700E0"/>
</linearGradient>
<linearGradient id="paint1_linear_11999_284" x1="26.6416" y1="31.021" x2="68.2556" y2="31.2096" gradientUnits="userSpaceOnUse">
<stop stop-color="#000285"/>
<stop offset="0.0001" stop-color="#000285"/>
<stop offset="0.13755" stop-color="#00028C"/>
<stop offset="0.42" stop-color="#0301A9"/>
<stop offset="0.565" stop-color="#0500BF"/>
<stop offset="0.65" stop-color="#0A00C5"/>
<stop offset="0.6925" stop-color="#0D00C8"/>
<stop offset="0.735" stop-color="#0F00CB"/>
<stop offset="0.761274" stop-color="#1000CE"/>
<stop offset="0.787549" stop-color="#1100D0"/>
<stop offset="0.813823" stop-color="#1200D3"/>
<stop offset="0.840098" stop-color="#1300D6"/>
<stop offset="0.905" stop-color="#1700E0"/>
<stop offset="0.95245" stop-color="#1B00DB"/>
<stop offset="0.9998" stop-color="#2300F9"/>
<stop offset="0.9999" stop-color="#1E00D6"/>
<stop offset="0.9999" stop-color="#0B00C6"/>
<stop offset="0.99995" stop-color="#1700E0"/>
</linearGradient>
<linearGradient id="paint2_linear_11999_284" x1="51.6934" y1="31.9875" x2="54.637" y2="32.0015" gradientUnits="userSpaceOnUse">
<stop stop-color="#000285"/>
<stop offset="0.0001" stop-color="#000285"/>
<stop offset="0.13755" stop-color="#00028C"/>
<stop offset="0.42" stop-color="#0301A9"/>
<stop offset="0.565" stop-color="#0500BF"/>
<stop offset="0.65" stop-color="#0A00C5"/>
<stop offset="0.6925" stop-color="#0D00C8"/>
<stop offset="0.735" stop-color="#0F00CB"/>
<stop offset="0.761274" stop-color="#1000CE"/>
<stop offset="0.787549" stop-color="#1100D0"/>
<stop offset="0.813823" stop-color="#1200D3"/>
<stop offset="0.840098" stop-color="#1300D6"/>
<stop offset="0.905" stop-color="#1700E0"/>
<stop offset="0.95245" stop-color="#1B00DB"/>
<stop offset="0.9998" stop-color="#2300F9"/>
<stop offset="0.9999" stop-color="#1E00D6"/>
<stop offset="0.9999" stop-color="#0B00C6"/>
<stop offset="0.99995" stop-color="#1700E0"/>
</linearGradient>
<linearGradient id="paint3_linear_11999_284" x1="51.6934" y1="31.9875" x2="54.637" y2="32.0015" gradientUnits="userSpaceOnUse">
<stop stop-color="#000285"/>
<stop offset="0.0001" stop-color="#000285"/>
<stop offset="0.13755" stop-color="#00028C"/>
<stop offset="0.42" stop-color="#0301A9"/>
<stop offset="0.565" stop-color="#0500BF"/>
<stop offset="0.65" stop-color="#0A00C5"/>
<stop offset="0.6925" stop-color="#0D00C8"/>
<stop offset="0.735" stop-color="#0F00CB"/>
<stop offset="0.761274" stop-color="#1000CE"/>
<stop offset="0.787549" stop-color="#1100D0"/>
<stop offset="0.813823" stop-color="#1200D3"/>
<stop offset="0.840098" stop-color="#1300D6"/>
<stop offset="0.905" stop-color="#1700E0"/>
<stop offset="0.95245" stop-color="#1B00DB"/>
<stop offset="0.9998" stop-color="#2300F9"/>
<stop offset="0.9999" stop-color="#1E00D6"/>
<stop offset="0.9999" stop-color="#0B00C6"/>
<stop offset="0.99995" stop-color="#1700E0"/>
</linearGradient>
<linearGradient id="paint4_linear_11999_284" x1="46.6758" y1="18.985" x2="53.8973" y2="19.0054" gradientUnits="userSpaceOnUse">
<stop stop-color="#000285"/>
<stop offset="0.0001" stop-color="#000285"/>
<stop offset="0.13755" stop-color="#00028C"/>
<stop offset="0.42" stop-color="#0301A9"/>
<stop offset="0.565" stop-color="#0500BF"/>
<stop offset="0.65" stop-color="#0A00C5"/>
<stop offset="0.6925" stop-color="#0D00C8"/>
<stop offset="0.735" stop-color="#0F00CB"/>
<stop offset="0.761274" stop-color="#1000CE"/>
<stop offset="0.787549" stop-color="#1100D0"/>
<stop offset="0.813823" stop-color="#1200D3"/>
<stop offset="0.840098" stop-color="#1300D6"/>
<stop offset="0.905" stop-color="#1700E0"/>
<stop offset="0.95245" stop-color="#1B00DB"/>
<stop offset="0.9998" stop-color="#2300F9"/>
<stop offset="0.9999" stop-color="#1E00D6"/>
<stop offset="0.9999" stop-color="#0B00C6"/>
<stop offset="0.99995" stop-color="#1700E0"/>
</linearGradient>
<linearGradient id="paint5_linear_11999_284" x1="46.6758" y1="18.985" x2="53.8973" y2="19.0054" gradientUnits="userSpaceOnUse">
<stop stop-color="#000285"/>
<stop offset="0.0001" stop-color="#000285"/>
<stop offset="0.13755" stop-color="#00028C"/>
<stop offset="0.42" stop-color="#0301A9"/>
<stop offset="0.565" stop-color="#0500BF"/>
<stop offset="0.65" stop-color="#0A00C5"/>
<stop offset="0.6925" stop-color="#0D00C8"/>
<stop offset="0.735" stop-color="#0F00CB"/>
<stop offset="0.761274" stop-color="#1000CE"/>
<stop offset="0.787549" stop-color="#1100D0"/>
<stop offset="0.813823" stop-color="#1200D3"/>
<stop offset="0.840098" stop-color="#1300D6"/>
<stop offset="0.905" stop-color="#1700E0"/>
<stop offset="0.95245" stop-color="#1B00DB"/>
<stop offset="0.9998" stop-color="#2300F9"/>
<stop offset="0.9999" stop-color="#1E00D6"/>
<stop offset="0.9999" stop-color="#0B00C6"/>
<stop offset="0.99995" stop-color="#1700E0"/>
</linearGradient>
<linearGradient id="paint6_linear_11999_284" x1="46.666" y1="61.9169" x2="49.5254" y2="61.9322" gradientUnits="userSpaceOnUse">
<stop stop-color="#000285"/>
<stop offset="0.0001" stop-color="#000285"/>
<stop offset="0.13755" stop-color="#00028C"/>
<stop offset="0.42" stop-color="#0301A9"/>
<stop offset="0.565" stop-color="#0500BF"/>
<stop offset="0.65" stop-color="#0A00C5"/>
<stop offset="0.6925" stop-color="#0D00C8"/>
<stop offset="0.735" stop-color="#0F00CB"/>
<stop offset="0.761274" stop-color="#1000CE"/>
<stop offset="0.787549" stop-color="#1100D0"/>
<stop offset="0.813823" stop-color="#1200D3"/>
<stop offset="0.840098" stop-color="#1300D6"/>
<stop offset="0.905" stop-color="#1700E0"/>
<stop offset="0.95245" stop-color="#1B00DB"/>
<stop offset="0.9998" stop-color="#2300F9"/>
<stop offset="0.9999" stop-color="#1E00D6"/>
<stop offset="0.9999" stop-color="#0B00C6"/>
<stop offset="0.99995" stop-color="#1700E0"/>
</linearGradient>
<linearGradient id="paint7_linear_11999_284" x1="46.666" y1="61.9169" x2="49.5254" y2="61.9322" gradientUnits="userSpaceOnUse">
<stop stop-color="#000285"/>
<stop offset="0.0001" stop-color="#000285"/>
<stop offset="0.13755" stop-color="#00028C"/>
<stop offset="0.42" stop-color="#0301A9"/>
<stop offset="0.565" stop-color="#0500BF"/>
<stop offset="0.65" stop-color="#0A00C5"/>
<stop offset="0.6925" stop-color="#0D00C8"/>
<stop offset="0.735" stop-color="#0F00CB"/>
<stop offset="0.761274" stop-color="#1000CE"/>
<stop offset="0.787549" stop-color="#1100D0"/>
<stop offset="0.813823" stop-color="#1200D3"/>
<stop offset="0.840098" stop-color="#1300D6"/>
<stop offset="0.905" stop-color="#1700E0"/>
<stop offset="0.95245" stop-color="#1B00DB"/>
<stop offset="0.9998" stop-color="#2300F9"/>
<stop offset="0.9999" stop-color="#1E00D6"/>
<stop offset="0.9999" stop-color="#0B00C6"/>
<stop offset="0.99995" stop-color="#1700E0"/>
</linearGradient>
<linearGradient id="paint8_linear_11999_284" x1="46.666" y1="50.5734" x2="49.5255" y2="50.5772" gradientUnits="userSpaceOnUse">
<stop stop-color="#000285"/>
<stop offset="0.0001" stop-color="#000285"/>
<stop offset="0.13755" stop-color="#00028C"/>
<stop offset="0.42" stop-color="#0301A9"/>
<stop offset="0.565" stop-color="#0500BF"/>
<stop offset="0.65" stop-color="#0A00C5"/>
<stop offset="0.6925" stop-color="#0D00C8"/>
<stop offset="0.735" stop-color="#0F00CB"/>
<stop offset="0.761274" stop-color="#1000CE"/>
<stop offset="0.787549" stop-color="#1100D0"/>
<stop offset="0.813823" stop-color="#1200D3"/>
<stop offset="0.840098" stop-color="#1300D6"/>
<stop offset="0.905" stop-color="#1700E0"/>
<stop offset="0.95245" stop-color="#1B00DB"/>
<stop offset="0.9998" stop-color="#2300F9"/>
<stop offset="0.9999" stop-color="#1E00D6"/>
<stop offset="0.9999" stop-color="#0B00C6"/>
<stop offset="0.99995" stop-color="#1700E0"/>
</linearGradient>
<linearGradient id="paint9_linear_11999_284" x1="46.666" y1="50.5734" x2="49.5255" y2="50.5772" gradientUnits="userSpaceOnUse">
<stop stop-color="#000285"/>
<stop offset="0.0001" stop-color="#000285"/>
<stop offset="0.13755" stop-color="#00028C"/>
<stop offset="0.42" stop-color="#0301A9"/>
<stop offset="0.565" stop-color="#0500BF"/>
<stop offset="0.65" stop-color="#0A00C5"/>
<stop offset="0.6925" stop-color="#0D00C8"/>
<stop offset="0.735" stop-color="#0F00CB"/>
<stop offset="0.761274" stop-color="#1000CE"/>
<stop offset="0.787549" stop-color="#1100D0"/>
<stop offset="0.813823" stop-color="#1200D3"/>
<stop offset="0.840098" stop-color="#1300D6"/>
<stop offset="0.905" stop-color="#1700E0"/>
<stop offset="0.95245" stop-color="#1B00DB"/>
<stop offset="0.9998" stop-color="#2300F9"/>
<stop offset="0.9999" stop-color="#1E00D6"/>
<stop offset="0.9999" stop-color="#0B00C6"/>
<stop offset="0.99995" stop-color="#1700E0"/>
</linearGradient>
<linearGradient id="paint10_linear_11999_284" x1="3.01414e-09" y1="72.6125" x2="45.7924" y2="72.9965" gradientUnits="userSpaceOnUse">
<stop stop-color="#000285"/>
<stop offset="0.0001" stop-color="#000285"/>
<stop offset="0.13755" stop-color="#00028C"/>
<stop offset="0.42" stop-color="#0301A9"/>
<stop offset="0.565" stop-color="#0500BF"/>
<stop offset="0.65" stop-color="#0A00C5"/>
<stop offset="0.6925" stop-color="#0D00C8"/>
<stop offset="0.735" stop-color="#0F00CB"/>
<stop offset="0.761274" stop-color="#1000CE"/>
<stop offset="0.787549" stop-color="#1100D0"/>
<stop offset="0.813823" stop-color="#1200D3"/>
<stop offset="0.840098" stop-color="#1300D6"/>
<stop offset="0.905" stop-color="#1700E0"/>
<stop offset="0.95245" stop-color="#1B00DB"/>
<stop offset="0.9998" stop-color="#2300F9"/>
<stop offset="0.9999" stop-color="#1E00D6"/>
<stop offset="0.9999" stop-color="#0B00C6"/>
<stop offset="0.99995" stop-color="#1700E0"/>
</linearGradient>
<linearGradient id="paint11_linear_11999_284" x1="3.01414e-09" y1="72.6125" x2="45.7924" y2="72.9965" gradientUnits="userSpaceOnUse">
<stop stop-color="#000285"/>
<stop offset="0.0001" stop-color="#000285"/>
<stop offset="0.13755" stop-color="#00028C"/>
<stop offset="0.42" stop-color="#0301A9"/>
<stop offset="0.565" stop-color="#0500BF"/>
<stop offset="0.65" stop-color="#0A00C5"/>
<stop offset="0.6925" stop-color="#0D00C8"/>
<stop offset="0.735" stop-color="#0F00CB"/>
<stop offset="0.761274" stop-color="#1000CE"/>
<stop offset="0.787549" stop-color="#1100D0"/>
<stop offset="0.813823" stop-color="#1200D3"/>
<stop offset="0.840098" stop-color="#1300D6"/>
<stop offset="0.905" stop-color="#1700E0"/>
<stop offset="0.95245" stop-color="#1B00DB"/>
<stop offset="0.9998" stop-color="#2300F9"/>
<stop offset="0.9999" stop-color="#1E00D6"/>
<stop offset="0.9999" stop-color="#0B00C6"/>
<stop offset="0.99995" stop-color="#1700E0"/>
</linearGradient>
<linearGradient id="paint12_linear_11999_284" x1="49.6699" y1="72.6147" x2="92.7497" y2="72.9545" gradientUnits="userSpaceOnUse">
<stop stop-color="#000285"/>
<stop offset="0.0001" stop-color="#000285"/>
<stop offset="0.13755" stop-color="#00028C"/>
<stop offset="0.42" stop-color="#0301A9"/>
<stop offset="0.565" stop-color="#0500BF"/>
<stop offset="0.65" stop-color="#0A00C5"/>
<stop offset="0.6925" stop-color="#0D00C8"/>
<stop offset="0.735" stop-color="#0F00CB"/>
<stop offset="0.761274" stop-color="#1000CE"/>
<stop offset="0.787549" stop-color="#1100D0"/>
<stop offset="0.813823" stop-color="#1200D3"/>
<stop offset="0.840098" stop-color="#1300D6"/>
<stop offset="0.905" stop-color="#1700E0"/>
<stop offset="0.95245" stop-color="#1B00DB"/>
<stop offset="0.9998" stop-color="#2300F9"/>
<stop offset="0.9999" stop-color="#1E00D6"/>
<stop offset="0.9999" stop-color="#0B00C6"/>
<stop offset="0.99995" stop-color="#1700E0"/>
</linearGradient>
<linearGradient id="paint13_linear_11999_284" x1="49.6699" y1="72.6147" x2="92.7497" y2="72.9545" gradientUnits="userSpaceOnUse">
<stop stop-color="#000285"/>
<stop offset="0.0001" stop-color="#000285"/>
<stop offset="0.13755" stop-color="#00028C"/>
<stop offset="0.42" stop-color="#0301A9"/>
<stop offset="0.565" stop-color="#0500BF"/>
<stop offset="0.65" stop-color="#0A00C5"/>
<stop offset="0.6925" stop-color="#0D00C8"/>
<stop offset="0.735" stop-color="#0F00CB"/>
<stop offset="0.761274" stop-color="#1000CE"/>
<stop offset="0.787549" stop-color="#1100D0"/>
<stop offset="0.813823" stop-color="#1200D3"/>
<stop offset="0.840098" stop-color="#1300D6"/>
<stop offset="0.905" stop-color="#1700E0"/>
<stop offset="0.95245" stop-color="#1B00DB"/>
<stop offset="0.9998" stop-color="#2300F9"/>
<stop offset="0.9999" stop-color="#1E00D6"/>
<stop offset="0.9999" stop-color="#0B00C6"/>
<stop offset="0.99995" stop-color="#1700E0"/>
</linearGradient>
<linearGradient id="paint14_linear_11999_284" x1="24.2871" y1="81.9741" x2="53.765" y2="82.346" gradientUnits="userSpaceOnUse">
<stop stop-color="#000285"/>
<stop offset="0.0001" stop-color="#000285"/>
<stop offset="0.13755" stop-color="#00028C"/>
<stop offset="0.42" stop-color="#0301A9"/>
<stop offset="0.565" stop-color="#0500BF"/>
<stop offset="0.65" stop-color="#0A00C5"/>
<stop offset="0.6925" stop-color="#0D00C8"/>
<stop offset="0.735" stop-color="#0F00CB"/>
<stop offset="0.761274" stop-color="#1000CE"/>
<stop offset="0.787549" stop-color="#1100D0"/>
<stop offset="0.813823" stop-color="#1200D3"/>
<stop offset="0.840098" stop-color="#1300D6"/>
<stop offset="0.905" stop-color="#1700E0"/>
<stop offset="0.95245" stop-color="#1B00DB"/>
<stop offset="0.9998" stop-color="#2300F9"/>
<stop offset="0.9999" stop-color="#1E00D6"/>
<stop offset="0.9999" stop-color="#0B00C6"/>
<stop offset="0.99995" stop-color="#1700E0"/>
</linearGradient>
<linearGradient id="paint15_linear_11999_284" x1="24.2871" y1="81.9741" x2="53.765" y2="82.346" gradientUnits="userSpaceOnUse">
<stop stop-color="#000285"/>
<stop offset="0.0001" stop-color="#000285"/>
<stop offset="0.13755" stop-color="#00028C"/>
<stop offset="0.42" stop-color="#0301A9"/>
<stop offset="0.565" stop-color="#0500BF"/>
<stop offset="0.65" stop-color="#0A00C5"/>
<stop offset="0.6925" stop-color="#0D00C8"/>
<stop offset="0.735" stop-color="#0F00CB"/>
<stop offset="0.761274" stop-color="#1000CE"/>
<stop offset="0.787549" stop-color="#1100D0"/>
<stop offset="0.813823" stop-color="#1200D3"/>
<stop offset="0.840098" stop-color="#1300D6"/>
<stop offset="0.905" stop-color="#1700E0"/>
<stop offset="0.95245" stop-color="#1B00DB"/>
<stop offset="0.9998" stop-color="#2300F9"/>
<stop offset="0.9999" stop-color="#1E00D6"/>
<stop offset="0.9999" stop-color="#0B00C6"/>
<stop offset="0.99995" stop-color="#1700E0"/>
</linearGradient>
</defs>
</svg>
