<svg width="103" height="100" viewBox="0 0 103 100" fill="none" xmlns="http://www.w3.org/2000/svg">
<path d="M92.2543 82.9497L64.5327 74.0448L63.6078 63.2594C63.6078 63.2594 63.6078 63.2437 63.6078 63.2384C65.4365 61.0306 67.9523 57.1326 68.3329 54.1643L68.5971 52.1044C68.798 50.5146 69.3107 49.0041 70.1193 47.6203C71.4671 45.3121 72.1806 42.6819 72.1806 40.0093V29.0074C72.1806 28.1201 71.4565 27.3965 70.5686 27.3965C69.6806 27.3965 68.9565 28.1201 68.9565 29.0074V40.0093C68.9565 42.1115 68.3963 44.1818 67.3392 45.9987C66.3139 47.7575 65.6585 49.6801 65.3995 51.6977L65.1353 53.7576C64.871 55.8333 62.6776 59.4302 60.796 61.5746C60.4366 61.9813 60.3203 62.5253 60.4419 63.0165C60.3996 63.1802 60.3837 63.3545 60.3996 63.5341L61.4196 75.3864C61.4778 76.0307 61.9165 76.5853 62.5296 76.7807L91.2765 86.0131C96.361 87.6241 99.7753 92.2825 99.7753 97.6118C99.7753 98.4991 100.499 99.2228 101.387 99.2228C102.275 99.2228 102.999 98.5044 102.999 97.6118C102.999 90.8723 98.6812 84.9779 92.2596 82.9444L92.2543 82.9497Z" fill="url(#paint0_linear_11999_281)"/>
<path d="M66.0349 34.3526C66.0349 33.5815 65.9873 32.8051 65.9028 32.0498C65.7971 31.1678 64.999 30.5339 64.1111 30.6395C63.2284 30.7452 62.5941 31.5428 62.6998 32.4301C62.7738 33.0639 62.8108 33.7135 62.8108 34.3579C62.8108 41.7312 57.9219 47.726 51.9125 47.726C45.9031 47.726 41.0142 41.7312 41.0142 34.3579C41.0142 26.9846 45.9031 20.9899 51.9125 20.9899C55.5277 20.9899 58.8944 23.2082 60.9187 26.842L56.5055 29.5938C55.3427 28.1149 53.6884 27.2593 51.9125 27.2593C48.4982 27.2593 45.7181 30.4441 45.7181 34.3579C45.7181 38.2717 48.4982 41.4566 51.9125 41.4566C54.1588 41.4566 56.2306 40.0675 57.3194 37.828C57.7105 37.0305 57.3775 36.0639 56.5795 35.673C55.7814 35.2822 54.8141 35.615 54.423 36.4126C53.8786 37.5323 52.9167 38.2294 51.9125 38.2294C50.274 38.2294 48.9421 36.4917 48.9421 34.3526C48.9421 32.2135 50.274 30.4759 51.9125 30.4759C52.5785 30.4759 53.218 30.7769 53.7412 31.3156L51.0616 32.99C50.3058 33.4601 50.0785 34.453 50.5489 35.2083C50.8554 35.6995 51.3787 35.9688 51.9178 35.9688C52.2085 35.9688 52.5045 35.8896 52.7687 35.7259L85.1519 15.5339L89.6022 17.7839C89.8295 17.9001 90.0832 17.9582 90.3316 17.9582C90.6275 17.9582 90.9182 17.8789 91.1772 17.7151L100.812 11.7573C101.309 11.451 101.6 10.9017 101.573 10.3207C101.547 9.73973 101.209 9.21692 100.691 8.95284L96.4995 6.83486V1.61115C96.4995 1.03016 96.1824 0.491469 95.675 0.206256C95.1676 -0.0789577 94.544 -0.0683633 94.0471 0.237977L84.375 6.13763C83.894 6.42813 83.6034 6.95107 83.6034 7.51093V12.6975L70.0835 21.1273C68.5613 18.0427 66.2833 15.4018 63.4187 13.4212C60.0255 11.0761 56.0456 9.84013 51.9125 9.84013C40.7393 9.84013 31.6538 18.9248 31.6538 30.0851V40.4742C31.6538 42.8087 32.2035 45.1433 33.25 47.2295L33.5618 47.8475C34.1644 49.0464 34.5502 50.3299 34.7193 51.6609L35.0364 54.1697C35.4064 57.0641 37.8377 60.7982 39.4708 62.8792C39.4286 63.0007 39.3968 63.1328 39.3863 63.2648L38.4613 74.0502L10.7451 82.9551C4.31809 84.9886 0 90.883 0 97.6225C0 98.5098 0.724084 99.2335 1.61202 99.2335C2.49995 99.2335 3.22404 98.5151 3.22404 97.6225C3.22404 92.2932 6.63834 87.6348 11.7281 86.0238L40.4697 76.7914C41.0881 76.5907 41.5268 76.0414 41.5797 75.3971L42.5998 63.5448C42.6156 63.3652 42.5997 63.1909 42.5575 63.0272C42.8164 62.4779 42.753 61.8124 42.3461 61.3106C40.5438 59.1292 38.4878 55.7436 38.2341 53.763L37.9117 51.2542C37.695 49.564 37.1981 47.932 36.437 46.4108L36.1252 45.7929C35.306 44.1503 34.8673 42.3122 34.8673 40.4795V30.0903C34.8673 20.7047 42.5099 13.062 51.9072 13.062C58.5826 13.062 64.5233 16.8702 67.3298 22.8438L63.6512 25.136C61.0456 20.5567 56.664 17.768 51.9072 17.768C44.1219 17.768 37.7848 25.2099 37.7848 34.3579C37.7848 43.5059 44.1166 50.9479 51.9072 50.9479C59.6978 50.9479 66.0296 43.5059 66.0296 34.3579L66.0349 34.3526ZM90.247 14.4934L88.3496 13.5321L94.7448 9.54432L96.674 10.5215L90.2523 14.4934H90.247ZM86.8327 8.4088L93.2808 4.47394V6.6658L86.8327 10.6853V8.4088Z" fill="url(#paint1_linear_11999_281)"/>
<defs>
<linearGradient id="paint0_linear_11999_281" x1="60.3936" y1="63.0758" x2="103.001" y2="63.2477" gradientUnits="userSpaceOnUse">
<stop stop-color="#000285"/>
<stop offset="0.0001" stop-color="#000285"/>
<stop offset="0.13755" stop-color="#00028C"/>
<stop offset="0.42" stop-color="#0301A9"/>
<stop offset="0.565" stop-color="#0500BF"/>
<stop offset="0.65" stop-color="#0A00C5"/>
<stop offset="0.6925" stop-color="#0D00C8"/>
<stop offset="0.735" stop-color="#0F00CB"/>
<stop offset="0.761274" stop-color="#1000CE"/>
<stop offset="0.787549" stop-color="#1100D0"/>
<stop offset="0.813823" stop-color="#1200D3"/>
<stop offset="0.840098" stop-color="#1300D6"/>
<stop offset="0.905" stop-color="#1700E0"/>
<stop offset="0.95245" stop-color="#1B00DB"/>
<stop offset="0.9998" stop-color="#2300F9"/>
<stop offset="0.9999" stop-color="#1E00D6"/>
<stop offset="0.9999" stop-color="#0B00C6"/>
<stop offset="0.99995" stop-color="#1700E0"/>
</linearGradient>
<linearGradient id="paint1_linear_11999_281" x1="6.6857e-09" y1="49.2936" x2="101.575" y2="50.0008" gradientUnits="userSpaceOnUse">
<stop stop-color="#000285"/>
<stop offset="0.0001" stop-color="#000285"/>
<stop offset="0.13755" stop-color="#00028C"/>
<stop offset="0.42" stop-color="#0301A9"/>
<stop offset="0.565" stop-color="#0500BF"/>
<stop offset="0.65" stop-color="#0A00C5"/>
<stop offset="0.6925" stop-color="#0D00C8"/>
<stop offset="0.735" stop-color="#0F00CB"/>
<stop offset="0.761274" stop-color="#1000CE"/>
<stop offset="0.787549" stop-color="#1100D0"/>
<stop offset="0.813823" stop-color="#1200D3"/>
<stop offset="0.840098" stop-color="#1300D6"/>
<stop offset="0.905" stop-color="#1700E0"/>
<stop offset="0.95245" stop-color="#1B00DB"/>
<stop offset="0.9998" stop-color="#2300F9"/>
<stop offset="0.9999" stop-color="#1E00D6"/>
<stop offset="0.9999" stop-color="#0B00C6"/>
<stop offset="0.99995" stop-color="#1700E0"/>
</linearGradient>
</defs>
</svg>
