<svg width="266" height="1070" viewBox="0 0 266 1070" fill="none" xmlns="http://www.w3.org/2000/svg">
<g filter="url(#filter0_d_11970_340)">
<path d="M130.452 3.5083V1060.51" stroke="white" stroke-width="2.55147" stroke-linecap="round" stroke-linejoin="round"/>
</g>
<g filter="url(#filter1_d_11970_340)">
<path d="M127.401 449.219C128.059 449.3 128.653 449.64 129.05 450.171C129.447 450.702 129.616 451.38 129.519 452.05C129.423 452.72 129.07 453.323 128.539 453.72C128.008 454.118 127.343 454.276 126.689 454.168C126.689 454.168 126.689 454.168 126.689 454.168C124.588 453.825 122.679 453.533 120.576 453.248C84.0215 447.276 46.2986 459.378 9.11253 452.562C7.04843 452.293 5.04751 452.011 2.93079 451.694C5.05824 451.928 7.06835 452.127 9.13986 452.314C46.5644 457.634 83.0531 443.999 121.12 448.529C123.281 448.738 125.244 448.951 127.401 449.219Z" fill="#F3F3F5"/>
</g>
<g filter="url(#filter2_d_11970_340)">
<path d="M126.323 772.054C126.984 772.112 127.589 772.43 128.005 772.946C128.422 773.462 128.614 774.134 128.542 774.806C128.47 775.479 128.14 776.095 127.623 776.511C127.107 776.927 126.448 777.11 125.79 777.026C125.79 777.026 125.79 777.026 125.79 777.026C123.661 776.756 121.723 776.527 119.593 776.301C82.592 771.632 44.6799 780.521 7.20291 775.224C5.11803 775.011 3.09627 774.789 0.957481 774.54C0.957481 774.54 0.957481 774.54 0.957481 774.54C3.10428 774.706 5.1329 774.845 7.2233 774.974C44.878 778.775 81.8704 768.367 119.999 771.569C122.172 771.714 124.151 771.864 126.323 772.054Z" fill="#F3F3F5"/>
</g>
<g filter="url(#filter3_d_11970_340)">
<path d="M129.286 127.527C129.947 127.585 130.552 127.905 130.966 128.422C131.381 128.939 131.573 129.612 131.499 130.284C131.425 130.957 131.093 131.572 130.575 131.987C130.058 132.402 129.399 132.583 128.741 132.497C128.741 132.497 128.741 132.497 128.741 132.497C126.663 132.228 124.772 131.998 122.694 131.773C86.5913 127.104 49.5559 135.993 12.9664 130.695C10.9311 130.483 8.95747 130.26 6.86961 130.012C6.86961 130.012 6.86961 130.012 6.86961 130.012C8.96567 130.177 10.9463 130.317 12.9872 130.446C49.7588 134.247 85.8523 123.838 123.11 127.041C125.233 127.186 127.165 127.336 129.286 127.527Z" fill="#F3F3F5"/>
</g>
<g filter="url(#filter4_d_11970_340)">
<path d="M129.656 592.814C128.998 592.892 128.402 593.228 128.002 593.757C127.602 594.286 127.43 594.963 127.523 595.633C127.615 596.302 127.965 596.907 128.494 597.307C129.022 597.708 129.687 597.87 130.342 597.766C130.342 597.766 130.342 597.766 130.342 597.766C132.529 597.422 134.517 597.131 136.706 596.845C174.763 590.872 213.943 602.974 252.608 596.158C254.755 595.889 256.837 595.607 259.038 595.29C256.826 595.524 254.736 595.724 252.582 595.91C213.688 601.23 175.694 587.597 136.183 592.124C133.938 592.332 131.898 592.546 129.656 592.814Z" fill="#F3F3F5"/>
</g>
<g filter="url(#filter5_d_11970_340)">
<path d="M131.708 917.013C131.047 917.069 130.441 917.385 130.023 917.901C129.606 918.415 129.411 919.087 129.481 919.759C129.552 920.432 129.881 921.048 130.396 921.465C130.911 921.883 131.57 922.068 132.228 921.985C132.228 921.985 132.228 921.985 132.228 921.985C134.409 921.716 136.394 921.486 138.575 921.261C176.474 916.591 215.264 925.48 253.628 920.183C255.762 919.97 257.832 919.748 260.022 919.499C257.824 919.665 255.748 919.804 253.608 919.933C215.07 923.734 177.179 913.326 138.178 916.527C135.955 916.672 133.931 916.822 131.708 917.013Z" fill="#F3F3F5"/>
</g>
<g filter="url(#filter6_d_11970_340)">
<path d="M131.627 255.203C130.969 255.281 130.373 255.617 129.973 256.146C129.572 256.674 129.399 257.351 129.491 258.02C129.583 258.69 129.932 259.295 130.46 259.696C130.989 260.097 131.653 260.26 132.308 260.157C132.308 260.157 132.308 260.157 132.308 260.157C134.512 259.813 136.516 259.521 138.723 259.236C177.079 253.262 216.552 265.364 255.512 258.549C257.676 258.279 259.773 257.997 261.992 257.68C261.992 257.68 261.992 257.68 261.992 257.68C259.763 257.914 257.657 258.114 255.486 258.3C216.298 263.62 178.004 249.987 138.203 254.514C135.941 254.722 133.886 254.936 131.627 255.203Z" fill="#F3F3F5"/>
</g>
<g filter="url(#filter7_d_11970_340)">
<circle cx="130.469" cy="123.951" r="7.44279" fill="white"/>
</g>
<g filter="url(#filter8_d_11970_340)">
<circle cx="130.469" cy="252.951" r="7.44279" fill="#F4F4F8"/>
</g>
<g filter="url(#filter9_d_11970_340)">
<circle cx="130.466" cy="446.951" r="7.44279" fill="#F4F4F8"/>
</g>
<g filter="url(#filter10_d_11970_340)">
<circle cx="130.467" cy="590.951" r="7.44279" fill="#F4F4F8"/>
</g>
<g filter="url(#filter11_d_11970_340)">
<circle cx="130.467" cy="769.951" r="7.44279" fill="#F4F4F8"/>
</g>
<g filter="url(#filter12_d_11970_340)">
<circle cx="130.469" cy="914.951" r="7.44279" fill="#F4F4F8"/>
</g>
<defs>
<filter id="filter0_d_11970_340" x="126.306" y="-0.000114918" width="12.1188" height="1069.12" filterUnits="userSpaceOnUse" color-interpolation-filters="sRGB">
<feFlood flood-opacity="0" result="BackgroundImageFix"/>
<feColorMatrix in="SourceAlpha" type="matrix" values="0 0 0 0 0 0 0 0 0 0 0 0 0 0 0 0 0 0 127 0" result="hardAlpha"/>
<feOffset dx="1.9136" dy="2.55147"/>
<feGaussianBlur stdDeviation="2.392"/>
<feComposite in2="hardAlpha" operator="out"/>
<feColorMatrix type="matrix" values="0 0 0 0 0.998815 0 0 0 0 0.998815 0 0 0 0 0.998815 0 0 0 0.4 0"/>
<feBlend mode="normal" in2="BackgroundImageFix" result="effect1_dropShadow_11970_340"/>
<feBlend mode="normal" in="SourceGraphic" in2="effect1_dropShadow_11970_340" result="shape"/>
</filter>
<filter id="filter1_d_11970_340" x="1.97386" y="446.635" width="131.08" height="11.5871" filterUnits="userSpaceOnUse" color-interpolation-filters="sRGB">
<feFlood flood-opacity="0" result="BackgroundImageFix"/>
<feColorMatrix in="SourceAlpha" type="matrix" values="0 0 0 0 0 0 0 0 0 0 0 0 0 0 0 0 0 0 127 0" result="hardAlpha"/>
<feOffset dx="1.27574" dy="1.27574"/>
<feGaussianBlur stdDeviation="1.11627"/>
<feComposite in2="hardAlpha" operator="out"/>
<feColorMatrix type="matrix" values="0 0 0 0 0.952941 0 0 0 0 0.952941 0 0 0 0 0.960784 0 0 0 1 0"/>
<feBlend mode="normal" in2="BackgroundImageFix" result="effect1_dropShadow_11970_340"/>
<feBlend mode="normal" in="SourceGraphic" in2="effect1_dropShadow_11970_340" result="shape"/>
</filter>
<filter id="filter2_d_11970_340" x="0.000229836" y="769.991" width="132.066" height="10.5632" filterUnits="userSpaceOnUse" color-interpolation-filters="sRGB">
<feFlood flood-opacity="0" result="BackgroundImageFix"/>
<feColorMatrix in="SourceAlpha" type="matrix" values="0 0 0 0 0 0 0 0 0 0 0 0 0 0 0 0 0 0 127 0" result="hardAlpha"/>
<feOffset dx="1.27574" dy="1.27574"/>
<feGaussianBlur stdDeviation="1.11627"/>
<feComposite in2="hardAlpha" operator="out"/>
<feColorMatrix type="matrix" values="0 0 0 0 0.952941 0 0 0 0 0.952941 0 0 0 0 0.960784 0 0 0 1 0"/>
<feBlend mode="normal" in2="BackgroundImageFix" result="effect1_dropShadow_11970_340"/>
<feBlend mode="normal" in="SourceGraphic" in2="effect1_dropShadow_11970_340" result="shape"/>
</filter>
<filter id="filter3_d_11970_340" x="5.91234" y="125.463" width="129.111" height="10.5632" filterUnits="userSpaceOnUse" color-interpolation-filters="sRGB">
<feFlood flood-opacity="0" result="BackgroundImageFix"/>
<feColorMatrix in="SourceAlpha" type="matrix" values="0 0 0 0 0 0 0 0 0 0 0 0 0 0 0 0 0 0 127 0" result="hardAlpha"/>
<feOffset dx="1.27574" dy="1.27574"/>
<feGaussianBlur stdDeviation="1.11627"/>
<feComposite in2="hardAlpha" operator="out"/>
<feColorMatrix type="matrix" values="0 0 0 0 0.952941 0 0 0 0 0.952941 0 0 0 0 0.960784 0 0 0 1 0"/>
<feBlend mode="normal" in2="BackgroundImageFix" result="effect1_dropShadow_11970_340"/>
<feBlend mode="normal" in="SourceGraphic" in2="effect1_dropShadow_11970_340" result="shape"/>
</filter>
<filter id="filter4_d_11970_340" x="126.541" y="590.23" width="136.005" height="11.5876" filterUnits="userSpaceOnUse" color-interpolation-filters="sRGB">
<feFlood flood-opacity="0" result="BackgroundImageFix"/>
<feColorMatrix in="SourceAlpha" type="matrix" values="0 0 0 0 0 0 0 0 0 0 0 0 0 0 0 0 0 0 127 0" result="hardAlpha"/>
<feOffset dx="1.27574" dy="1.27574"/>
<feGaussianBlur stdDeviation="1.11627"/>
<feComposite in2="hardAlpha" operator="out"/>
<feColorMatrix type="matrix" values="0 0 0 0 0.952941 0 0 0 0 0.952941 0 0 0 0 0.960784 0 0 0 1 0"/>
<feBlend mode="normal" in2="BackgroundImageFix" result="effect1_dropShadow_11970_340"/>
<feBlend mode="normal" in="SourceGraphic" in2="effect1_dropShadow_11970_340" result="shape"/>
</filter>
<filter id="filter5_d_11970_340" x="128.51" y="914.949" width="135.021" height="10.5632" filterUnits="userSpaceOnUse" color-interpolation-filters="sRGB">
<feFlood flood-opacity="0" result="BackgroundImageFix"/>
<feColorMatrix in="SourceAlpha" type="matrix" values="0 0 0 0 0 0 0 0 0 0 0 0 0 0 0 0 0 0 127 0" result="hardAlpha"/>
<feOffset dx="1.27574" dy="1.27574"/>
<feGaussianBlur stdDeviation="1.11627"/>
<feComposite in2="hardAlpha" operator="out"/>
<feColorMatrix type="matrix" values="0 0 0 0 0.952941 0 0 0 0 0.952941 0 0 0 0 0.960784 0 0 0 1 0"/>
<feBlend mode="normal" in2="BackgroundImageFix" result="effect1_dropShadow_11970_340"/>
<feBlend mode="normal" in="SourceGraphic" in2="effect1_dropShadow_11970_340" result="shape"/>
</filter>
<filter id="filter6_d_11970_340" x="128.51" y="252.62" width="136.99" height="11.5876" filterUnits="userSpaceOnUse" color-interpolation-filters="sRGB">
<feFlood flood-opacity="0" result="BackgroundImageFix"/>
<feColorMatrix in="SourceAlpha" type="matrix" values="0 0 0 0 0 0 0 0 0 0 0 0 0 0 0 0 0 0 127 0" result="hardAlpha"/>
<feOffset dx="1.27574" dy="1.27574"/>
<feGaussianBlur stdDeviation="1.11627"/>
<feComposite in2="hardAlpha" operator="out"/>
<feColorMatrix type="matrix" values="0 0 0 0 0.952941 0 0 0 0 0.952941 0 0 0 0 0.960784 0 0 0 1 0"/>
<feBlend mode="normal" in2="BackgroundImageFix" result="effect1_dropShadow_11970_340"/>
<feBlend mode="normal" in="SourceGraphic" in2="effect1_dropShadow_11970_340" result="shape"/>
</filter>
<filter id="filter7_d_11970_340" x="120.848" y="113.894" width="20.9862" height="20.9862" filterUnits="userSpaceOnUse" color-interpolation-filters="sRGB">
<feFlood flood-opacity="0" result="BackgroundImageFix"/>
<feColorMatrix in="SourceAlpha" type="matrix" values="0 0 0 0 0 0 0 0 0 0 0 0 0 0 0 0 0 0 127 0" result="hardAlpha"/>
<feMorphology radius="0.435751" operator="dilate" in="SourceAlpha" result="effect1_dropShadow_11970_340"/>
<feOffset dx="0.871501" dy="0.435751"/>
<feGaussianBlur stdDeviation="1.30725"/>
<feComposite in2="hardAlpha" operator="out"/>
<feColorMatrix type="matrix" values="0 0 0 0 1 0 0 0 0 1 0 0 0 0 1 0 0 0 0.4 0"/>
<feBlend mode="normal" in2="BackgroundImageFix" result="effect1_dropShadow_11970_340"/>
<feBlend mode="normal" in="SourceGraphic" in2="effect1_dropShadow_11970_340" result="shape"/>
</filter>
<filter id="filter8_d_11970_340" x="120.848" y="242.894" width="20.9862" height="20.9862" filterUnits="userSpaceOnUse" color-interpolation-filters="sRGB">
<feFlood flood-opacity="0" result="BackgroundImageFix"/>
<feColorMatrix in="SourceAlpha" type="matrix" values="0 0 0 0 0 0 0 0 0 0 0 0 0 0 0 0 0 0 127 0" result="hardAlpha"/>
<feMorphology radius="0.435751" operator="dilate" in="SourceAlpha" result="effect1_dropShadow_11970_340"/>
<feOffset dx="0.871501" dy="0.435751"/>
<feGaussianBlur stdDeviation="1.30725"/>
<feComposite in2="hardAlpha" operator="out"/>
<feColorMatrix type="matrix" values="0 0 0 0 1 0 0 0 0 1 0 0 0 0 1 0 0 0 0.4 0"/>
<feBlend mode="normal" in2="BackgroundImageFix" result="effect1_dropShadow_11970_340"/>
<feBlend mode="normal" in="SourceGraphic" in2="effect1_dropShadow_11970_340" result="shape"/>
</filter>
<filter id="filter9_d_11970_340" x="120.845" y="436.894" width="20.9862" height="20.9862" filterUnits="userSpaceOnUse" color-interpolation-filters="sRGB">
<feFlood flood-opacity="0" result="BackgroundImageFix"/>
<feColorMatrix in="SourceAlpha" type="matrix" values="0 0 0 0 0 0 0 0 0 0 0 0 0 0 0 0 0 0 127 0" result="hardAlpha"/>
<feMorphology radius="0.435751" operator="dilate" in="SourceAlpha" result="effect1_dropShadow_11970_340"/>
<feOffset dx="0.871501" dy="0.435751"/>
<feGaussianBlur stdDeviation="1.30725"/>
<feComposite in2="hardAlpha" operator="out"/>
<feColorMatrix type="matrix" values="0 0 0 0 1 0 0 0 0 1 0 0 0 0 1 0 0 0 0.4 0"/>
<feBlend mode="normal" in2="BackgroundImageFix" result="effect1_dropShadow_11970_340"/>
<feBlend mode="normal" in="SourceGraphic" in2="effect1_dropShadow_11970_340" result="shape"/>
</filter>
<filter id="filter10_d_11970_340" x="120.846" y="580.894" width="20.9862" height="20.9862" filterUnits="userSpaceOnUse" color-interpolation-filters="sRGB">
<feFlood flood-opacity="0" result="BackgroundImageFix"/>
<feColorMatrix in="SourceAlpha" type="matrix" values="0 0 0 0 0 0 0 0 0 0 0 0 0 0 0 0 0 0 127 0" result="hardAlpha"/>
<feMorphology radius="0.435751" operator="dilate" in="SourceAlpha" result="effect1_dropShadow_11970_340"/>
<feOffset dx="0.871501" dy="0.435751"/>
<feGaussianBlur stdDeviation="1.30725"/>
<feComposite in2="hardAlpha" operator="out"/>
<feColorMatrix type="matrix" values="0 0 0 0 1 0 0 0 0 1 0 0 0 0 1 0 0 0 0.4 0"/>
<feBlend mode="normal" in2="BackgroundImageFix" result="effect1_dropShadow_11970_340"/>
<feBlend mode="normal" in="SourceGraphic" in2="effect1_dropShadow_11970_340" result="shape"/>
</filter>
<filter id="filter11_d_11970_340" x="120.846" y="759.894" width="20.9862" height="20.9862" filterUnits="userSpaceOnUse" color-interpolation-filters="sRGB">
<feFlood flood-opacity="0" result="BackgroundImageFix"/>
<feColorMatrix in="SourceAlpha" type="matrix" values="0 0 0 0 0 0 0 0 0 0 0 0 0 0 0 0 0 0 127 0" result="hardAlpha"/>
<feMorphology radius="0.435751" operator="dilate" in="SourceAlpha" result="effect1_dropShadow_11970_340"/>
<feOffset dx="0.871501" dy="0.435751"/>
<feGaussianBlur stdDeviation="1.30725"/>
<feComposite in2="hardAlpha" operator="out"/>
<feColorMatrix type="matrix" values="0 0 0 0 1 0 0 0 0 1 0 0 0 0 1 0 0 0 0.4 0"/>
<feBlend mode="normal" in2="BackgroundImageFix" result="effect1_dropShadow_11970_340"/>
<feBlend mode="normal" in="SourceGraphic" in2="effect1_dropShadow_11970_340" result="shape"/>
</filter>
<filter id="filter12_d_11970_340" x="120.848" y="904.894" width="20.9862" height="20.9862" filterUnits="userSpaceOnUse" color-interpolation-filters="sRGB">
<feFlood flood-opacity="0" result="BackgroundImageFix"/>
<feColorMatrix in="SourceAlpha" type="matrix" values="0 0 0 0 0 0 0 0 0 0 0 0 0 0 0 0 0 0 127 0" result="hardAlpha"/>
<feMorphology radius="0.435751" operator="dilate" in="SourceAlpha" result="effect1_dropShadow_11970_340"/>
<feOffset dx="0.871501" dy="0.435751"/>
<feGaussianBlur stdDeviation="1.30725"/>
<feComposite in2="hardAlpha" operator="out"/>
<feColorMatrix type="matrix" values="0 0 0 0 1 0 0 0 0 1 0 0 0 0 1 0 0 0 0.4 0"/>
<feBlend mode="normal" in2="BackgroundImageFix" result="effect1_dropShadow_11970_340"/>
<feBlend mode="normal" in="SourceGraphic" in2="effect1_dropShadow_11970_340" result="shape"/>
</filter>
</defs>
</svg>
