<svg width="219" height="55" viewBox="0 0 219 55" fill="none" xmlns="http://www.w3.org/2000/svg">
<path d="M121.481 27.9546L114.358 15.6875L106.84 27.9546H121.481Z" fill="#00AAF1" stroke="#00AAF1" stroke-width="0.712281"/>
<g filter="url(#filter0_d_11999_294)">
<path d="M114.5 14.6016L122.846 28.2536H106.154L114.5 14.6016Z" fill="#FE6E4A"/>
<path d="M116.299 24.582H112.701L114.5 21.6387L116.299 24.582Z" stroke="#FE6E4A" stroke-width="7.34227"/>
</g>
<path d="M0.394531 8.96383V5.40243M0.394531 5.40243V1.44531H3.56022C5.14307 1.84102 6.40935 4.13615 3.56022 5.40243H0.394531Z" stroke="#00AAF1" stroke-width="0.791423"/>
<path d="M13.0586 8.56812V5.31141M13.0586 5.31141V1.44531H16.1515C17.6979 1.83192 18.9351 4.07426 16.1515 5.31141H13.0586ZM16.2243 5.40243C17.0157 6.10592 17.8071 8.00533 17.8071 8.56812" stroke="#00AAF1" stroke-width="0.791423"/>
<path d="M52.6289 8.56812V5.31141M52.6289 5.31141V1.44531H55.7218C57.2682 1.83192 58.5054 4.07426 55.7218 5.31141H52.6289ZM55.7946 5.40243C56.586 6.10592 57.3774 8.00533 57.3774 8.56812" stroke="#00AAF1" stroke-width="0.791423"/>
<path d="M32.0517 6.73057C30.8645 9.56715 26.9074 8.7567 26.5117 6.73057V2.48835C27.6989 -0.348229 31.656 0.462223 32.0517 2.48835V6.73057Z" stroke="#00AAF1" stroke-width="0.791423"/>
<path d="M41.8832 0.676599C43.1661 0.776242 44.4661 1.48346 44.7111 2.62359C44.7111 2.62359 45.1138 3.84212 44.7181 4.22547C44.3224 4.60881 45.5095 5.07293 44.7181 6.62157C43.9267 8.17022 45.36 5.22678 44.6872 6.68832C44.0144 8.14987 42.5442 8.66836 41.2216 8.56576C39.9387 8.46612 38.6388 7.7589 38.3937 6.61876L38.3867 6.58433V2.62078L38.4176 2.55403C39.0905 1.09249 40.5607 0.573995 41.8832 0.676599ZM41.9481 1.45549C40.9159 1.37552 39.704 1.70055 39.1781 2.77115V6.50494C39.3439 7.19547 40.2113 7.76542 41.2896 7.84907C42.322 7.92905 43.531 7.2141 43.9267 6.50494C44.3224 5.79578 44.2726 5.07909 44.0596 5.07909C43.8466 5.07909 44.7181 1.8512 41.9481 1.45549Z" fill="#00AAF1"/>
<path d="M43.5312 2.63127L44.3227 1.83984C44.6603 1.83984 44.6392 2.04202 44.6392 2.34096L44.7184 4.60983L43.927 3.8184V3.02698L43.5312 2.63127Z" fill="white" stroke="white" stroke-width="0.522339"/>
<path d="M44.6256 5.4008C44.6256 4.60938 43.7463 4.60938 43.3066 4.60938C42.8669 4.60938 40.7617 4.60938 40.7617 4.60938" stroke="#00AAF1" stroke-width="0.712281" stroke-linecap="round"/>
<path d="M43.9431 1.42578C44.3388 1.82149 44.3388 1.82149 44.3481 1.92197C44.3841 2.08759 44.3413 2.22707 44.246 2.32232C44.0613 2.50701 43.9276 2.62992 43.4917 2.27285L43.603 2.16156C43.5323 2.23421 43.4198 1.95058 43.5319 1.8385L43.5474 1.82149L43.9431 1.42578Z" fill="#00AAF1"/>
<path d="M64.5 8.56614C64.5 8.56614 66.8743 1.04728 67.27 0.651909C67.6657 0.256541 68.0614 0.256541 68.4571 0.651909C68.8528 1.04728 71.2271 8.56614 71.2271 8.56614M65.6871 5.79616H70.04" stroke="#00AAF1" stroke-width="0.712281"/>
<path d="M92.1992 8.86302C92.1992 8.86302 94.5735 1.34415 94.9692 0.948784C95.3649 0.553416 95.7606 0.553416 96.1563 0.948784C96.552 1.34415 98.9263 8.86302 98.9263 8.86302M93.3864 6.09303H97.7392" stroke="#00AAF1" stroke-width="0.712281"/>
<path d="M77.957 8.56658V0.652344C77.957 0.652344 78.3512 0.652344 78.7485 0.652344C79.1457 0.652344 81.5184 6.19231 81.5184 6.19231C81.5184 6.19231 83.8942 0.652344 84.2884 0.652344C84.6826 0.652344 85.0798 0.652344 85.0798 0.652344V8.56658" stroke="#00AAF1" stroke-width="0.712281"/>
<path d="M0.394531 16.4805H7.91305V53.2816H0.394531V16.4805Z" fill="#0152AD" stroke="#0152AD" stroke-width="0.712281"/>
<path d="M16.6172 53.283H23.3443C23.3443 53.283 22.9486 23.6049 23.3443 24.0004C23.74 24.3958 34.0285 42.5988 34.0285 42.5988C34.0285 42.5988 43.9213 24.3963 44.317 24.0004C44.7127 23.6044 44.317 53.283 44.317 53.283H51.4398V16.0861C51.4398 16.0861 47.4827 15.6902 45.1084 16.0861C42.7342 16.482 42.4586 16.9351 41.1513 18.0647C39.6267 19.382 38.3813 22.4175 38.3813 22.4175L34.0285 31.1232L29.28 22.4175C29.28 22.4175 28.0524 19.3611 26.51 18.0647C24.9721 16.7721 23.7314 16.4801 21.7614 16.0861C19.7915 15.6921 16.6172 16.0861 16.6172 16.0861V53.283Z" fill="#0152AD" stroke="#0152AD" stroke-width="0.712281"/>
<path fill-rule="evenodd" clip-rule="evenodd" d="M60.1484 53.2839V16.2571L74.3941 16.085C92.5968 15.1219 93.3882 40.8432 74.3941 39.2619H67.667V53.2839H60.1484ZM67.2712 33.8919V22.0205H75.9769C81.5169 22.0205 83.4954 32.7048 76.3726 33.8919L67.2712 33.8919Z" fill="#0152AD" stroke="#0152AD" stroke-width="0.712281"/>
<path d="M92.1992 16.875H98.9263V41.4091C100.113 46.5534 107.632 49.7191 111.193 41.4091V31.1206H117.525V41.4091C117.129 55.259 94.9692 58.029 92.1992 41.4091V16.875Z" fill="#0152AD" stroke="#0152AD" stroke-width="0.712281"/>
<path d="M127.418 16.4805V43.7846C127.814 46.8184 130.346 52.8859 137.311 52.8859H151.952V47.346H138.102C136.915 47.346 134.936 46.1588 134.936 43.7846V16.4805H127.418Z" fill="#0152AD" stroke="#0152AD" stroke-width="0.712281"/>
<path d="M178.468 25.9749L183.216 22.0178C180.444 16.0836 166.99 13.3146 160.265 18.8521C155.91 22.0179 153.141 33.4944 164.222 36.66C168.573 37.9029 177.278 39.0355 176.883 43.3883C176.447 48.1826 166.594 51.3026 159.867 42.5969L154.723 46.554C158.284 52.8854 168.968 56.4468 180.048 51.3026C184.31 49.324 188.754 38.2441 176.883 33.0998C173.23 31.517 163.033 31.9127 163.824 26.3727C163.824 21.6242 171.738 18.4585 178.468 25.9749Z" fill="#0152AD" stroke="#0152AD" stroke-width="0.712281"/>
<path d="M195.875 42.2026C197.853 50.1168 209.329 50.1168 210.912 42.2026V27.1656C208.933 19.2513 197.458 19.2513 195.875 27.1656V42.2026Z" fill="white"/>
<path d="M202.733 15.2863C206.376 15.1102 210.077 15.8745 212.978 17.7348C215.891 19.602 217.983 22.5661 218.39 26.7365L218.392 26.7542V42.6028H218.04L218.395 42.6376C217.988 46.808 215.896 49.772 212.983 51.6392C210.081 53.4995 206.38 54.2638 202.738 54.0877C199.095 53.9116 195.478 52.7936 192.735 50.8494C189.988 48.9017 188.105 46.1107 188.001 42.6105L188.255 42.6028H187.996V26.7635C188.1 23.2633 189.984 20.4723 192.731 18.5247C195.473 16.5804 199.091 15.4624 202.733 15.2863ZM202.768 15.9981C199.238 16.1688 195.756 17.2528 193.143 19.1059C190.534 20.9555 188.805 23.5569 188.709 26.7851V42.5889H188.713C188.809 45.8171 190.539 48.4186 193.147 50.2682C195.761 52.1212 199.242 53.206 202.773 53.3767C206.303 53.5473 209.849 52.8023 212.598 51.0395C215.329 49.2887 217.289 46.5263 217.681 42.6028H217.679V26.7913C217.291 22.8572 215.329 20.0883 212.594 18.3345C209.844 16.5717 206.299 15.8275 202.768 15.9981ZM203.246 20.8742C206.698 20.8742 210.223 22.9411 211.258 27.0796L211.269 27.1221V42.2388L211.262 42.2728C210.432 46.4238 206.997 48.4952 203.542 48.4952C200.09 48.4952 196.565 46.4284 195.53 42.2898L195.519 42.2473V27.1306L195.526 27.0966C196.356 22.9456 199.791 20.8742 203.246 20.8742ZM203.246 21.5868C200.081 21.5868 196.996 23.4623 196.232 27.204V42.1561C197.188 45.9053 200.378 47.7826 203.542 47.7826C206.708 47.7826 209.793 45.907 210.556 42.1646V27.2125C209.6 23.4639 206.41 21.5868 203.246 21.5868Z" fill="#0152AD"/>
<path fill-rule="evenodd" clip-rule="evenodd" d="M202.768 15.9981C199.238 16.1688 195.756 17.2528 193.143 19.1059C190.534 20.9555 188.805 23.5569 188.709 26.7851V42.5889H188.713C188.809 45.8171 190.539 48.4186 193.147 50.2682C195.761 52.1212 199.242 53.206 202.773 53.3767C206.303 53.5473 209.849 52.8023 212.598 51.0395C215.329 49.2887 217.289 46.5263 217.681 42.6028H217.679V26.7913C217.291 22.8572 215.329 20.0883 212.594 18.3345C209.844 16.5717 206.299 15.8275 202.768 15.9981ZM211.258 27.0796C210.223 22.9411 206.698 20.8742 203.246 20.8742C199.791 20.8742 196.356 22.9456 195.526 27.0966L195.519 27.1306V42.2473L195.53 42.2898C196.565 46.4284 200.09 48.4952 203.542 48.4952C206.997 48.4952 210.432 46.4238 211.262 42.2728L211.269 42.2388V27.1221L211.258 27.0796Z" fill="#0152AD"/>
<defs>
<filter id="filter0_d_11999_294" x="103.729" y="14.6016" width="21.5416" height="18.5064" filterUnits="userSpaceOnUse" color-interpolation-filters="sRGB">
<feFlood flood-opacity="0" result="BackgroundImageFix"/>
<feColorMatrix in="SourceAlpha" type="matrix" values="0 0 0 0 0 0 0 0 0 0 0 0 0 0 0 0 0 0 127 0" result="hardAlpha"/>
<feOffset dy="2.42703"/>
<feGaussianBlur stdDeviation="1.21352"/>
<feComposite in2="hardAlpha" operator="out"/>
<feColorMatrix type="matrix" values="0 0 0 0 0 0 0 0 0 0 0 0 0 0 0 0 0 0 0.25 0"/>
<feBlend mode="normal" in2="BackgroundImageFix" result="effect1_dropShadow_11999_294"/>
<feBlend mode="normal" in="SourceGraphic" in2="effect1_dropShadow_11999_294" result="shape"/>
</filter>
</defs>
</svg>
